<?xml version="1.0" standalone="no"?>
<!DOCTYPE svg PUBLIC "-//W3C//DTD SVG 20010904//EN"
 "http://www.w3.org/TR/2001/REC-SVG-20010904/DTD/svg10.dtd">
<svg version="1.0" xmlns="http://www.w3.org/2000/svg"
 width="3520.000000pt" height="3520.000000pt" viewBox="0 0 3520.000000 3520.000000"
 preserveAspectRatio="xMidYMid meet">
<metadata>
Created by potrace 1.14, written by Peter Selinger 2001-2017
</metadata>
<g transform="translate(0.000000,3520.000000) scale(0.100000,-0.100000)"
fill="#000000" stroke="none">
<path d="M4018 21865 c-2 -2 -46 -7 -98 -10 -52 -4 -111 -8 -130 -11 -67 -7
-113 -13 -149 -19 -20 -3 -52 -8 -71 -11 -19 -3 -87 -16 -150 -29 -107 -22
-168 -37 -280 -65 -25 -7 -49 -13 -55 -14 -5 -2 -17 -6 -25 -9 -8 -3 -46 -15
-85 -27 -62 -18 -244 -84 -315 -113 -14 -6 -27 -11 -30 -12 -69 -23 -465 -218
-480 -236 -3 -3 -21 -14 -40 -24 -84 -43 -411 -267 -505 -346 -11 -10 -56 -48
-100 -85 -236 -199 -562 -550 -684 -739 -14 -22 -32 -46 -39 -54 -20 -21 -151
-225 -194 -302 -14 -25 -32 -56 -39 -70 -8 -13 -18 -27 -24 -31 -5 -4 -6 -8
-1 -8 5 0 4 -6 -3 -13 -22 -28 -145 -286 -191 -402 -4 -11 -15 -36 -24 -57 -9
-20 -16 -39 -16 -43 0 -4 -6 -21 -14 -38 -21 -47 -69 -190 -69 -204 0 -7 -3
-13 -7 -13 -4 0 -7 -6 -7 -12 0 -7 -10 -49 -22 -93 -20 -71 -32 -119 -57 -220
-4 -16 -8 -34 -10 -40 -1 -5 -5 -26 -9 -45 -3 -19 -10 -53 -15 -75 -4 -22 -11
-60 -14 -85 -3 -25 -8 -56 -11 -70 -3 -14 -7 -50 -10 -80 -2 -30 -5 -55 -6
-55 -2 0 -6 -41 -16 -155 -16 -176 -7 -686 13 -800 2 -14 7 -50 9 -80 3 -30 7
-66 10 -80 3 -14 8 -47 11 -75 3 -27 8 -54 11 -58 3 -5 7 -23 10 -40 2 -18 7
-43 9 -57 3 -14 7 -34 9 -45 1 -11 8 -40 15 -65 7 -25 14 -54 16 -65 2 -11 13
-51 24 -90 11 -38 22 -79 24 -90 6 -32 89 -271 131 -375 56 -141 225 -482 286
-580 9 -14 42 -68 75 -120 32 -52 61 -97 64 -100 4 -3 21 -27 40 -55 18 -27
44 -63 57 -80 12 -16 29 -39 37 -50 28 -38 159 -200 182 -225 13 -14 47 -51
76 -83 105 -116 340 -339 430 -407 18 -14 40 -33 50 -42 10 -10 21 -18 24 -18
3 0 12 -7 21 -15 27 -28 280 -205 292 -205 6 0 11 -4 11 -9 0 -5 13 -14 30
-21 17 -7 30 -16 30 -20 0 -4 8 -10 18 -13 9 -4 40 -20 67 -37 28 -17 57 -33
65 -37 8 -4 17 -9 20 -13 12 -15 385 -192 495 -235 147 -57 315 -116 315 -109
0 2 14 -2 30 -11 17 -9 30 -13 30 -9 0 4 7 1 15 -6 8 -7 15 -10 15 -6 0 3 15
0 34 -8 19 -8 37 -12 40 -9 3 3 12 0 21 -7 8 -7 15 -10 15 -7 0 3 15 1 33 -4
17 -5 52 -14 77 -20 25 -5 56 -12 70 -15 14 -3 34 -7 45 -9 11 -2 56 -10 100
-18 44 -9 105 -19 135 -22 30 -4 84 -10 120 -15 217 -30 784 -33 931 -5 15 3
48 7 75 9 27 3 49 5 49 6 0 1 14 3 30 5 70 8 119 16 187 30 40 8 84 17 98 19
14 3 27 5 30 6 3 2 8 2 12 1 3 0 28 6 54 14 26 8 50 13 53 13 3 -1 13 2 21 5
8 3 42 13 75 21 94 24 318 99 450 151 126 49 466 212 476 227 3 5 12 10 20 11
8 2 21 7 29 12 8 6 23 14 32 20 68 40 168 103 194 122 17 13 36 23 42 23 6 0
12 3 14 8 2 4 43 36 92 70 48 35 93 67 100 72 65 53 163 133 199 163 26 22
195 177 211 193 107 110 233 247 286 313 19 24 40 48 46 55 18 19 148 198 194
266 24 36 47 66 52 68 4 2 8 8 8 13 0 5 19 39 43 76 24 38 46 75 50 83 4 8 21
38 37 65 17 28 44 77 61 110 16 33 34 67 39 75 18 31 80 160 80 165 0 3 11 31
26 63 23 50 101 249 108 277 2 6 6 17 9 25 19 46 90 294 112 390 2 8 9 38 15
65 6 28 13 61 15 75 2 14 8 45 13 70 17 72 27 147 47 325 3 33 8 75 11 94 4
29 17 359 15 386 0 6 -3 79 -5 163 -3 84 -8 157 -10 161 -3 3 -7 43 -11 86 -4
44 -8 94 -10 110 -3 17 -6 46 -9 65 -3 19 -7 49 -10 65 -3 17 -8 44 -11 60
-15 84 -31 164 -45 225 -21 88 -28 116 -50 190 -11 41 -23 84 -25 95 -5 22
-79 238 -94 270 -13 29 -66 159 -67 165 0 3 -11 28 -24 55 -13 28 -23 53 -22
58 1 4 -3 7 -8 7 -6 0 -10 5 -10 12 0 10 -80 172 -122 246 -79 140 -98 170
-182 297 -44 66 -84 122 -88 123 -4 2 -8 10 -8 17 0 7 -3 15 -7 17 -5 2 -28
30 -53 63 -25 33 -51 66 -58 73 -7 8 -25 30 -40 50 -15 20 -36 46 -47 58 -11
12 -50 54 -86 95 -89 100 -189 199 -295 295 -48 43 -98 89 -111 102 -13 12
-27 22 -31 22 -4 0 -23 15 -42 33 -32 30 -89 73 -242 185 -31 23 -62 42 -68
42 -5 0 -10 5 -10 10 0 6 -5 10 -10 10 -9 0 -65 35 -80 50 -5 5 -23 16 -109
64 -108 62 -138 78 -231 126 -113 58 -262 127 -295 136 -5 1 -44 17 -85 34
-116 48 -414 144 -515 166 -24 5 -57 12 -87 19 -48 11 -279 55 -320 60 -24 3
-59 8 -78 10 -36 6 -101 12 -181 18 -25 2 -50 6 -55 9 -11 6 -550 9 -556 3z
m-207 -1503 c57 -28 117 -56 134 -62 l30 -11 -75 -40 c-41 -21 -83 -42 -92
-45 -10 -3 -18 -9 -18 -13 0 -8 -51 -35 -59 -31 -2 1 -7 -2 -10 -7 -3 -5 -35
-30 -71 -55 -75 -53 -157 -130 -183 -171 -51 -79 -63 -193 -28 -269 23 -51
113 -148 136 -148 8 0 15 -4 15 -10 0 -5 5 -10 10 -10 6 0 16 -4 23 -10 7 -5
47 -33 90 -61 42 -28 77 -56 77 -62 0 -7 -16 -26 -36 -42 -73 -61 -247 -241
-329 -339 -22 -27 -45 -54 -50 -60 -31 -33 -145 -188 -145 -196 0 -6 -3 -10
-8 -10 -9 0 -47 -73 -66 -127 -21 -60 -14 -147 17 -214 27 -57 114 -149 142
-149 8 0 15 -4 15 -9 0 -5 10 -13 21 -16 12 -4 49 -25 83 -46 33 -21 67 -39
74 -39 6 0 12 -4 12 -10 0 -5 5 -10 11 -10 6 0 30 -13 54 -30 24 -16 46 -30
49 -30 18 0 290 -189 366 -255 75 -65 235 -234 288 -305 31 -41 62 -81 69 -88
7 -7 13 -20 13 -28 0 -8 4 -14 10 -14 5 0 19 -19 31 -42 12 -24 25 -45 29 -48
7 -5 119 -215 120 -225 0 -3 10 -26 21 -52 16 -38 65 -178 76 -218 7 -27 25
-102 28 -118 2 -10 6 -26 9 -35 3 -9 8 -35 10 -57 3 -22 8 -60 12 -85 8 -59
12 -330 5 -330 -3 0 -7 -17 -8 -38 -3 -79 -6 -103 -15 -108 -4 -3 -6 -9 -3
-14 3 -5 -2 -35 -11 -66 -9 -31 -18 -64 -19 -73 -2 -9 -4 -17 -5 -18 -2 -2 -4
-7 -5 -13 -1 -5 -3 -11 -5 -12 -1 -2 -3 -10 -5 -20 -10 -51 -152 -341 -175
-358 -4 -3 -13 -16 -20 -29 -7 -14 -17 -30 -22 -35 -5 -6 -26 -33 -46 -61 -93
-125 -238 -267 -350 -345 -21 -14 -38 -28 -40 -32 -2 -5 -9 -8 -15 -8 -6 0
-18 -6 -26 -14 -22 -18 -154 -87 -221 -115 -30 -12 -64 -26 -75 -31 -11 -4
-33 -13 -50 -18 -16 -6 -39 -13 -50 -18 -11 -4 -24 -8 -30 -10 -5 -1 -37 -9
-70 -18 -33 -9 -73 -19 -90 -22 -16 -2 -37 -7 -45 -9 -8 -2 -30 -7 -47 -10
-18 -3 -46 -7 -62 -10 -101 -17 -235 -28 -351 -28 -115 0 -277 11 -294 20 -4
3 -25 7 -45 9 -112 10 -75 19 76 19 203 0 292 8 433 37 30 6 63 12 72 13 10 1
21 4 24 8 4 4 15 7 24 7 10 0 46 9 81 21 35 11 71 22 79 24 8 2 16 4 18 5 1 2
5 3 10 5 92 25 372 186 439 251 10 11 34 33 53 49 19 17 57 58 85 90 27 33 53
61 57 63 5 2 8 8 8 14 0 5 13 28 29 52 53 77 180 336 164 336 -3 0 -1 6 4 13
11 13 49 133 57 182 3 17 8 41 11 55 16 76 20 120 20 270 0 164 -8 260 -25
306 -5 13 -7 24 -5 24 2 0 0 11 -5 25 -5 14 -12 36 -14 48 -6 33 -45 146 -68
197 -46 101 -82 175 -87 180 -4 3 -15 22 -26 42 -25 49 -128 192 -185 259 -45
54 -212 221 -246 249 -11 8 -42 33 -69 55 -46 38 -84 65 -124 90 -9 6 -18 12
-21 15 -4 5 -50 35 -120 79 -14 9 -48 27 -75 41 -28 14 -51 28 -53 33 -2 4 -9
7 -16 7 -6 0 -37 13 -68 29 -78 41 -280 117 -333 126 -11 1 -39 10 -62 18 -24
9 -43 14 -43 12 0 -2 -18 2 -40 10 -22 8 -40 13 -40 11 0 -2 -21 2 -47 10 -27
8 -64 17 -83 20 -19 3 -39 8 -43 11 -5 3 -23 7 -40 10 -18 2 -45 8 -62 13 -16
5 -48 11 -70 14 -22 3 -77 12 -122 20 -79 14 -165 26 -228 32 -16 1 -30 3 -30
4 0 1 -11 3 -25 6 -33 6 -74 37 -78 59 -4 20 49 165 60 165 5 0 8 6 8 13 0 21
156 313 201 379 11 14 19 29 19 32 0 4 23 40 50 82 28 41 50 80 50 85 0 5 4 9
8 9 5 0 15 12 23 28 8 15 18 30 24 34 6 5 5 17 -5 35 -11 19 -29 30 -65 40
-28 8 -59 16 -70 19 -11 3 -29 7 -40 9 -11 2 -20 4 -20 5 0 2 -9 4 -20 6 -11
2 -56 12 -101 23 -82 20 -119 28 -164 36 -26 4 -53 10 -105 21 -41 9 -125 55
-135 75 -10 18 -2 59 11 59 5 0 9 7 9 16 0 9 8 28 18 42 11 15 26 41 34 57 8
17 24 46 35 65 11 19 32 58 48 85 15 28 36 62 46 77 11 14 19 31 19 36 0 6 3
12 8 14 4 2 19 21 33 43 73 110 115 139 187 131 47 -6 172 -39 192 -51 5 -3
18 -8 27 -10 10 -2 68 -21 128 -43 61 -21 112 -39 115 -39 3 0 30 -8 60 -18
61 -21 62 -21 105 -30 16 -3 31 -8 34 -10 10 -10 64 32 154 119 53 52 146 131
205 175 59 45 112 84 117 88 55 42 315 195 315 185 0 -4 4 -2 8 4 7 11 208
111 252 125 52 17 114 3 221 -49z m389 -253 c19 -12 37 -24 40 -28 3 -3 23
-19 45 -36 21 -16 47 -36 55 -45 9 -8 45 -40 81 -71 35 -32 91 -84 124 -116
88 -87 98 -92 150 -82 25 5 80 23 123 40 42 17 82 32 87 33 6 1 26 9 45 17 19
9 62 26 95 39 33 12 69 26 80 31 74 30 95 37 95 31 0 -4 4 -2 8 4 9 14 267 96
341 109 19 3 37 8 41 10 11 7 89 16 170 20 64 4 82 1 125 -20 28 -14 66 -39
85 -57 31 -29 65 -58 194 -168 85 -71 207 -200 195 -204 -8 -3 -41 -7 -74 -10
-33 -3 -69 -8 -80 -10 -11 -2 -47 -7 -80 -11 -33 -3 -82 -11 -110 -16 -27 -6
-63 -13 -80 -16 -44 -7 -144 -41 -194 -66 -55 -27 -109 -90 -117 -136 -3 -20
-9 -47 -14 -62 -15 -48 -3 -109 36 -179 7 -14 21 -41 31 -60 10 -19 21 -37 24
-40 11 -9 89 -165 89 -178 0 -7 4 -12 8 -12 4 0 13 -13 19 -29 10 -28 10 -29
-26 -37 -20 -4 -39 -7 -43 -6 -5 1 -8 -3 -8 -9 0 -5 -4 -8 -10 -4 -5 3 -17 1
-27 -4 -10 -5 -72 -28 -138 -50 -66 -22 -151 -52 -190 -67 -38 -14 -80 -29
-92 -31 -13 -3 -23 -9 -23 -12 0 -4 -6 -8 -12 -8 -18 0 -192 -75 -199 -86 -3
-5 -10 -9 -15 -9 -37 -1 -123 -71 -160 -129 -27 -43 -37 -84 -37 -149 1 -108
27 -167 123 -272 38 -41 44 -48 104 -138 31 -46 56 -88 56 -92 0 -5 6 -16 14
-23 32 -32 219 -495 200 -495 -3 0 0 -8 5 -17 5 -10 12 -31 15 -48 3 -16 10
-50 15 -75 24 -105 30 -138 36 -190 3 -25 8 -63 11 -85 9 -73 12 -359 3 -382
-5 -13 -4 -25 2 -28 5 -4 7 -11 3 -16 -6 -11 -12 -39 -18 -94 -3 -22 -9 -62
-15 -90 -6 -27 -14 -61 -17 -75 -2 -14 -7 -33 -10 -42 -3 -9 -7 -26 -9 -37 -3
-12 -7 -29 -9 -38 -12 -54 -70 -203 -115 -297 -124 -259 -327 -504 -576 -692
-129 -98 -309 -211 -430 -270 -22 -10 -43 -23 -46 -27 -3 -5 -8 -8 -10 -6 -2
1 -25 -8 -51 -20 -59 -26 -102 -43 -107 -41 -2 1 -7 -2 -10 -7 -7 -9 -181 -72
-221 -79 -14 -3 -33 -7 -42 -10 -10 -3 -30 -7 -44 -10 -14 -3 -51 -11 -81 -19
-31 -8 -60 -12 -64 -9 -5 3 -14 2 -21 -2 -7 -4 -24 -9 -38 -10 -14 -2 -47 -5
-75 -9 -27 -3 -129 -7 -225 -10 -166 -4 -179 1 -50 20 20 3 47 8 60 10 14 3
41 8 60 11 19 3 62 12 95 21 33 8 71 17 85 20 39 7 260 83 310 106 25 12 47
21 50 22 34 4 288 162 365 227 52 44 159 151 213 213 113 131 290 437 337 580
8 28 18 57 22 65 7 17 10 27 17 55 2 11 12 49 21 85 9 36 17 76 19 90 17 126
21 185 21 310 0 126 -4 188 -20 300 -1 14 -4 25 -5 25 -1 0 -3 9 -4 20 -21
161 -118 436 -219 620 -21 39 -43 81 -50 95 -6 14 -14 27 -17 30 -3 3 -25 37
-50 75 -25 39 -47 72 -50 75 -3 3 -17 21 -30 40 -13 19 -27 37 -30 40 -3 3
-25 30 -50 60 -58 72 -228 243 -310 311 -36 30 -67 57 -70 60 -12 14 -212 149
-220 149 -6 0 -10 5 -10 10 0 6 -4 10 -9 10 -5 0 -64 34 -131 75 -67 41 -124
75 -126 75 -11 0 -162 97 -177 114 -13 14 -16 29 -12 50 7 31 57 113 95 153
11 12 20 26 20 30 0 5 8 16 18 24 9 9 26 29 37 45 25 35 120 148 160 190 17
17 53 56 81 85 62 65 138 135 224 208 127 106 135 130 68 194 -78 74 -209 165
-313 217 -81 40 -105 60 -105 85 0 45 5 50 152 170 9 7 40 28 70 47 30 18 63
39 74 45 10 7 73 39 139 72 135 67 178 74 235 40z m2310 -691 c11 -7 30 -33
42 -58 13 -24 29 -51 36 -58 6 -7 12 -17 12 -22 0 -5 13 -37 29 -72 35 -78
113 -298 105 -298 -4 0 -2 -6 4 -12 5 -7 13 -26 16 -43 16 -73 58 -90 218 -90
65 0 118 -2 118 -5 0 -3 51 -6 113 -6 141 -2 364 -15 505 -29 31 -4 71 -8 88
-9 163 -18 185 -33 214 -146 10 -41 21 -91 24 -110 2 -19 7 -46 10 -60 2 -14
7 -50 11 -80 3 -30 8 -73 11 -95 11 -99 16 -208 17 -447 1 -142 0 -258 -3
-258 -3 0 -5 -24 -6 -53 0 -28 -4 -86 -7 -127 -7 -74 -11 -101 -22 -190 -4
-25 -8 -61 -11 -80 -10 -74 -25 -166 -34 -200 -5 -19 -11 -53 -14 -75 -2 -22
-5 -41 -7 -42 -1 -2 -3 -7 -4 -13 -1 -5 -4 -12 -5 -15 -1 -3 -3 -13 -4 -22 -1
-10 -6 -34 -11 -53 -5 -19 -10 -38 -11 -42 -1 -5 -2 -9 -4 -10 -2 -3 -6 -20
-13 -58 -3 -14 -6 -26 -6 -27 -1 -2 -2 -6 -2 -10 -1 -5 -10 -30 -19 -58 -9
-27 -18 -53 -19 -57 -2 -9 -4 -17 -27 -88 -10 -30 -19 -59 -20 -65 -3 -9 -30
-85 -67 -187 -7 -21 -16 -41 -20 -44 -4 -4 -7 -16 -7 -26 0 -10 -4 -18 -8 -18
-5 0 -9 -6 -9 -12 0 -23 -181 -377 -225 -440 -10 -14 -18 -31 -18 -36 0 -6 -3
-12 -7 -14 -5 -1 -33 -41 -63 -88 -30 -47 -58 -89 -62 -95 -44 -59 -174 -226
-209 -267 -56 -67 -276 -288 -352 -353 -32 -27 -64 -55 -70 -60 -7 -6 -37 -29
-67 -53 -30 -23 -59 -45 -65 -50 -13 -10 -195 -133 -220 -149 -90 -55 -236
-137 -315 -175 -125 -61 -207 -98 -215 -98 -4 0 -22 -7 -41 -15 -82 -36 -106
-45 -239 -89 -207 -68 -513 -143 -652 -160 -18 -3 -36 -6 -40 -9 -4 -3 -37 -8
-73 -12 -36 -4 -83 -9 -105 -12 -22 -3 -64 -6 -92 -6 -29 -1 -53 -4 -53 -7 0
-8 -152 -14 -365 -13 -276 0 -407 10 -630 49 -77 14 -153 27 -170 30 -16 3
-41 9 -55 14 -21 7 -53 15 -140 35 -86 20 -369 120 -467 165 -24 11 -45 20
-48 20 -8 0 -239 114 -245 121 -3 3 -14 9 -24 13 -67 24 -494 303 -504 328 -2
4 -10 8 -17 8 -7 0 -15 3 -17 8 -1 4 -39 37 -83 72 -206 168 -397 362 -592
603 -37 47 1 17 104 -81 61 -59 128 -121 150 -139 21 -17 47 -40 58 -50 11
-10 56 -46 100 -81 44 -35 91 -72 105 -83 14 -11 37 -28 52 -37 16 -9 28 -20
28 -24 0 -4 7 -8 15 -8 8 0 15 -4 15 -10 0 -5 6 -10 13 -10 8 0 22 -9 32 -20
10 -11 22 -20 27 -20 5 0 28 -13 51 -29 60 -41 250 -141 332 -175 39 -16 84
-34 100 -41 98 -41 263 -86 400 -110 134 -24 176 -27 330 -28 173 -1 341 16
483 48 12 3 30 7 40 9 9 2 44 11 77 20 33 10 67 19 75 21 8 2 15 4 15 5 0 1 7
3 15 5 40 8 216 75 310 117 82 37 285 140 312 159 14 11 29 19 33 19 3 0 33
18 66 40 33 22 64 40 69 40 5 0 10 3 12 8 2 4 28 24 58 44 30 21 67 48 82 60
14 13 41 34 58 48 116 92 295 276 365 375 11 16 26 34 33 41 6 7 12 17 12 23
0 6 5 11 11 11 5 0 8 4 5 9 -3 5 0 11 7 14 6 3 21 22 32 43 11 22 23 41 26 44
12 10 95 175 131 260 60 143 113 326 132 455 4 23 8 50 10 61 26 135 26 507 1
669 -3 17 -7 44 -10 60 -4 30 -29 153 -38 190 -3 11 -10 41 -16 68 -6 26 -25
91 -43 145 -17 53 -32 99 -33 102 -3 9 -17 44 -25 65 -37 87 -57 131 -93 205
-22 47 -43 87 -46 90 -3 3 -15 23 -26 44 -11 22 -24 44 -30 50 -5 6 -31 43
-57 81 -26 39 -66 90 -88 115 -23 25 -46 56 -51 70 -14 35 -3 83 24 99 32 21
122 64 157 76 3 1 19 7 35 14 17 7 35 14 40 15 6 2 23 8 38 14 16 7 31 12 34
12 3 0 19 6 36 14 44 19 188 70 272 96 39 12 77 24 85 27 8 4 18 7 23 8 4 2 8
3 10 5 1 1 9 3 17 5 8 2 56 15 105 30 50 15 101 30 115 32 58 12 72 50 46 120
-8 21 -17 47 -22 58 -4 11 -8 26 -10 33 -5 27 -126 260 -170 327 -56 87 -63
111 -38 135 17 16 153 54 238 66 36 5 71 12 71 14 0 1 23 3 50 6 28 3 61 7 75
10 14 2 52 7 85 10 33 4 62 8 65 11 8 8 100 -7 120 -19z"/>
<path d="M9848 20564 c-3 -3 -19 -6 -34 -7 l-29 -2 -1 -83 c-1 -68 2 -85 16
-92 11 -6 21 -5 28 2 7 7 12 8 12 3 0 -6 48 -11 107 -13 59 -1 119 -5 133 -8
14 -3 43 -7 64 -10 42 -6 90 -27 120 -53 43 -38 73 -138 84 -286 9 -128 9
-3895 0 -4035 -4 -58 -10 -116 -13 -130 -3 -14 -8 -40 -10 -58 -6 -39 -29 -77
-69 -115 -44 -40 -103 -54 -271 -63 -111 -6 -185 -11 -196 -13 -3 -1 -5 -40
-5 -88 l1 -88 1013 0 c556 0 1013 2 1013 5 7 29 2 163 -6 168 -5 3 -37 7 -70
8 -375 12 -507 50 -560 160 -21 46 -44 140 -52 214 -3 30 -7 999 -10 2153 l-4
2097 25 9 c29 12 139 33 181 36 17 1 39 5 50 8 72 22 336 24 515 2 119 -14
331 -66 354 -87 6 -4 17 -8 26 -8 24 0 197 -95 250 -138 115 -91 202 -197 263
-319 33 -65 84 -210 93 -263 2 -14 7 -36 10 -50 10 -44 12 -54 18 -132 15
-174 5 -383 -25 -523 -5 -27 -12 -59 -15 -70 -2 -11 -6 -29 -8 -40 -19 -85
-107 -283 -161 -359 -54 -79 -141 -175 -195 -217 -17 -13 -41 -32 -53 -42 -11
-10 -37 -28 -57 -39 -19 -12 -38 -26 -41 -31 -3 -5 -9 -8 -13 -8 -3 1 -36 -14
-74 -33 -152 -76 -356 -126 -559 -135 -22 -1 -23 -5 -23 -89 l0 -87 108 1
c100 1 225 10 282 19 14 3 36 6 50 8 14 3 41 8 60 11 19 4 44 9 55 11 11 2 20
4 20 5 0 1 11 3 25 6 14 2 79 20 145 40 227 67 471 185 668 324 88 62 347 307
347 328 0 6 6 17 14 24 22 22 99 148 128 208 54 113 78 186 113 352 21 96 20
377 0 478 -3 14 -8 40 -11 59 -3 18 -8 43 -11 55 -2 11 -7 32 -10 46 -2 14 -8
34 -13 45 -5 11 -14 38 -20 60 -16 53 -111 245 -122 245 -4 0 -8 7 -8 15 0 8
-4 15 -9 15 -5 0 -13 9 -16 20 -8 26 -181 201 -222 225 -18 11 -33 23 -33 27
0 4 -6 8 -14 8 -8 0 -16 3 -18 8 -8 19 -296 162 -326 162 -6 0 -23 5 -39 12
-15 6 -35 12 -44 14 -8 2 -42 11 -75 19 -63 17 -71 19 -149 35 -46 9 -77 14
-160 25 -116 16 -245 26 -400 30 -66 2 -120 4 -120 5 0 1 -12 3 -27 4 -16 1
-28 -1 -28 -4 0 -3 -26 -4 -57 -3 -70 3 -157 3 -198 0 -16 -2 -38 1 -47 6 -10
4 -18 4 -18 0 0 -4 -26 -7 -57 -6 -32 2 -85 3 -118 2 -33 0 -102 0 -153 -1
-51 0 -95 2 -98 5 -4 3 -17 2 -31 -4 -17 -6 -22 -6 -17 3 4 7 3 8 -5 4 -6 -4
-33 -7 -59 -7 -68 0 -163 0 -270 -1 -51 0 -95 2 -98 5 -4 3 -17 2 -31 -4 -17
-6 -22 -6 -17 3 4 7 3 8 -5 4 -6 -4 -33 -7 -59 -7 -68 0 -163 0 -270 -1 -51 0
-95 2 -98 5 -4 3 -17 2 -31 -4 -17 -6 -22 -6 -17 3 4 7 3 8 -5 4 -15 -10 -174
-12 -188 -3 -6 4 -13 4 -15 1z"/>
<path d="M19687 19664 c-1 -1 -47 -5 -102 -8 -55 -3 -111 -8 -125 -11 -14 -3
-41 -8 -60 -11 -19 -3 -62 -12 -94 -20 -33 -9 -68 -16 -78 -17 -10 -1 -18 -5
-18 -9 0 -4 -3 -7 -7 -6 -12 3 -81 -22 -153 -55 -36 -17 -68 -30 -72 -29 -5 1
-8 -2 -8 -8 0 -5 -5 -10 -10 -10 -6 0 -43 -21 -83 -47 -82 -54 -220 -186 -263
-253 -16 -25 -31 -47 -34 -50 -26 -25 -105 -226 -116 -296 -3 -22 -8 -42 -10
-45 -6 -10 -17 -137 -17 -199 0 -67 11 -198 17 -209 3 -4 7 -18 10 -32 10 -48
15 -65 31 -114 63 -184 189 -368 357 -520 76 -68 82 -73 173 -133 44 -29 86
-57 92 -62 7 -6 14 -10 15 -9 4 3 92 -42 98 -50 3 -3 21 -14 40 -23 19 -10 53
-28 75 -41 71 -42 158 -89 265 -144 58 -29 119 -61 135 -71 45 -26 208 -133
221 -146 6 -6 28 -24 50 -41 39 -31 145 -135 177 -174 92 -114 162 -259 183
-381 18 -104 6 -314 -23 -390 -3 -8 -8 -23 -9 -32 -6 -27 -66 -151 -81 -166
-7 -7 -13 -17 -13 -22 0 -19 -142 -150 -199 -184 -34 -20 -65 -36 -68 -36 -3
0 -19 -7 -36 -14 -124 -57 -344 -73 -532 -40 -16 3 -35 7 -42 8 -7 1 -15 5
-19 8 -3 4 -12 4 -20 1 -8 -3 -20 -1 -27 5 -6 5 -25 12 -40 16 -48 11 -174 73
-240 117 -61 41 -247 220 -247 238 0 5 -6 16 -13 23 -46 49 -158 267 -182 358
-1 3 -4 12 -8 20 -10 26 -36 108 -42 132 -2 13 -15 74 -27 136 l-23 114 -30
-5 c-16 -3 -37 -7 -45 -9 -8 -3 -36 -8 -61 -12 -69 -12 -72 -15 -71 -92 0 -38
1 -71 2 -74 1 -3 3 -27 5 -55 2 -57 10 -123 30 -275 2 -14 6 -35 8 -46 3 -12
8 -37 11 -55 5 -30 10 -55 32 -159 2 -14 7 -33 10 -42 3 -9 7 -26 9 -37 10
-43 14 -58 44 -141 45 -130 54 -150 68 -150 7 0 13 -4 13 -8 0 -8 218 -122
232 -122 4 0 19 -5 35 -12 15 -6 33 -12 38 -14 64 -20 190 -52 230 -59 17 -2
41 -7 55 -10 135 -27 553 -27 692 1 13 2 37 7 53 9 54 10 189 46 245 66 30 11
65 23 78 26 12 3 22 10 22 16 0 6 3 8 6 4 5 -5 180 79 194 93 3 3 32 23 64 45
82 55 212 186 267 270 43 64 71 112 75 125 1 7 14 39 34 85 37 83 74 287 72
390 -1 37 -13 195 -16 220 -11 73 -26 137 -37 156 -6 11 -8 23 -6 26 5 4 -11
43 -64 160 -21 46 -95 157 -136 205 -102 115 -188 189 -348 294 -71 48 -142
95 -157 105 -15 11 -31 19 -36 19 -5 0 -15 7 -22 15 -7 8 -16 13 -20 10 -5 -3
-11 -1 -14 4 -6 10 -111 71 -123 72 -5 0 -17 8 -28 18 -11 10 -65 44 -120 77
-55 32 -118 71 -139 86 -21 16 -45 28 -52 28 -7 0 -14 3 -16 8 -1 4 -51 36
-110 72 -60 36 -108 68 -108 72 0 5 -5 8 -11 8 -9 0 -81 53 -116 87 -7 6 -23
20 -36 30 -90 71 -192 239 -221 361 -18 77 -18 226 0 311 12 58 51 169 64 181
3 3 12 18 21 34 84 149 257 261 469 303 90 18 377 -5 423 -34 7 -4 20 -9 30
-10 67 -11 221 -114 290 -195 43 -51 105 -148 110 -172 1 -6 5 -13 8 -16 6 -5
38 -84 45 -110 2 -8 15 -55 29 -105 22 -78 30 -112 39 -172 1 -7 5 -15 9 -19
5 -5 92 -8 145 -5 11 1 12 37 7 189 -10 291 -17 389 -36 532 -19 143 -19 144
-87 175 -48 23 -203 78 -252 91 -56 14 -152 34 -190 38 -25 3 -55 8 -68 10
-41 9 -329 25 -335 20z"/>
<path d="M15727 19644 c-1 -1 -33 -5 -72 -9 -93 -9 -135 -14 -165 -20 -14 -2
-38 -7 -55 -10 -68 -11 -160 -33 -240 -56 -175 -52 -386 -142 -515 -222 -36
-22 -77 -46 -92 -54 -16 -8 -28 -19 -28 -24 0 -5 -7 -9 -15 -9 -8 0 -23 -8
-33 -17 -9 -10 -30 -26 -46 -37 -46 -30 -162 -133 -242 -216 -56 -59 -73 -77
-126 -142 -18 -23 -37 -46 -43 -53 -5 -6 -16 -20 -22 -30 -7 -11 -38 -60 -70
-110 -56 -90 -91 -155 -133 -250 -12 -27 -28 -63 -36 -80 -33 -74 -89 -267
-109 -373 -3 -15 -7 -38 -10 -52 -53 -255 -47 -665 15 -955 6 -27 12 -61 14
-75 2 -14 5 -26 6 -27 1 -2 3 -6 4 -10 38 -160 138 -400 228 -546 26 -43 48
-83 48 -88 0 -5 3 -9 8 -9 4 0 18 -17 32 -38 14 -20 29 -42 35 -48 5 -6 26
-30 45 -54 173 -211 454 -413 725 -520 93 -37 247 -86 302 -96 21 -4 42 -9 48
-12 5 -3 16 -7 25 -7 13 -2 118 -18 190 -31 97 -17 453 -23 585 -10 39 4 90 9
114 11 38 4 75 10 181 29 131 23 379 98 452 137 10 5 25 9 33 9 8 0 15 5 15
12 0 6 3 9 6 6 7 -8 192 88 271 139 234 153 423 331 553 522 25 36 47 68 50
71 11 11 67 108 95 165 16 33 34 63 40 67 5 4 6 8 2 8 -5 0 0 16 12 36 12 19
21 39 21 43 0 5 8 26 17 47 9 22 18 48 20 58 2 11 7 24 12 30 7 9 40 122 45
151 1 6 5 16 9 23 5 6 6 12 4 12 -2 0 2 26 10 58 7 31 16 71 18 87 6 38 14 93
20 125 27 163 22 550 -10 740 -3 19 -7 46 -9 60 -2 14 -6 36 -11 49 -4 12 -8
33 -10 44 -1 12 -8 42 -14 67 -13 50 -12 46 -31 110 -17 57 -16 52 -23 73 -4
9 -10 25 -14 35 -3 9 -7 20 -8 25 -2 4 -4 9 -5 12 -1 3 -3 8 -4 13 -1 4 -10
22 -19 39 -10 18 -18 36 -18 40 0 10 -53 115 -81 163 -151 255 -337 456 -573
616 -51 35 -241 144 -251 144 -1 0 -31 13 -66 29 -113 52 -361 128 -483 147
-16 3 -39 6 -50 8 -22 4 -95 13 -170 22 -45 5 -403 12 -408 8z m122 -209 c95
-4 136 -10 281 -41 26 -5 126 -39 170 -57 14 -6 27 -11 30 -12 19 -4 145 -73
190 -103 130 -86 268 -214 360 -332 19 -25 38 -46 42 -48 4 -2 8 -8 8 -13 0
-5 23 -42 50 -83 28 -41 50 -81 50 -89 0 -9 4 -17 9 -19 18 -7 151 -313 151
-348 0 -9 4 -20 9 -25 7 -9 23 -59 36 -120 3 -11 11 -47 19 -80 8 -33 17 -72
20 -87 4 -16 8 -38 11 -50 2 -13 7 -41 10 -63 14 -116 24 -192 24 -205 1 -8 3
-40 6 -70 5 -63 6 -383 1 -450 -5 -65 -16 -161 -21 -190 -8 -41 -16 -93 -20
-122 -7 -56 -70 -283 -95 -343 -4 -11 -14 -36 -21 -55 -24 -67 -109 -233 -156
-304 -131 -196 -302 -352 -490 -445 -50 -25 -163 -72 -183 -76 -3 -1 -25 -7
-50 -14 -50 -15 -73 -20 -110 -26 -14 -2 -35 -6 -46 -9 -75 -16 -328 -23 -416
-11 -89 12 -105 14 -138 20 -67 11 -186 46 -262 76 -70 28 -102 44 -209 103
-92 51 -287 221 -363 316 -167 210 -289 459 -368 750 -11 41 -22 86 -24 100
-3 14 -8 34 -11 45 -4 11 -7 27 -8 35 -4 29 -15 105 -20 129 -2 13 -7 49 -10
80 -3 31 -7 67 -10 81 -5 26 -17 265 -17 345 0 82 14 273 27 355 3 19 8 49 10
65 9 64 18 103 45 211 95 374 283 687 535 889 28 22 52 43 55 46 9 10 126 78
186 108 65 32 194 83 194 76 0 -2 16 3 35 11 19 8 35 12 35 9 0 -2 10 -1 23 4
42 16 158 32 259 35 37 1 71 5 74 9 4 4 11 4 17 0 5 -3 40 -7 76 -8z"/>
<path d="M33123 19598 l-82 -30 -30 -72 c-16 -39 -46 -116 -66 -171 -21 -55
-46 -119 -56 -142 -11 -23 -19 -45 -19 -48 0 -3 -11 -31 -25 -61 -14 -30 -25
-57 -25 -60 0 -3 -7 -20 -15 -37 -8 -18 -23 -54 -34 -82 -11 -27 -27 -68 -37
-90 -10 -22 -18 -42 -19 -45 -1 -3 -9 -22 -18 -44 -9 -21 -17 -41 -17 -43 0
-3 -6 -19 -14 -36 -8 -18 -36 -84 -62 -147 -84 -205 -125 -305 -133 -325 -5
-11 -19 -45 -31 -75 -12 -30 -31 -74 -41 -97 -11 -23 -19 -49 -19 -57 0 -9 -5
-16 -12 -16 -6 0 -9 -3 -6 -6 3 -3 -10 -42 -29 -87 -19 -45 -39 -93 -45 -107
-5 -14 -16 -38 -23 -55 -40 -94 -70 -171 -67 -177 1 -5 -2 -8 -8 -8 -5 0 -10
-8 -10 -18 0 -10 -7 -28 -16 -40 -8 -12 -13 -22 -10 -22 3 0 -5 -24 -18 -52
-23 -54 -38 -89 -41 -98 -1 -3 -7 -18 -13 -33 -7 -16 -21 -52 -33 -80 -12 -29
-25 -61 -30 -72 -8 -18 -30 -73 -34 -85 -3 -9 -36 -83 -51 -117 -8 -17 -14
-34 -14 -38 0 -3 -9 -25 -19 -49 -11 -23 -21 -48 -23 -56 -2 -8 -6 -18 -11
-21 -4 -3 -9 -15 -11 -26 -3 -12 -12 -35 -20 -52 -9 -16 -16 -37 -16 -46 0 -8
-5 -15 -12 -15 -6 0 -9 -3 -5 -6 3 -3 -5 -32 -19 -63 -14 -31 -49 -114 -77
-186 -28 -71 -56 -133 -60 -136 -5 -3 -8 -9 -7 -13 2 -6 -34 -97 -97 -246 -71
-167 -135 -254 -209 -287 -45 -19 -37 -17 -94 -27 -25 -5 -54 -10 -65 -13 -11
-2 -40 -6 -64 -9 -25 -2 -47 -7 -50 -9 -8 -9 -6 -147 2 -152 6 -4 832 -6 1249
-3 l56 0 -1 72 c-2 79 6 72 -92 84 -71 8 -90 11 -90 13 0 1 -25 4 -55 6 -30 3
-71 7 -90 11 -19 3 -51 8 -70 10 -92 12 -129 88 -101 204 7 25 13 52 15 60 2
8 20 62 40 120 20 58 38 110 40 115 2 6 8 24 15 40 6 17 19 50 27 75 9 25 20
54 24 65 4 11 15 38 23 60 9 22 32 85 52 140 20 55 43 116 50 135 39 99 128
339 136 367 7 22 18 34 32 37 32 7 97 17 132 22 17 2 50 6 75 9 103 13 128 16
185 22 88 8 467 8 560 -1 44 -4 87 -8 95 -8 15 0 107 -13 170 -24 19 -3 49 -8
67 -11 18 -3 36 -10 41 -17 5 -6 28 -65 51 -131 24 -66 45 -127 49 -135 3 -8
6 -17 7 -20 5 -14 18 -47 25 -65 24 -55 257 -706 291 -810 22 -66 39 -132 39
-146 0 -40 -54 -81 -125 -95 -11 -2 -31 -6 -45 -9 -14 -3 -41 -8 -60 -11 -19
-2 -56 -9 -83 -14 -26 -6 -51 -9 -55 -9 -4 1 -9 1 -12 -1 -6 -2 -41 -9 -72
-13 -21 -4 -23 -10 -25 -75 l-3 -72 53 0 c898 -5 1497 -3 1500 5 3 9 2 89 -2
125 0 9 -9 16 -18 17 -10 0 -40 4 -67 7 -26 4 -62 9 -80 10 -97 10 -178 36
-211 70 -32 32 -86 111 -108 158 -33 73 -109 259 -113 278 0 3 -5 16 -11 30
-6 14 -19 45 -28 70 -9 25 -21 54 -25 65 -5 11 -23 58 -41 105 -17 47 -49 130
-70 185 -21 55 -39 106 -39 113 0 6 -4 12 -8 12 -5 0 -9 6 -10 13 -1 13 -26
85 -47 132 -7 17 -23 57 -35 90 -12 33 -28 74 -35 90 -7 17 -16 41 -20 54 -4
13 -14 40 -23 60 -9 20 -17 39 -18 44 -1 4 -3 9 -4 12 -1 3 -3 8 -5 13 -1 4
-7 21 -14 37 -18 46 -113 291 -181 470 -33 88 -64 169 -69 180 -5 11 -23 58
-41 105 -18 47 -43 112 -57 145 -14 33 -26 67 -28 75 -6 22 -113 299 -136 347
-10 24 -19 47 -19 52 0 7 -81 221 -120 316 -4 11 -27 70 -50 130 -58 152 -107
279 -135 350 -13 33 -40 104 -61 158 -21 53 -40 97 -43 96 -3 0 -43 -14 -88
-31z m-119 -890 c16 -40 37 -92 47 -115 10 -24 19 -46 19 -51 0 -5 18 -53 39
-108 21 -54 53 -137 71 -184 30 -80 40 -105 61 -155 5 -11 33 -85 63 -165 30
-80 75 -199 101 -265 26 -66 51 -133 57 -150 5 -16 14 -39 19 -50 11 -26 26
-68 28 -78 0 -4 7 -20 15 -35 7 -15 17 -37 20 -49 7 -20 4 -22 -26 -18 -155
21 -266 26 -523 25 -126 -1 -248 -2 -270 -4 -22 -2 -89 -6 -150 -10 -60 -4
-127 -9 -147 -11 -21 -2 -38 -2 -38 1 0 2 14 42 32 87 18 45 33 84 33 87 1 3
9 22 18 44 9 21 17 41 17 43 0 3 6 19 14 36 8 18 31 75 51 127 19 52 40 104
45 115 21 46 60 152 60 163 0 7 4 12 8 12 5 0 9 6 9 13 0 6 44 122 97 257 53
135 120 305 149 377 29 73 52 133 53 133 0 0 13 -33 28 -72z"/>
<path d="M20919 19548 c-4 -14 -4 -138 0 -139 8 -2 53 -6 164 -14 153 -11 177
-16 216 -46 42 -33 50 -57 69 -199 15 -117 8 -3385 -8 -3385 -2 0 -5 -14 -14
-54 -3 -13 -17 -38 -31 -57 -38 -50 -102 -66 -314 -79 -41 -2 -76 -7 -80 -10
-10 -11 -7 -134 4 -138 5 -2 347 -3 760 -3 l750 1 0 73 c1 70 0 72 -25 73 -14
1 -47 3 -75 5 -27 2 -85 6 -127 9 -171 11 -208 55 -227 275 -10 114 -8 3252 2
3295 4 17 10 46 14 65 3 19 7 38 8 43 2 4 3 11 4 17 0 5 15 25 31 44 43 48 89
61 250 72 72 5 103 8 141 13 3 1 5 33 5 71 l-1 70 -757 0 c-417 0 -758 -1
-759 -2z"/>
<path d="M22786 19533 c-3 -10 -8 -45 -12 -78 -11 -98 -12 -107 -19 -170 -4
-33 -9 -73 -10 -90 -11 -94 -19 -244 -19 -345 0 -106 10 -280 16 -286 4 -3 58
-6 104 -5 25 1 41 6 41 14 1 12 11 72 19 111 2 11 7 36 10 55 6 37 6 37 28
131 47 201 95 304 169 365 18 15 40 33 50 41 9 7 17 11 17 9 0 -3 10 0 23 7
12 7 24 13 27 13 3 1 17 7 31 12 14 6 41 14 60 17 19 3 45 8 59 11 86 19 228
27 540 29 157 2 290 1 296 -1 10 -4 12 -3417 1 -3494 -13 -93 -21 -127 -38
-166 -26 -57 -77 -94 -146 -107 -88 -17 -138 -22 -277 -31 -44 -3 -82 -9 -86
-14 -5 -8 -5 -59 -1 -121 1 -13 103 -15 864 -15 l863 0 -1 67 c0 37 -3 69 -5
71 -6 6 -93 15 -215 22 -49 3 -108 8 -130 11 -52 7 -135 34 -135 43 0 4 -8 16
-19 27 -18 20 -38 70 -47 120 -3 15 -7 31 -10 35 -3 5 -7 86 -10 181 -2 95 -7
178 -9 185 -2 7 0 15 5 18 5 3 7 12 4 20 -9 23 -10 155 -1 155 5 0 5 5 2 11
-10 16 -11 149 -1 149 5 0 3 6 -3 13 -6 8 -9 16 -6 19 5 4 5 23 5 206 0 56 0
110 0 120 2 160 2 229 1 237 0 9 -1 186 -1 240 2 135 2 232 1 240 -1 10 -1
209 0 235 0 8 -1 41 -3 73 -2 31 1 57 5 57 5 0 5 5 2 11 -10 15 -11 149 -2
149 5 0 5 5 2 11 -10 15 -11 149 -2 149 5 0 5 5 2 11 -10 16 -11 149 -1 149 5
0 3 6 -3 13 -6 8 -9 16 -6 18 2 3 4 63 4 134 1 168 1 330 2 353 0 9 0 100 0
201 0 101 2 187 4 191 4 6 592 3 675 -4 63 -5 160 -17 179 -22 247 -57 338
-153 406 -424 2 -8 4 -15 5 -15 1 0 3 -9 5 -20 1 -11 8 -42 15 -70 15 -62 34
-158 44 -223 4 -25 25 -34 86 -33 34 0 64 1 65 3 5 5 18 191 15 218 -1 14 -1
30 -1 35 5 64 -4 347 -13 401 -3 16 -8 61 -12 99 -3 39 -8 77 -9 85 -3 21 -19
113 -21 123 -1 4 -2 12 -3 17 -1 7 -587 10 -1735 10 -1643 0 -1735 -1 -1740
-17z"/>
<path d="M26564 19490 c1 -36 -2 -60 -8 -60 -23 0 17 -25 42 -26 49 -3 206
-15 250 -19 118 -13 157 -77 169 -280 10 -149 9 -3138 0 -3244 -19 -215 -58
-259 -247 -276 -30 -3 -86 -7 -123 -10 -38 -3 -72 -7 -76 -10 -5 -2 -8 -26 -7
-52 1 -27 -1 -57 -5 -68 -7 -20 -2 -20 757 -20 506 0 764 3 765 10 4 42 3 127
-1 130 -5 3 -110 13 -225 21 -161 11 -196 43 -221 204 -12 74 -14 377 -14
1725 1 1387 2 1592 14 1655 2 14 7 43 11 65 20 114 77 147 285 161 115 7 140
10 147 17 3 4 6 35 7 69 l1 63 -762 3 -762 2 3 -60z"/>
<path d="M28258 19538 c-3 -7 -3 -26 -2 -43 1 -16 3 -44 3 -60 1 -25 5 -31 24
-32 48 -1 181 -14 189 -19 4 -3 17 -7 28 -9 20 -4 74 -38 95 -60 36 -37 121
-175 109 -175 -4 0 -2 -6 4 -12 5 -7 31 -65 56 -128 26 -63 52 -126 58 -140 6
-14 14 -34 18 -45 18 -46 65 -165 161 -405 55 -140 102 -259 103 -265 1 -5 10
-24 19 -42 9 -18 17 -40 17 -51 0 -10 4 -22 8 -27 5 -6 18 -35 30 -65 12 -30
27 -68 33 -85 7 -16 13 -32 14 -35 2 -6 19 -50 38 -95 6 -16 12 -32 13 -35 0
-3 6 -18 14 -35 7 -16 21 -49 31 -72 11 -24 19 -48 19 -54 0 -7 9 -30 20 -53
11 -23 67 -162 125 -311 59 -148 139 -351 178 -450 39 -99 72 -182 73 -185 0
-3 5 -16 11 -30 6 -14 32 -79 58 -145 25 -66 55 -140 65 -165 11 -25 31 -76
46 -115 14 -38 32 -83 39 -100 7 -16 63 -158 125 -315 62 -157 121 -304 131
-327 18 -42 19 -42 46 -28 16 8 32 15 36 15 15 0 119 51 133 65 8 7 15 22 17
32 4 19 7 28 40 113 12 30 22 60 23 65 1 6 10 28 20 50 10 22 18 42 19 45 1
10 61 159 91 225 8 20 17 45 19 57 3 12 8 24 12 27 5 3 9 13 11 21 2 8 10 29
17 45 8 17 35 82 60 145 25 63 54 131 63 150 9 19 17 40 18 46 1 6 15 42 31
80 28 65 44 102 48 114 1 3 7 17 13 32 81 195 186 451 202 493 4 11 7 22 7 25
-1 3 6 19 15 35 9 17 23 46 31 65 8 19 24 56 36 82 12 26 21 50 21 53 0 6 30
76 56 129 8 16 14 32 14 36 0 4 10 29 22 56 12 27 23 51 23 54 2 6 8 21 60
140 20 47 63 148 95 225 32 77 83 193 114 258 31 65 56 120 56 122 0 3 14 34
30 70 17 36 30 68 30 71 0 3 9 24 19 47 10 23 35 80 54 127 19 47 46 110 59
140 14 30 31 71 38 90 7 19 17 40 21 45 4 6 27 48 51 95 48 96 58 110 108 158
46 44 139 86 215 98 37 5 70 12 70 14 0 1 11 3 23 4 13 2 27 8 31 14 7 12 6
105 -2 126 -3 8 -174 11 -663 10 -363 -1 -662 -2 -666 -3 -5 0 -8 -32 -8 -71
0 -68 1 -70 25 -72 14 -1 37 -2 53 -3 15 -2 45 -6 67 -9 22 -4 60 -9 85 -11
148 -15 220 -40 264 -92 41 -49 36 -144 -15 -275 -10 -27 -16 -48 -13 -48 4 0
2 -6 -3 -12 -6 -7 -18 -38 -28 -68 -10 -30 -22 -61 -28 -67 -5 -7 -7 -13 -3
-13 3 0 -3 -24 -15 -52 -11 -29 -22 -60 -24 -68 -2 -8 -13 -40 -25 -70 -12
-30 -23 -62 -25 -70 -2 -8 -24 -68 -49 -133 -26 -66 -46 -125 -46 -133 0 -8
-4 -14 -10 -14 -5 0 -10 -6 -10 -14 0 -12 -85 -246 -110 -301 -5 -11 -20 -49
-33 -85 -61 -162 -140 -368 -152 -395 -7 -16 -21 -50 -30 -75 -10 -25 -24 -59
-31 -77 -8 -17 -14 -38 -14 -47 0 -9 -4 -16 -10 -16 -5 0 -9 -3 -8 -7 2 -7
-58 -170 -88 -238 -7 -16 -38 -95 -69 -175 -30 -80 -60 -154 -65 -165 -5 -11
-34 -83 -63 -160 -30 -77 -58 -149 -62 -160 -5 -11 -9 -22 -10 -25 -1 -3 -7
-17 -13 -32 -7 -16 -17 -40 -23 -55 l-11 -28 -23 55 c-13 30 -24 63 -25 73 0
9 -5 17 -12 17 -6 0 -8 3 -5 6 3 4 1 16 -5 28 -7 11 -12 23 -13 26 0 3 -14 41
-32 85 -17 44 -54 141 -83 215 -29 74 -60 153 -70 175 -10 22 -29 72 -43 110
-14 39 -53 140 -87 225 -98 247 -104 265 -102 273 1 4 -2 7 -6 7 -5 0 -9 6 -9
13 0 12 -80 217 -114 294 -10 24 -19 49 -19 57 0 8 -4 17 -9 20 -5 3 -12 18
-16 33 -3 16 -13 42 -20 58 -8 17 -41 102 -75 190 -33 88 -64 169 -69 180 -23
55 -32 76 -61 155 -18 47 -41 104 -51 127 -11 24 -19 47 -19 51 0 5 -7 23 -16
41 -9 17 -17 37 -18 44 -2 7 -9 26 -15 42 -7 17 -19 47 -27 68 -7 20 -20 52
-28 70 -37 82 -88 247 -90 291 -2 38 2 56 18 74 25 30 109 69 162 76 22 3 54
8 72 11 19 4 55 8 80 10 26 2 47 4 47 5 0 1 18 3 40 4 22 2 43 4 48 5 4 0 7
33 7 71 l0 70 -774 0 c-610 0 -775 -3 -778 -12z"/>
<path d="M25249 14966 c-2 -2 -33 -7 -69 -11 -36 -4 -83 -14 -105 -22 -22 -7
-45 -15 -50 -16 -15 -3 -108 -58 -121 -71 -55 -55 -93 -125 -111 -206 -9 -42
-2 -147 13 -193 17 -53 66 -136 101 -172 34 -36 120 -106 144 -119 303 -159
366 -204 417 -297 59 -107 43 -264 -37 -345 -128 -130 -376 -110 -512 40 -30
34 -90 147 -104 199 -2 4 -4 10 -5 15 -1 4 -3 12 -4 17 -16 86 -16 87 -55 81
-20 -3 -38 -5 -40 -6 -4 0 6 -165 14 -210 3 -19 17 -74 32 -121 24 -83 27 -88
68 -108 37 -18 139 -57 155 -59 3 0 21 -3 40 -7 47 -9 184 -10 240 -2 103 15
121 21 223 67 75 35 178 147 187 202 0 4 7 25 14 45 13 38 14 170 2 226 -12
52 -48 117 -94 168 -43 48 -180 149 -202 149 -5 0 -10 5 -10 10 0 6 -4 10 -10
10 -13 0 -114 62 -118 72 -2 4 -8 8 -13 8 -37 0 -271 191 -255 208 3 3 1 11
-6 19 -6 8 -11 46 -12 86 0 77 21 135 67 185 26 29 84 60 120 64 15 2 29 7 33
10 3 4 11 5 17 3 7 -3 35 -6 63 -9 130 -12 225 -104 261 -253 2 -7 5 -21 7
-30 3 -10 5 -21 5 -24 1 -3 16 -6 34 -7 l33 -1 -2 72 c-4 137 -15 241 -25 253
-23 28 -144 65 -221 68 -21 0 -38 4 -38 8 0 4 -11 3 -24 -2 -14 -5 -27 -5 -33
1 -5 5 -11 7 -14 5z"/>
<path d="M19664 14929 c-37 -55 -85 -58 -216 -15 -122 40 -150 40 -205 3 -47
-31 -113 -108 -113 -130 0 -6 17 5 38 25 58 57 96 63 177 29 11 -5 34 -14 50
-19 17 -6 39 -13 50 -18 20 -7 38 -11 86 -18 59 -9 150 64 181 146 12 30 -27
28 -48 -3z"/>
<path d="M12857 14944 c-1 -1 -30 -5 -64 -9 -34 -3 -85 -13 -115 -21 -29 -8
-64 -17 -78 -20 -52 -11 -210 -95 -272 -146 -119 -97 -206 -232 -244 -378 -23
-88 -25 -108 -26 -235 -2 -133 10 -225 40 -305 3 -8 6 -17 6 -20 1 -3 10 -26
21 -50 125 -283 418 -436 815 -425 74 2 149 6 165 9 17 3 46 8 65 11 19 3 78
19 132 36 82 26 98 35 107 57 20 51 53 157 57 182 2 14 7 40 10 59 3 19 8 53
10 75 3 23 7 47 9 54 2 6 -2 12 -10 12 -8 0 -18 0 -22 1 -3 0 -14 -19 -23 -43
-70 -179 -139 -270 -245 -322 -87 -43 -124 -50 -265 -50 -95 -1 -128 4 -189
23 -202 66 -336 225 -400 476 -28 111 -36 325 -15 436 17 89 17 91 27 107 5 6
6 12 3 12 -2 0 13 35 34 78 98 201 284 311 535 316 231 6 380 -94 439 -294 9
-30 16 -56 16 -57 -2 -26 3 -30 28 -25 15 3 30 9 33 15 10 14 0 172 -18 277
-3 19 -5 42 -5 52 1 31 -173 86 -328 104 -51 6 -228 12 -233 8z"/>
<path d="M32342 14639 c-160 -40 -245 -129 -258 -269 -10 -112 41 -227 132
-300 24 -19 90 -59 146 -88 57 -29 121 -64 143 -77 110 -65 171 -162 166 -267
-4 -99 -40 -164 -111 -202 -37 -20 -58 -23 -120 -22 -169 4 -288 114 -332 307
l-13 55 -33 -8 c-35 -9 -34 2 -17 -148 7 -55 31 -142 48 -176 45 -86 306 -126
477 -72 61 19 124 55 167 95 40 37 83 113 90 158 7 49 3 144 -7 171 -6 16 -12
31 -12 34 -1 11 -39 76 -55 95 -35 39 -109 93 -203 145 -52 30 -96 57 -98 62
-2 4 -11 8 -20 8 -9 0 -31 13 -49 28 -17 15 -43 36 -58 47 -43 34 -76 99 -80
157 -8 143 104 239 254 216 100 -15 166 -82 194 -196 10 -39 16 -47 38 -50 25
-3 26 -3 23 60 -10 195 -13 202 -98 229 -59 18 -63 19 -156 23 -61 2 -107 -2
-158 -15z"/>
<path d="M14217 14644 c-2 -3 -28 -6 -58 -9 -315 -24 -567 -267 -596 -575 -9
-97 -4 -178 17 -260 6 -25 12 -50 13 -57 9 -40 86 -168 126 -210 43 -45 148
-122 176 -128 5 -1 22 -7 36 -13 31 -13 90 -29 139 -38 42 -7 215 -7 250 1 14
3 38 7 53 10 44 8 152 52 202 81 64 37 157 129 199 196 20 31 36 59 36 62 0 3
5 17 12 33 6 15 12 33 13 38 2 6 10 36 18 67 16 60 17 250 2 318 -30 140 -107
266 -220 358 -26 22 -167 89 -200 96 -59 12 -81 16 -125 22 -25 3 -55 7 -67 9
-12 2 -23 1 -26 -1z m103 -79 c38 -8 118 -43 137 -60 6 -5 27 -23 47 -38 63
-51 151 -208 161 -288 2 -16 6 -32 8 -36 17 -27 25 -240 12 -315 -26 -148 -86
-257 -189 -342 -73 -60 -239 -91 -356 -65 -175 37 -317 199 -355 404 -27 147
-23 311 10 404 8 23 12 41 9 41 -15 0 79 150 120 191 53 53 142 101 196 106
19 2 36 6 38 7 5 6 125 -1 162 -9z"/>
<path d="M27559 14646 c-2 -2 -42 -6 -89 -10 -100 -7 -111 -9 -127 -19 -7 -5
-13 -6 -13 -3 0 12 -165 -55 -214 -86 -51 -33 -99 -71 -120 -96 -6 -7 -20 -23
-31 -36 -78 -88 -127 -242 -128 -401 -1 -114 6 -163 35 -255 90 -281 390 -426
798 -386 159 15 360 78 360 112 0 8 -5 12 -10 9 -27 -17 -35 15 -34 124 1 60
5 114 9 120 3 6 23 11 45 11 37 0 55 16 42 37 -5 7 -90 11 -242 11 l-236 0 -2
-24 c-2 -23 1 -24 63 -24 112 0 128 -24 127 -180 0 -138 2 -130 -34 -137 -18
-4 -36 -6 -40 -5 -5 1 -8 -1 -8 -6 0 -9 -190 -8 -250 2 -24 4 -60 14 -80 22
-19 8 -37 15 -40 16 -3 0 -23 12 -45 26 -162 101 -254 308 -249 563 2 124 23
220 67 303 31 61 115 156 136 156 6 0 11 3 11 8 0 8 91 52 119 57 9 2 16 4 16
5 0 11 189 18 251 8 56 -8 142 -58 178 -101 31 -39 67 -100 66 -112 -2 -14 13
-76 20 -80 11 -7 50 24 45 38 -2 6 -6 46 -9 87 -6 77 -20 157 -28 166 -23 23
-173 60 -277 69 -35 3 -67 8 -71 10 -4 2 -9 3 -11 1z"/>
<path d="M31219 14645 c-3 -2 -27 -7 -54 -10 -103 -14 -278 -88 -333 -142 -7
-7 -21 -18 -30 -25 -31 -23 -107 -122 -134 -173 -22 -42 -56 -140 -62 -179 -1
-6 -4 -15 -7 -21 -5 -9 -4 -230 1 -230 1 0 4 -16 7 -35 2 -19 11 -53 20 -75 8
-22 15 -46 15 -52 1 -7 6 -13 11 -13 6 0 8 -3 4 -6 -11 -11 57 -109 118 -169
73 -73 206 -143 282 -147 5 0 19 -5 32 -10 28 -10 223 -13 261 -3 14 3 38 8
54 10 16 3 45 10 65 17 20 7 38 13 41 13 3 1 30 14 60 29 215 110 334 318 333
576 -1 109 -11 172 -39 245 -14 39 -28 78 -31 88 -3 9 -9 17 -13 17 -5 0 -12
10 -16 22 -12 40 -136 151 -209 189 -110 57 -156 70 -272 74 -46 2 -87 6 -91
9 -5 3 -11 4 -13 1z m121 -80 c5 -3 18 -8 28 -10 67 -13 165 -85 223 -165 29
-39 72 -130 84 -175 12 -45 12 -45 15 -47 1 -2 3 -12 4 -23 2 -11 6 -45 11
-75 8 -58 9 -188 0 -230 -2 -14 -7 -38 -10 -55 -11 -53 -63 -185 -74 -185 -4
0 -12 -14 -20 -31 -7 -16 -15 -28 -17 -26 -2 2 -25 -16 -50 -40 -26 -23 -50
-40 -55 -37 -5 3 -9 1 -9 -5 0 -18 -104 -45 -186 -47 -136 -5 -241 36 -335
130 -75 74 -139 216 -155 341 -6 45 -6 214 0 260 6 50 35 146 48 163 6 6 7 12
4 12 -4 0 2 13 13 29 12 16 21 34 21 39 0 32 160 158 213 168 4 1 8 2 10 4 1
1 18 4 37 7 19 2 36 6 37 7 6 5 153 -3 163 -9z"/>
<path d="M18119 14633 c-14 -3 -38 -39 -45 -68 -3 -11 -138 -337 -154 -370
-16 -36 -43 -100 -45 -110 -2 -6 -12 -31 -23 -55 -11 -25 -37 -85 -57 -135
-21 -49 -46 -109 -56 -132 -10 -23 -19 -44 -19 -47 0 -3 -11 -29 -23 -58 -13
-29 -34 -79 -47 -110 -12 -32 -27 -58 -32 -58 -5 0 -7 -4 -4 -8 8 -13 -45 -60
-76 -67 -23 -6 -28 -13 -28 -39 l0 -31 197 1 c181 1 198 2 201 18 2 10 0 22
-5 26 -8 9 -81 22 -116 21 -10 0 -22 11 -28 27 -11 29 6 115 42 202 10 25 32
81 48 125 36 95 17 88 249 88 180 0 176 2 202 -72 6 -20 28 -79 47 -131 19
-52 36 -99 38 -105 12 -42 18 -55 26 -55 14 0 11 -36 -4 -48 -7 -6 -28 -13
-47 -16 -56 -7 -80 -17 -80 -32 0 -8 -1 -17 -2 -21 -2 -5 89 -9 202 -10 113
-1 221 -5 240 -10 27 -6 338 -10 383 -4 4 1 7 10 7 21 0 11 -3 20 -7 21 -5 1
-24 2 -43 3 -63 4 -99 37 -106 96 -3 22 -5 497 -4 735 l0 80 63 -68 c35 -36
97 -102 138 -145 157 -166 350 -370 420 -446 250 -267 285 -299 312 -292 l26
6 0 528 c1 290 3 538 6 552 3 14 6 37 7 53 1 15 6 27 10 27 4 0 8 6 8 14 0 15
37 32 47 22 4 -3 12 -1 20 5 9 8 13 8 13 1 0 -6 7 -9 15 -6 8 4 15 17 15 30
l0 23 -197 -2 c-197 -2 -198 -2 -199 -24 -1 -19 4 -22 30 -22 17 0 40 -2 51
-5 11 -2 23 -5 27 -5 8 -1 40 -58 45 -81 6 -28 4 -802 -2 -808 -3 -4 -9 -1
-13 5 -4 6 -59 65 -122 130 -96 99 -248 259 -430 453 -67 71 -226 247 -303
334 -28 32 -38 38 -59 33 l-25 -7 -1 -547 c-1 -302 -3 -564 -6 -583 -8 -54
-39 -73 -106 -67 -70 7 -99 19 -126 48 -17 20 -46 77 -50 99 0 3 -5 16 -11 30
-43 101 -153 392 -153 406 0 7 -4 14 -8 14 -5 0 -9 6 -9 13 0 12 -41 120 -69
184 -8 17 -14 34 -14 37 0 3 -15 45 -34 94 -19 48 -53 135 -76 195 -23 59 -45
106 -48 106 -4 -1 -14 -3 -23 -6z m4 -371 c27 -70 50 -131 51 -137 4 -15 16
-46 31 -80 14 -33 28 -73 31 -92 2 -9 -7 -11 -29 -7 -44 8 -170 8 -244 -1 -70
-9 -75 -3 -48 49 8 15 15 32 15 36 0 5 5 21 12 37 6 15 12 33 14 38 9 33 30
81 39 87 6 4 7 8 2 8 -4 0 -1 14 8 30 9 17 13 30 9 30 -4 0 -2 6 3 13 6 6 18
36 28 65 11 28 21 52 24 52 4 0 28 -57 54 -128z"/>
<path d="M21213 14623 c-11 -10 -39 -65 -63 -123 -24 -58 -51 -123 -60 -145
-10 -22 -28 -65 -40 -95 -12 -30 -28 -68 -35 -85 -55 -127 -115 -276 -115
-285 0 -5 -5 -10 -10 -10 -5 0 -9 -3 -7 -8 2 -6 -14 -49 -70 -182 -27 -66 -31
-75 -73 -163 -47 -102 -69 -117 -165 -117 -68 0 -90 11 -99 46 -8 29 -9 996
-2 1029 3 11 5 25 5 31 1 17 42 31 88 29 43 -1 58 11 43 35 -7 11 -56 14 -230
14 -199 1 -223 -1 -231 -16 -12 -22 5 -32 56 -34 22 -1 45 -2 51 -3 33 -3 36
-57 36 -555 0 -271 -3 -508 -7 -525 -8 -37 -30 -51 -83 -51 -41 0 -66 -17 -54
-36 5 -7 78 -11 217 -10 116 1 221 -3 235 -8 25 -8 373 -16 398 -8 6 2 12 14
12 26 0 13 -6 23 -12 23 -56 3 -116 17 -130 30 -18 16 -17 68 2 103 4 8 8 18
9 23 1 7 2 11 6 25 1 4 5 21 10 37 4 17 11 35 15 40 4 6 13 28 20 50 7 22 15
45 19 50 3 6 6 15 7 21 1 7 8 25 15 40 18 37 40 41 232 39 168 -1 186 -6 190
-53 1 -12 5 -22 9 -22 4 0 8 -6 8 -14 0 -7 9 -35 19 -62 49 -125 63 -163 65
-177 1 -9 10 -24 19 -35 15 -16 15 -20 2 -39 -9 -13 -32 -24 -57 -29 -24 -4
-46 -9 -50 -10 -5 -1 -13 -2 -19 -3 -6 0 -9 -11 -7 -23 l3 -23 229 0 c208 0
229 2 232 17 2 17 -23 46 -35 40 -16 -9 -70 11 -90 32 -13 13 -47 89 -77 168
-30 78 -59 152 -63 163 -26 59 -54 131 -55 140 -1 5 -7 19 -13 30 -6 11 -11
22 -10 25 1 4 -77 212 -103 275 -4 11 -23 58 -40 105 -18 47 -41 104 -51 127
-11 24 -19 47 -19 52 0 19 -40 101 -49 101 -5 0 -18 -8 -28 -17z m-20 -281
c10 -26 26 -64 34 -85 9 -21 16 -44 16 -52 0 -8 4 -15 9 -15 4 0 7 -3 6 -8 -3
-7 17 -60 44 -117 5 -12 10 -27 12 -35 2 -8 8 -28 14 -43 17 -41 15 -48 -13
-41 -34 8 -155 8 -242 -1 -40 -4 -73 -4 -73 -1 0 6 27 80 41 111 5 11 22 58
39 105 17 47 37 99 44 115 8 17 20 49 27 73 7 23 15 42 18 42 3 0 14 -21 24
-48z"/>
<path d="M15220 14621 c0 -7 -4 -10 -9 -6 -21 12 -24 -20 -37 -335 -3 -80 -7
-170 -10 -200 -2 -30 -6 -84 -8 -120 -8 -134 -17 -260 -21 -282 -3 -13 -7 -43
-10 -68 -17 -152 -22 -166 -63 -177 -36 -10 -39 -10 -59 -12 -16 -1 -16 -3 -2
-11 10 -6 15 -20 14 -35 -4 -29 -22 -27 219 -28 158 -1 159 -1 163 21 3 23 -3
28 -49 37 -16 3 -40 7 -55 11 -16 3 -37 14 -48 25 -18 18 -20 32 -19 142 0 67
4 172 7 232 9 146 16 307 18 378 1 32 3 56 5 54 2 -2 46 -87 97 -188 51 -101
98 -193 104 -204 7 -11 14 -27 17 -35 4 -8 25 -51 49 -95 23 -44 73 -138 111
-210 38 -71 73 -136 79 -143 15 -19 53 20 85 88 15 30 29 57 32 60 7 7 122
231 257 502 65 130 120 237 123 237 3 1 6 -25 6 -56 1 -32 4 -110 8 -173 20
-325 25 -480 17 -529 -7 -42 -41 -68 -101 -76 -62 -9 -83 -22 -71 -43 9 -15
34 -17 245 -18 l236 -1 0 23 c0 18 -8 25 -37 33 -21 6 -42 11 -48 11 -20 1
-48 30 -50 52 -2 13 -6 40 -9 62 -7 43 -13 144 -21 351 -7 165 -13 289 -19
365 -3 30 -8 107 -12 170 -4 63 -8 126 -9 140 -2 14 -3 32 -4 42 -1 13 -5 14
-25 5 -16 -8 -37 -40 -64 -99 -23 -49 -40 -89 -39 -91 1 -1 -7 -15 -19 -32
-11 -16 -27 -46 -34 -65 -7 -19 -21 -46 -29 -60 -9 -14 -43 -79 -76 -145 -33
-66 -62 -122 -66 -125 -3 -3 -13 -23 -23 -45 -11 -22 -27 -52 -38 -67 -11 -16
-17 -28 -14 -28 4 0 -4 -17 -17 -37 -13 -21 -30 -53 -38 -70 -8 -18 -16 -33
-19 -33 -3 0 -14 -20 -25 -45 -11 -25 -25 -45 -30 -45 -14 0 -32 31 -155 265
-29 55 -67 127 -85 160 -18 33 -58 110 -90 170 -31 61 -61 114 -66 120 -5 5
-9 17 -9 27 0 10 -4 18 -9 18 -5 0 -14 12 -20 28 -13 33 -64 126 -79 145 -7 8
-10 16 -7 19 3 2 -6 15 -20 28 -14 13 -25 18 -25 11z"/>
<path d="M28119 14608 c-12 -41 -8 -46 34 -46 61 -1 78 -6 90 -28 8 -13 12
-135 13 -384 2 -391 7 -511 24 -556 6 -16 11 -30 10 -32 -2 -5 39 -86 53 -102
41 -52 163 -106 247 -110 95 -5 119 -4 173 2 88 12 115 17 160 34 23 8 47 16
52 18 6 1 33 12 60 25 75 34 79 34 134 -19 48 -45 53 -48 84 -39 17 5 32 9 32
9 4 0 -4 140 -8 146 -3 6 -2 16 3 23 4 8 4 27 0 42 -5 16 -6 29 -2 29 4 0 7
70 7 155 0 85 -4 155 -8 155 -5 0 -5 6 0 13 9 15 11 94 1 130 -3 15 -4 27 0
27 9 0 7 263 -2 278 -4 7 -4 12 1 12 4 0 8 21 7 48 -1 55 9 97 28 115 13 12
67 15 85 4 15 -10 35 17 27 37 -5 14 -32 16 -234 16 l-227 -1 0 -25 c0 -17 4
-24 13 -20 8 3 14 1 14 -5 0 -6 7 -6 18 -1 29 15 76 -4 87 -35 7 -17 10 -207
10 -501 l0 -472 -32 -30 c-42 -40 -124 -80 -192 -96 -62 -15 -187 -12 -247 5
-105 29 -168 116 -191 261 -9 52 -9 801 0 832 4 17 17 30 37 37 18 6 28 6 25
1 -4 -6 3 -7 17 -1 13 4 31 7 41 6 12 -2 17 4 17 21 l0 24 -230 0 c-126 0
-230 -1 -231 -2z"/>
<path d="M16663 14590 c-16 -4 -19 -10 -14 -38 0 -4 20 -7 44 -7 46 2 82 -10
87 -28 8 -36 8 -1042 -1 -1065 -14 -36 -25 -42 -86 -42 -43 0 -51 -3 -48 -17
2 -10 4 -21 4 -24 1 -3 30 -5 66 -5 36 1 65 -2 65 -6 0 -4 10 -4 23 0 12 4 92
7 177 6 92 0 158 3 162 9 16 24 -5 37 -62 37 -100 0 -95 -28 -97 476 -1 239
-5 439 -8 444 -4 6 -3 10 2 10 4 0 7 43 5 95 l-3 94 33 9 c50 13 170 6 228
-13 64 -21 118 -68 142 -123 25 -55 28 -73 29 -148 2 -132 -52 -231 -151 -281
-42 -20 -33 -18 -97 -28 -47 -7 -53 -10 -53 -31 0 -22 4 -24 43 -24 23 0 62 5
87 11 25 6 54 12 65 15 53 10 154 72 205 124 156 159 116 412 -80 502 -50 23
-83 32 -160 45 -37 6 -586 9 -607 3z"/>
<path d="M25838 14592 c-22 -3 -28 -9 -28 -26 0 -21 4 -23 48 -21 60 3 83 -13
91 -62 4 -21 6 -259 6 -529 -1 -572 4 -544 -90 -544 -51 0 -55 -2 -55 -23 l0
-24 433 0 433 0 23 80 c26 92 30 109 34 169 2 24 7 49 10 55 8 13 -11 22 -35
15 -13 -3 -42 -81 -41 -112 0 -10 -51 -85 -66 -97 -25 -19 -73 -41 -106 -48
-59 -13 -191 -15 -257 -4 -37 6 -71 11 -75 11 -30 0 -33 24 -33 277 0 141 4
261 8 267 10 15 260 11 299 -5 31 -12 39 -26 49 -86 6 -32 19 -45 45 -45 13 0
15 22 15 168 l-1 167 -23 1 c-25 1 -29 -4 -36 -46 -3 -14 -5 -25 -6 -25 -1 0
-3 -8 -5 -18 -4 -21 -32 -46 -55 -48 -8 -1 -77 -2 -153 -3 l-137 -2 2 255 3
256 145 -1 c80 0 161 -4 180 -7 40 -8 90 -47 90 -70 0 -9 4 -18 9 -21 4 -3 14
-32 21 -64 11 -54 14 -59 38 -58 25 1 26 3 25 61 -1 33 -2 60 -3 60 0 0 -3 31
-6 69 -2 39 -7 72 -10 75 -5 5 -742 8 -786 3z"/>
<path d="M29525 14589 c-2 -3 -3 -14 -1 -25 2 -15 11 -19 42 -20 21 0 47 -2
57 -2 40 -4 42 -38 41 -563 -1 -277 -4 -511 -6 -520 -8 -37 -30 -49 -83 -49
l-52 0 1 -32 1 -32 223 0 c219 -1 234 1 238 32 3 14 4 13 -55 17 -55 3 -71 22
-71 89 -2 125 -2 363 -1 384 1 22 4 23 64 21 34 -1 71 -6 82 -12 18 -9 50 -45
50 -57 0 -3 10 -18 21 -35 12 -16 37 -59 56 -95 52 -97 79 -144 89 -156 5 -6
6 -14 2 -17 -3 -4 -1 -7 5 -7 6 0 13 -8 16 -18 10 -31 98 -116 141 -137 51
-25 243 -35 256 -14 11 18 -8 39 -37 39 -52 0 -104 37 -154 110 -13 19 -27 37
-30 40 -15 13 -65 103 -156 280 -32 63 -63 118 -67 121 -4 3 16 22 45 41 141
94 198 178 204 299 8 165 -88 275 -269 309 -67 12 -645 21 -652 9z m480 -33
c129 -14 211 -91 230 -216 4 -25 9 -49 12 -54 4 -5 1 -6 -5 -2 -9 5 -9 0 -3
-17 6 -14 8 -27 5 -30 -4 -4 -6 -13 -20 -84 -3 -18 -10 -33 -15 -33 -5 0 -8
-3 -7 -7 7 -20 -58 -84 -109 -109 -47 -22 -74 -28 -153 -32 l-97 -4 1 73 c1
41 -1 86 -5 101 -4 14 -5 29 -1 32 9 9 9 309 -1 329 -4 10 -4 17 2 17 6 0 8 7
5 15 -4 9 0 16 7 16 8 1 29 3 47 5 19 1 36 5 39 8 3 3 9 4 12 2 3 -2 29 -7 56
-10z"/>
<path d="M22279 14394 c-13 -16 0 -24 37 -24 23 0 38 -7 52 -24 18 -23 19 -46
19 -448 1 -482 0 -488 -62 -486 -37 1 -57 -14 -48 -38 3 -8 22 -11 54 -10 28
1 53 -2 55 -6 3 -5 10 -5 16 -2 16 10 208 11 208 1 0 -5 5 -5 10 -2 6 4 54 8
108 10 105 4 117 6 200 31 86 24 153 61 227 123 30 25 109 133 110 151 0 3 8
25 18 50 35 90 40 240 13 360 -12 52 -62 137 -107 182 -76 75 -200 128 -319
134 -25 1 -45 3 -45 4 0 6 -144 4 -163 -2 -15 -5 -21 -4 -17 2 4 7 -2 7 -18 1
-14 -6 -28 -7 -31 -4 -8 9 -137 9 -143 0 -2 -4 -9 -4 -15 -1 -18 11 -149 10
-159 -2z m576 -60 c205 -50 295 -185 298 -444 2 -157 -44 -285 -128 -359 -36
-32 -135 -87 -135 -75 0 4 -6 2 -13 -4 -7 -6 -35 -14 -62 -18 -51 -8 -214 -7
-250 0 -11 3 -23 5 -27 5 -4 1 -7 204 -6 451 l0 450 22 5 c67 15 217 10 301
-11z"/>
<path d="M23450 14397 c0 -4 -4 -5 -10 -2 -5 3 -10 0 -10 -8 0 -16 37 -30 45
-17 8 13 65 -20 73 -41 4 -10 7 -211 7 -446 -1 -321 -4 -434 -13 -450 -11 -19
-21 -23 -62 -23 -48 0 -71 -12 -49 -26 12 -7 707 -9 715 -2 2 3 6 14 9 24 2
11 12 57 22 104 11 47 18 91 17 98 -1 6 -2 17 -3 23 -2 15 -24 6 -27 -12 -22
-113 -46 -151 -113 -182 -39 -18 -66 -21 -181 -21 -74 -1 -143 2 -152 6 -16 7
-18 27 -18 227 0 166 3 220 13 223 6 2 48 3 92 2 177 -4 164 -1 184 -34 10
-17 17 -42 15 -56 -2 -18 2 -24 11 -21 7 3 18 0 24 -6 11 -11 12 -2 12 128 0
170 1 165 -25 165 -18 0 -23 -5 -22 -22 1 -13 -4 -35 -11 -50 -16 -33 -39 -38
-186 -41 l-107 -2 0 218 0 218 128 -5 c151 -6 162 -8 190 -27 30 -22 57 -90
61 -157 1 -9 6 -10 19 -3 15 8 18 21 16 73 -2 74 -11 128 -24 143 -10 12 -49
13 -68 1 -7 -4 -12 -3 -12 2 0 10 -30 9 -48 -2 -6 -4 -12 -4 -12 1 0 4 -16 8
-35 8 -19 0 -35 -4 -35 -9 0 -5 -6 -4 -13 3 -10 8 -17 7 -25 -1 -7 -7 -12 -8
-12 -2 0 7 -134 9 -265 3 -5 0 -34 2 -62 3 -29 2 -53 0 -53 -5z"/>
</g>
</svg>
