<?xml version="1.0" encoding="utf-8"?>
<!-- Generator: Adobe Illustrator 19.0.0, SVG Export Plug-In . SVG Version: 6.00 Build 0)  -->
<svg version="1.0" id="Layer_1" xmlns="http://www.w3.org/2000/svg" xmlns:xlink="http://www.w3.org/1999/xlink" x="0px" y="0px"
	 width="89px" height="89px" viewBox="0 0 89 89" style="enable-background:new 0 0 89 89;" xml:space="preserve">
<style type="text/css">
	.st0{fill:#FFFFFF;}
</style>
<g>
	<path id="XMLID_64_" class="st0" d="M44.9,37.8c5.6,0,10.1-4.5,10.1-10.1c0-5.6-4.5-10.1-10.1-10.1c-5.6,0-10.1,4.5-10.1,10.1
		C34.8,33.3,39.4,37.8,44.9,37.8z"/>
	<path class="st0" d="M62.9,54.9c-0.6-1.6-1.2-3.1-1.8-4.4c-1.2-2.4-2.8-4.4-4.6-6.2c0,0-0.1-0.1-0.1-0.1l0,0
		C55.3,43,54,42,52.6,41.1c-1.8-1.2-3.4-2.1-5.1-2.7c0,0,0,0,0,0l-1.7,1.8L45,40.9l-0.7-0.7l-1.7-1.8c0,0,0,0,0,0
		c-1.7,0.6-3.3,1.5-5.1,2.7c-3.7,2.5-6.4,5.4-8.5,9.5c-0.8,1.6-1.5,3.3-2.1,5.3c-1.9,4.9-3.3,11.4-3.2,19.5h0.6
		c0.1,1.6,1.4,2.9,3,2.9c1.6,0,2.9-1.3,3-2.9h0.7c0-0.6,0-1.2,0-1.8c0.1-7.5,1.8-13.1,3.5-17.1c0.1-0.2,0.2-0.4,0.2-0.5L34,83.5
		c4,3.8,18,3.7,22,0l-0.6-27.8c0,0.1,0.1,0.2,0.1,0.3c1.8,4,3.6,9.7,3.7,17.4c0,0.6,0,1.2,0,1.8H60c0.1,1.6,1.4,2.9,3,2.9
		s2.9-1.3,3-2.9h0.5C66.6,66.7,65,60,62.9,54.9z M45,66.5l-0.1,0.2l-0.1-0.2L42,61.1l2.9-16.2l0-0.2l0,0.2l2.9,16.2L45,66.5z"/>
</g>
<g>
	<path id="XMLID_56_" class="st0" d="M44.5,89C20,89,0,69,0,44.5C0,20,20,0,44.5,0C69,0,89,20,89,44.5C89,69,69,89,44.5,89z M44.5,1
		C20.5,1,1,20.5,1,44.5C1,68.5,20.5,88,44.5,88C68.5,88,88,68.5,88,44.5C88,20.5,68.5,1,44.5,1z"/>
</g>
<g>
	<path id="XMLID_61_" class="st0" d="M27.6,35.7c-0.1-5.1-5.2-7.8-5.2-7.8l-1.1,3.1c0,0-0.1,0-0.1,0c0-0.9,0-3,0-3.6
		c0-0.8-1-1.2-1-1.2h-1.9H18h-1.9c0,0-1,0.3-1,1.2c0,0.6,0,2.6,0,3.6c-0.1,0-0.1,0-0.2,0.1l-1-3c0,0-5,2.7-5.2,7.8
		c-0.6,0.1-0.6,0.5-0.6,0.5s0,1,0,2.3C8.5,38.7,9,39,9.5,39.2c0.2,4.6,3.9,8.4,8.6,8.4c4.6,0,8.4-3.7,8.6-8.3
		c0.5-0.2,1.1-0.5,1.5-0.9c0-1.3,0-2.3,0-2.3S28.2,35.7,27.6,35.7z"/>
	<path id="XMLID_60_" class="st0" d="M22.6,76.4l0-1c-0.1-7.2,1-13.9,3.3-19.9c0.4-1.1,0.8-2.2,1.2-3.2c-0.7-0.7-1.5-1.3-2.4-1.9
		c-1.6-1.1-2.9-1.8-4.4-2.3c0,0,0,0,0,0l-1.5,1.5l-0.6,0.6l-0.6-0.6l-1.5-1.5c0,0,0,0,0,0c-1.5,0.5-2.8,1.3-4.4,2.3
		c-1.9,1.3-3.4,2.7-4.8,4.3c2.5,9.2,8.2,17.1,16,22.2c0-0.2,0-0.4,0-0.6H22.6z"/>
	<path class="st0" d="M82.1,54.7c-1.3-1.6-2.9-3-4.8-4.3c-0.3-0.2-0.6-0.4-0.9-0.6c1.6-2,3.2-4.2,3.4-5.1c0.4-1.4-0.3-2.4-1-2.8
		c0.3-0.9,0.6-1.9,0.6-3c0-4.8-3.9-8.6-8.6-8.6c-4.8,0-8.6,3.9-8.6,8.6c0,1.1,0.2,2.1,0.6,3.1c-0.7,0.5-1.2,1.4-0.8,2.8
		c0.2,0.9,1.8,3,3.4,5.1c-0.3,0.2-0.6,0.4-0.9,0.6c-0.6,0.4-1.1,0.8-1.6,1.2c0.4,0.9,0.8,1.9,1.2,3c2.5,6.2,3.7,13.2,3.7,20.7l0,0.5
		C74.5,70.7,79.7,63.3,82.1,54.7z M68.4,62.2c0-1.2,0.9-2.1,2-2.3V49.8l-0.2-0.2l-1.5-1.5c0,0,0,0,0,0c-0.7,0.2-1.3,0.5-2,0.9
		c-1.7-2.2-3.1-4.1-3.2-4.6c-0.1-0.3-0.1-0.5,0-0.7c1.5,2.4,4.2,4,7.3,4c3.1,0,5.8-1.7,7.3-4.1c0.1,0.2,0.2,0.4,0.1,0.8
		c-0.2,0.6-1.5,2.4-3.2,4.6c-0.6-0.3-1.3-0.6-2-0.9c0,0,0,0,0,0l-1.5,1.5l-0.2,0.2v10.1c1.1,0.2,2,1.2,2,2.3c0,1.3-1.1,2.4-2.4,2.4
		C69.5,64.7,68.4,63.6,68.4,62.2z"/>
</g>
</svg>
