<?xml version="1.0" encoding="utf-8"?>
<!-- Generator: Adobe Illustrator 19.0.0, SVG Export Plug-In . SVG Version: 6.00 Build 0)  -->
<svg version="1.0" id="Layer_1" xmlns="http://www.w3.org/2000/svg" xmlns:xlink="http://www.w3.org/1999/xlink" x="0px" y="0px"
	 width="83px" height="83px" viewBox="0 0 83 83" style="enable-background:new 0 0 83 83;" xml:space="preserve">
<style type="text/css">
	.st0{fill:#FFFFFF;}
</style>
<g id="XMLID_198_">
	<path id="XMLID_199_" class="st0" d="M41.5,83C18.6,83,0,64.4,0,41.5S18.6,0,41.5,0C64.4,0,83,18.6,83,41.5S64.4,83,41.5,83z
		 M41.5,0.9C19.1,0.9,0.9,19.1,0.9,41.5s18.2,40.6,40.6,40.6c22.4,0,40.6-18.2,40.6-40.6S63.9,0.9,41.5,0.9z"/>
</g>
<g id="XMLID_152_">
	<g id="XMLID_195_">
		<line id="XMLID_197_" class="st0" x1="24.6" y1="63.8" x2="30.2" y2="63.8"/>
		<path id="XMLID_196_" class="st0" d="M30.2,64.2h-5.6c-0.2,0-0.4-0.2-0.4-0.4s0.2-0.4,0.4-0.4h5.6c0.2,0,0.4,0.2,0.4,0.4
			S30.4,64.2,30.2,64.2z"/>
	</g>
	<g id="XMLID_192_">
		<line id="XMLID_194_" class="st0" x1="52.8" y1="63.8" x2="58.4" y2="63.8"/>
		<path id="XMLID_193_" class="st0" d="M58.4,64.2h-5.6c-0.2,0-0.4-0.2-0.4-0.4s0.2-0.4,0.4-0.4h5.6c0.2,0,0.4,0.2,0.4,0.4
			S58.6,64.2,58.4,64.2z"/>
	</g>
	<g id="XMLID_153_">
		<g id="XMLID_187_">
			<path id="XMLID_188_" class="st0" d="M45.1,55c0-1.2,0.6-3,3.2-4.6c3.1-1.8,4.5-5.4,5.1-7.7c-1.4,1.5-3.4,2.4-5.6,2.4
				c-1,0-2-0.2-2.9-0.6l-0.1,0.1l-2.3,2.7l-0.8,0.9l-0.8-0.8l0,0l0,0l-2.3-2.7l-0.1-0.1c-0.9,0.4-1.9,0.6-2.9,0.6
				c-2.2,0-4.2-0.9-5.6-2.4c0.6,2.2,2,5.8,5.1,7.7c2.6,1.5,3.2,3.3,3.2,4.6c0.1,1.8-1,3.8-3,5.5c0.1,0,0.2,0.1,0.3,0.1
				c0.3-0.2,0.6-0.3,1-0.3c1,0,1.9,0.8,1.9,1.9v1.5c1,0.3,2.1,0.4,3.2,0.4c1.1,0,2.2-0.2,3.2-0.4v-1.5c0-1,0.8-1.9,1.9-1.9
				c0.4,0,0.7,0.1,1,0.3c0.1-0.1,0.2-0.1,0.3-0.1C46.1,58.8,45.1,56.8,45.1,55z M41.8,58.4c-0.7,0-1.3-0.6-1.3-1.3
				c0-0.7,0.6-1.3,1.3-1.3c0.7,0,1.3,0.6,1.3,1.3C43.1,57.8,42.5,58.4,41.8,58.4z M41.8,54.2c-0.7,0-1.3-0.6-1.3-1.3
				c0-0.7,0.6-1.3,1.3-1.3c0.7,0,1.3,0.6,1.3,1.3C43.1,53.6,42.5,54.2,41.8,54.2z"/>
		</g>
		<g id="XMLID_185_">
			<path id="XMLID_186_" class="st0" d="M37.4,55c-0.1-1.4-1-2.6-2.7-3.7c-3.6-2.2-5.1-6.3-5.7-8.7c-0.3,0.6-0.5,1.5-0.5,2.8v4.8
				c0,4,1.6,7.5,4.2,10c0,0,0,0,0.1,0c0.4,0,0.7,0.1,1,0.3l-0.1-0.1C36.1,58.8,37.5,56.8,37.4,55z"/>
		</g>
		<g id="XMLID_183_">
			<path id="XMLID_184_" class="st0" d="M54.6,42.6c-0.6,2.4-2,6.5-5.7,8.7c-1.7,1-2.7,2.3-2.7,3.7c-0.1,1.8,1.3,3.8,3.7,5.5
				l-0.1,0.1c0.3-0.2,0.6-0.3,1-0.3c0,0,0,0,0.1,0c2.6-2.5,4.2-6.1,4.2-10v-4.8C55.1,44.2,55,43.3,54.6,42.6z"/>
		</g>
		<g id="XMLID_181_">
			<path id="XMLID_182_" class="st0" d="M33.1,61.4c-0.1,0-0.2-0.1-0.3-0.1c-0.4,0-0.8,0.3-0.8,0.8v3c0,0.4,0.3,0.8,0.8,0.8
				c0.1,0,0.2,0,0.3-0.1c0.2-0.1,0.4-0.3,0.4-0.5c0-0.1,0-0.1,0-0.2v-3c0-0.1,0-0.1,0-0.2C33.4,61.7,33.3,61.5,33.1,61.4z"/>
		</g>
		<g id="XMLID_179_">
			<path id="XMLID_180_" class="st0" d="M35.1,61.4c-0.1,0-0.2-0.1-0.3-0.1c-0.1,0-0.2,0-0.3,0.1c-0.1,0-0.2,0.1-0.2,0.2
				c-0.1,0.1-0.2,0.2-0.2,0.4c0,0.1,0,0.1,0,0.2v3c0,0.1,0,0.1,0,0.2c0.1,0.2,0.2,0.4,0.4,0.5c0.1,0,0.2,0.1,0.3,0.1
				c0.1,0,0.2,0,0.3-0.1c0.2-0.1,0.4-0.3,0.4-0.5c0-0.1,0-0.1,0-0.2v-2.7v-0.3c0-0.1,0-0.1,0-0.2C35.4,61.7,35.3,61.5,35.1,61.4z"/>
		</g>
		<g id="XMLID_177_">
			<path id="XMLID_178_" class="st0" d="M36.8,61.4c-0.1,0-0.2,0-0.3,0.1c-0.2,0.1-0.4,0.3-0.4,0.5c0,0.1,0,0.1,0,0.2v0.5v2.5
				c0,0.1,0,0.1,0,0.2c0.1,0.2,0.2,0.4,0.4,0.5c0.1,0,0.2,0.1,0.3,0.1c0.4,0,0.8-0.3,0.8-0.8v-1.8v-1.1
				C37.5,61.7,37.2,61.4,36.8,61.4z"/>
		</g>
		<g id="XMLID_175_">
			<path id="XMLID_176_" class="st0" d="M50.8,61.4c-0.1,0-0.2,0-0.3,0.1c-0.2,0.1-0.4,0.3-0.4,0.5c0,0.1,0,0.1,0,0.2v3
				c0,0.1,0,0.1,0,0.2c0.1,0.2,0.2,0.4,0.4,0.5c0.1,0,0.2,0.1,0.3,0.1c0.4,0,0.8-0.3,0.8-0.8v-3C51.6,61.7,51.3,61.4,50.8,61.4z"/>
		</g>
		<g id="XMLID_173_">
			<path id="XMLID_174_" class="st0" d="M49.4,61.6c-0.1-0.1-0.1-0.1-0.2-0.2c-0.1,0-0.2-0.1-0.3-0.1c0,0,0,0,0,0
				c-0.1,0-0.2,0-0.3,0.1c-0.2,0.1-0.4,0.3-0.4,0.5c0,0.1,0,0.1,0,0.2v0.3v2.7c0,0.1,0,0.1,0,0.2c0.1,0.2,0.2,0.4,0.4,0.5
				c0.1,0,0.2,0,0.3,0.1c0,0,0,0,0,0c0.1,0,0.2,0,0.3-0.1c0.2-0.1,0.4-0.3,0.4-0.5c0-0.1,0-0.1,0-0.2v-3c0-0.1,0-0.1,0-0.2
				C49.5,61.8,49.5,61.7,49.4,61.6z"/>
		</g>
		<g id="XMLID_171_">
			<path id="XMLID_172_" class="st0" d="M47.1,61.4c-0.1,0-0.2-0.1-0.3-0.1c0,0,0,0,0,0c-0.4,0-0.7,0.3-0.7,0.8v1.1v1.8
				c0,0.4,0.3,0.7,0.7,0.8c0,0,0,0,0,0c0.1,0,0.2,0,0.3-0.1c0.2-0.1,0.4-0.3,0.4-0.5c0-0.1,0-0.1,0-0.2v-2.5v-0.5c0-0.1,0-0.1,0-0.2
				C47.5,61.7,47.4,61.5,47.1,61.4z"/>
		</g>
		<g id="XMLID_169_">
			<path id="XMLID_170_" class="st0" d="M41.8,42.1c-0.4,0.5-0.8,1-1.3,1.4c-0.3,0.2-0.6,0.4-0.9,0.6l2.2,2.6h0l0,0L44,44
				c-0.3-0.2-0.6-0.4-0.9-0.6C42.7,43,42.2,42.6,41.8,42.1z"/>
		</g>
		<g id="XMLID_167_">
			<path id="XMLID_168_" class="st0" d="M35.7,40c1.3,0,2.4-1.1,2.4-2.4c0-1.3-1.1-2.4-2.4-2.4c-0.3,0-0.6,0.1-0.9,0.2
				c0.3,0.2,0.6,0.5,0.6,0.9c0,0.6-0.5,1.1-1.1,1.1c-0.4,0-0.7-0.2-0.9-0.4c-0.1,0.2-0.1,0.4-0.1,0.6C33.3,38.9,34.4,40,35.7,40z"/>
		</g>
		<g id="XMLID_165_">
			<path id="XMLID_166_" class="st0" d="M47.9,35.2c-0.2,0-0.4,0-0.6,0.1c0.3,0.2,0.4,0.5,0.4,0.9c0,0.6-0.5,1.1-1.1,1.1
				c-0.4,0-0.7-0.2-0.9-0.6c-0.1,0.3-0.2,0.6-0.2,0.9c0,1.3,1.1,2.4,2.4,2.4c1.3,0,2.4-1.1,2.4-2.4C50.3,36.2,49.3,35.2,47.9,35.2z"
				/>
		</g>
		<g id="XMLID_160_">
			<path id="XMLID_161_" class="st0" d="M29.2,37.6c0,1.5,0.5,2.9,1.4,4c1.2,1.5,3,2.5,5.1,2.5c1,0,2-0.2,2.9-0.7
				c0.1,0,0.2-0.1,0.3-0.2c1-0.6,1.8-1.4,2.4-2.4c0.2-0.3,0.4-0.7,0.5-1.1c0.1,0.4,0.3,0.8,0.5,1.1c0.6,1,1.4,1.8,2.4,2.4
				c0.1,0,0.2,0.1,0.2,0.1c0.9,0.4,1.9,0.7,2.9,0.7c2.1,0,3.9-1,5.1-2.5c0.9-1.1,1.4-2.5,1.4-4c0-2.4-1.3-4.4-3.2-5.6
				c0.1-0.1,0.2-0.3,0.4-0.4c0.1-0.1,0.2-0.3,0.3-0.4c0.9-1.2,1.7-2.8,1.7-2.8c-0.9,0.9-4.1,1.2-5.2,1c-0.1,0-0.2,0-0.4,0
				c-0.2,0.2-0.3,0.5-0.6,0.7c-0.2,0.2-0.5,0.4-0.8,0.6c-0.4,0.2-0.8,0.5-1.3,0.6c-0.1,0.1-0.2,0.1-0.2,0.2c-0.1,0-0.3,0-0.4,0
				c-0.2,0.1-0.4,0.1-0.7,0.2c-0.4,0.1-0.8,0.2-1.2,0.2c-0.5,0.1-1,0.1-1.6,0.1c-0.2,0-0.4,0-0.6,0c-0.3,0-0.6,0-0.9-0.1
				c-0.6-0.1-1.2-0.2-1.7-0.3c-0.3-0.1-0.6-0.2-0.8-0.3c-0.5-0.2-1-0.5-1.5-0.8c-0.2-0.2-0.5-0.3-0.7-0.5c-0.2-0.2-0.4-0.4-0.6-0.6
				c-1.4,0.1-3.9-0.2-4.7-1c0,0,0.9,1.6,1.7,2.8c0.1,0.2,0.2,0.3,0.3,0.4c0.1,0.2,0.2,0.3,0.4,0.4C30.5,33.1,29.2,35.2,29.2,37.6z
				 M52.3,37.6c0,2.4-1.9,4.3-4.3,4.3c-2.4,0-4.3-1.9-4.3-4.3c0-1,0.4-1.9,0.9-2.7c0.3-0.3,0.6-0.6,0.9-0.8c0.7-0.5,1.6-0.8,2.5-0.8
				C50.3,33.2,52.3,35.2,52.3,37.6z M35.7,33.2c1,0,1.8,0.3,2.5,0.8c0.3,0.3,0.6,0.6,0.9,0.8c0.6,0.7,0.9,1.7,0.9,2.7
				c0,2.4-1.9,4.3-4.3,4.3c-2.4,0-4.3-1.9-4.3-4.3C31.4,35.2,33.3,33.2,35.7,33.2z"/>
		</g>
		<g id="XMLID_158_">
			<path id="XMLID_159_" class="st0" d="M41.3,28.1l-6.1-2.9v2.5c0,1,1,2,2.5,2.6c0.3,0.1,0.6,0.2,0.8,0.3c0.9,0.2,1.8,0.4,2.9,0.4
				c3.4,0,6.2-1.4,6.2-3.2v-2.3L42.3,28l-0.5,0.2L41.3,28.1z"/>
		</g>
		<g id="XMLID_156_">
			<path id="XMLID_157_" class="st0" d="M34.7,23.8l0.5,0.3l6.6,3.1l5.7-2.9l0.5-0.3l0.5-0.3l2.5-1.2h-2.6h-0.6h-0.6h-5.5
				c-0.3,0-0.5-0.2-0.5-0.5c0-0.3,0.2-0.5,0.5-0.5h4.6h0.8H48h2.2l-8.4-4.2L31,22.1l3.1,1.4L34.7,23.8z"/>
		</g>
		<g id="XMLID_154_">
			<path id="XMLID_155_" class="st0" d="M51.8,28.4c0.3,0,0.6,0.1,0.6-0.5c0-0.4-0.2-1.8-0.4-2.4c0.1-0.8,0.1-1.8,0.1-2.4
				c0-0.2,0-0.3,0-0.4c0-0.1,0-0.1,0-0.2c0,0,0-0.1,0-0.1c0-0.2-0.1-0.4-0.2-0.5c-0.2-0.2-0.4-0.3-0.4-0.3c0,0,0,0.1,0,0.3
				c0,0,0,0.1,0,0.1c0,0.1,0,0.2,0,0.2c0,0,0,0.1,0,0.1c0,0,0.1,0,0.1,0.1c0,0.1,0,0.2,0.1,0.3c0,0.2,0,0.4,0,0.6c0,0.3,0,0.5,0,0.5
				l0.1,1.3c-0.3,0.3-0.5,2.2-0.5,2.7C51.2,28.5,51.5,28.4,51.8,28.4z"/>
		</g>
	</g>
</g>
</svg>
