<?xml version="1.0" encoding="utf-8"?>
<!-- Generator: Adobe Illustrator 19.0.0, SVG Export Plug-In . SVG Version: 6.00 Build 0)  -->
<svg version="1.0" id="Layer_1" xmlns="http://www.w3.org/2000/svg" xmlns:xlink="http://www.w3.org/1999/xlink" x="0px" y="0px"
	 width="83px" height="83px" viewBox="0 0 83 83" style="enable-background:new 0 0 83 83;" xml:space="preserve">
<style type="text/css">
	.st0{fill:#FFFFFF;}
</style>
<g id="XMLID_146_">
	<path id="XMLID_147_" class="st0" d="M41.5,83C18.6,83,0,64.4,0,41.5S18.6,0,41.5,0C64.4,0,83,18.6,83,41.5S64.4,83,41.5,83z
		 M41.5,0.9C19.1,0.9,0.9,19.1,0.9,41.5s18.2,40.6,40.6,40.6c22.4,0,40.6-18.2,40.6-40.6S63.9,0.9,41.5,0.9z"/>
</g>
<g id="XMLID_125_">
	<g id="XMLID_144_">
		<path id="XMLID_145_" class="st0" d="M54.6,61.2H27.9c-1.3,0-2.4-1.1-2.4-2.4V24.2c0-1.3,1.1-2.4,2.4-2.4h26.7
			c1.3,0,2.4,1.1,2.4,2.4v4.6c0,0.4-0.3,0.7-0.7,0.7s-0.7-0.3-0.7-0.7v-4.6c0-0.6-0.5-1.1-1.1-1.1H27.9c-0.6,0-1.1,0.5-1.1,1.1v34.5
			c0,0.6,0.5,1.1,1.1,1.1h26.7c0.6,0,1.1-0.5,1.1-1.1V45.6c0-0.4,0.3-0.7,0.7-0.7s0.7,0.3,0.7,0.7v13.2C57,60.1,55.9,61.2,54.6,61.2
			z"/>
	</g>
	<g id="XMLID_141_">
		<path id="XMLID_142_" class="st0" d="M47,54.3c-0.1,0-0.2,0-0.4-0.1c-0.2-0.1-0.3-0.3-0.3-0.5l-0.7-6.2c0-0.1,0-0.3,0.1-0.4
			L56.9,27c0.8-1.4,3.2-1.5,5.3-0.3c1,0.6,1.8,1.3,2.2,2.2c0.5,0.9,0.6,1.9,0.1,2.6L53.3,51.6c-0.1,0.1-0.2,0.2-0.3,0.3l-5.8,2.3
			C47.1,54.3,47.1,54.3,47,54.3z"/>
	</g>
	<g id="XMLID_135_">
		<path id="XMLID_140_" class="st0" d="M49.4,30.3H33.6c-0.4,0-0.7-0.3-0.7-0.7c0-0.4,0.3-0.7,0.7-0.7h15.8c0.4,0,0.7,0.3,0.7,0.7
			C50.1,30,49.8,30.3,49.4,30.3z"/>
	</g>
	<g id="XMLID_133_">
		<path id="XMLID_134_" class="st0" d="M49.4,34.2H33.6c-0.4,0-0.7-0.3-0.7-0.7s0.3-0.7,0.7-0.7h15.8c0.4,0,0.7,0.3,0.7,0.7
			S49.8,34.2,49.4,34.2z"/>
	</g>
	<g id="XMLID_130_">
		<path id="XMLID_131_" class="st0" d="M49.4,38.1H33.6c-0.4,0-0.7-0.3-0.7-0.7c0-0.4,0.3-0.7,0.7-0.7h15.8c0.4,0,0.7,0.3,0.7,0.7
			C50.1,37.8,49.8,38.1,49.4,38.1z"/>
	</g>
	<g id="XMLID_128_">
		<path id="XMLID_129_" class="st0" d="M49.4,42H33.6c-0.4,0-0.7-0.3-0.7-0.7c0-0.4,0.3-0.7,0.7-0.7h15.8c0.4,0,0.7,0.3,0.7,0.7
			C50.1,41.7,49.8,42,49.4,42z"/>
	</g>
	<g id="XMLID_126_">
		<path id="XMLID_127_" class="st0" d="M32.6,56.1c-0.3,0-0.6-0.2-0.7-0.5c-0.1-0.3,0-0.6,0.3-0.7c0.1-0.1,0.5-0.6,0.8-1.1
			c1.9-2.5,3.7-4.7,4.8-5.2c0.3-0.1,0.6-0.1,0.8,0.2c0.2,0.2,0.3,0.5,0.1,0.8c-0.2,0.4-0.4,0.8-0.5,1.1l0.4-0.4
			c0.2-0.2,0.6-0.3,0.9-0.1c0.3,0.2,0.4,0.5,0.3,0.8l-0.4,1l0.3-0.2c0.3-0.2,0.6-0.1,0.8,0.1c0.2,0.2,0.3,0.5,0.2,0.8c0,0,0,0,0,0
			c1.2-0.2,3.2-0.3,4.2,0.3c0.3,0.2,0.4,0.6,0.2,1c-0.2,0.3-0.6,0.4-1,0.2c-0.6-0.4-2.4-0.3-3.9,0c-0.3,0.1-0.6,0-0.8-0.3
			c0,0-0.1-0.1-0.1-0.2l-0.8,0.5c-0.3,0.2-0.6,0.1-0.8-0.1c-0.2-0.1-0.3-0.4-0.2-0.6L36.9,54c-0.2,0.2-0.6,0.3-0.8,0.1
			c-0.3-0.2-0.4-0.5-0.3-0.8c0,0,0.1-0.4,0.4-1.2c-0.8,0.9-1.5,1.9-2,2.5c-1,1.3-1.1,1.4-1.4,1.4C32.7,56.1,32.6,56.1,32.6,56.1z"/>
	</g>
</g>
</svg>
