<?xml version="1.0" encoding="utf-8"?>
<!-- Generator: Adobe Illustrator 19.0.0, SVG Export Plug-In . SVG Version: 6.00 Build 0)  -->
<svg version="1.0" id="Layer_1" xmlns="http://www.w3.org/2000/svg" xmlns:xlink="http://www.w3.org/1999/xlink" x="0px" y="0px"
	 width="89px" height="89px" viewBox="0 0 89 89" style="enable-background:new 0 0 89 89;" xml:space="preserve">
<style type="text/css">
	.st0{fill:#FFFFFF;}
</style>
<g id="XMLID_87_">
	<path id="XMLID_88_" class="st0" d="M44.5,89C20,89,0,69,0,44.5S20,0,44.5,0C69,0,89,20,89,44.5S69,89,44.5,89z M44.5,1
		C20.5,1,1,20.5,1,44.5S20.5,88,44.5,88C68.5,88,88,68.5,88,44.5S68.5,1,44.5,1z"/>
</g>
<g id="XMLID_77_">
	<path id="XMLID_86_" class="st0" d="M29.3,82.2c0.1,1.2,1,2.1,2.2,2.1c1.2,0,2.1-0.9,2.2-2.1h0.5c0,0,0-0.1,0-0.1
		c-1.8-0.5-3.6-1.1-5.2-1.8c0,0.6-0.1,1.2-0.1,1.9H29.3z"/>
	<path id="XMLID_85_" class="st0" d="M18.6,58.2c-1.3,3-2.6,7.1-3.1,12.2c0.9,1,1.9,2,3,3l0.4-15.7C18.7,57.9,18.7,58.1,18.6,58.2z"
		/>
	<path id="XMLID_84_" class="st0" d="M70.1,57.6l0.4,15.9c1.1-1,2.1-2,3-3c-0.5-5.4-1.9-9.6-3.3-12.6C70.2,57.8,70.2,57.7,70.1,57.6
		z"/>
	<path id="XMLID_83_" class="st0" d="M38.3,57.6l0,0.2c0,0,0,0,0.1,0C38.3,57.7,38.3,57.6,38.3,57.6z"/>
	<circle id="XMLID_82_" class="st0" cx="60.3" cy="31.2" r="9.5"/>
	<circle id="XMLID_81_" class="st0" cx="28.5" cy="31.2" r="9.5"/>
	<path id="XMLID_80_" class="st0" d="M36.8,68.4c-1.3,2.9-2.5,7-2.6,12.4c0,0.4,0,0.8,0,1.2c0.8,0.2,1.6,0.5,2.4,0.6l0.3-14.6
		C36.9,68.2,36.8,68.3,36.8,68.4z"/>
	<path id="XMLID_79_" class="st0" d="M77.2,56.8c-0.5-1.5-1.1-2.9-1.7-4.2c-1.2-2.3-2.6-4.2-4.3-5.9c0,0-0.1-0.1-0.1-0.1l0,0
		c-1.1-1-2.2-2-3.6-2.9c-1.7-1.2-3.2-2-4.8-2.6c0,0,0,0,0,0l-1.6,1.7l-0.7,0.7l-0.7-0.7l-1.6-1.7c0,0,0,0,0,0
		c-1.6,0.6-3.1,1.4-4.8,2.6c-0.7,0.5-1.3,1-1.9,1.5c0.2,0.7,0.4,1.5,0.4,2.3c0,4-3.2,7.2-7.1,7.3c-0.1-0.1-0.3-0.1-0.3,0
		c-4-0.1-7.2-3.3-7.2-7.3c0-0.8,0.2-1.6,0.4-2.4c-0.6-0.5-1.2-0.9-1.8-1.4c-1.7-1.2-3.2-2-4.8-2.6c0,0,0,0,0,0l-1.6,1.7l-0.7,0.7
		l-0.7-0.7l-1.6-1.7c0,0,0,0,0,0c-1.6,0.6-3.1,1.4-4.8,2.6c-3.5,2.4-6.1,5.1-8,8.9c-0.8,1.5-1.4,3.1-2,5c-0.6,1.5-1.1,3.1-1.5,4.9
		c1.5,2.9,3.4,5.6,5.6,8c0.5-5.2,1.8-9.2,3.1-12.2c0.1-0.2,0.2-0.3,0.2-0.5l-0.4,15.7c3.1,2.8,6.6,5.1,10.5,6.8
		c0.2-5,1.1-9.1,2.3-12.3c0.5-1.4,1-2.7,1.5-3.9c1.4-2.7,3.1-4.6,5.5-6.4l0-0.2c0,0,0,0.1,0.1,0.1c0.2-0.2,0.4-0.3,0.6-0.5
		c1.3-0.9,2.4-1.5,3.7-2c0,0,0,0,0,0l1,1.1l0.2,0.2l0.5,0.5l0.5-0.5l0.2-0.2l1-1.1c0,0,0,0,0,0c1.3,0.4,2.4,1.1,3.7,2
		c0.2,0.2,0.5,0.3,0.7,0.5c0.7,0.6,1.4,1.1,2.1,1.8l0,0c0,0,0.1,0.1,0.1,0.1c1.3,1.3,2.4,2.8,3.3,4.5c0.5,1,0.9,2.1,1.3,3.2
		c1.3,3.3,2.4,7.6,2.6,12.9c3.8-1.7,7.3-4,10.4-6.7l-0.4-15.9c0,0.1,0.1,0.2,0.1,0.3c1.4,3.1,2.7,7.2,3.3,12.6c2.2-2.4,4-5.1,5.5-8
		C78.5,60.4,77.9,58.5,77.2,56.8z"/>
	<path id="XMLID_78_" class="st0" d="M54.8,80.8c-0.1-5.6-1.4-9.8-2.7-12.7c0-0.1-0.1-0.2-0.1-0.2l0.3,14.8c0.8-0.2,1.6-0.4,2.5-0.6
		C54.8,81.6,54.8,81.2,54.8,80.8z"/>
</g>
</svg>
