<?xml version="1.0" encoding="utf-8"?>
<!-- Generator: Adobe Illustrator 19.0.0, SVG Export Plug-In . SVG Version: 6.00 Build 0)  -->
<svg version="1.0" id="Layer_1" xmlns="http://www.w3.org/2000/svg" xmlns:xlink="http://www.w3.org/1999/xlink" x="0px" y="0px"
	 width="170px" height="41.3px" viewBox="0 0 170 41.3" style="enable-background:new 0 0 170 41.3;" xml:space="preserve">
<style type="text/css">
	.st0{fill:#FFFFFF;}
</style>
<g>
	<g id="XMLID_524_">
		<g id="XMLID_574_">
			<path id="XMLID_591_" class="st0" d="M47.2,30.3l1.3-0.1c1.5-0.2,1.5-0.3,1.5-4.9V12.2c0-4.6,0-4.8-1.5-4.9l-1.3-0.1V6.3h9.8
				c3.6,0,9.1,0.5,9.1,6.7c0,5.1-5.7,7.5-9.2,7.5h-0.6v-0.9c1.6,0,6-0.8,6-6.4c0-4.4-2.9-5.7-6.3-5.7c-0.8,0-1.5,0.2-2.3,0.3v17.4
				c0,4.6,0,4.8,2.1,4.9l1.3,0.1v0.9h-9.8V30.3z"/>
			<path id="XMLID_588_" class="st0" d="M65.9,21.3c0-6.5,5-10.6,10.9-10.6C82.3,10.7,87,14.3,87,21s-4.8,10.6-10.8,10.6
				C70.2,31.6,65.9,27.8,65.9,21.3z M76.7,30.6c5.1,0,7-4.4,7-8.8c0-5.7-2.9-10.1-7.6-10.1c-4.6,0-7.2,3.8-7.2,9
				C69,26.9,72.1,30.6,76.7,30.6z"/>
			<path id="XMLID_586_" class="st0" d="M96.1,19.7c2.4,1.4,4.9,2.6,4.9,6.3c0,4.1-3.8,5.6-7,5.6c-2.3,0-3.8-0.6-4.7-1.2
				c-0.5-1.2-1-3.4-1-5.3l1-0.2c0.3,2.2,1.5,5.8,5.6,5.8c2.1,0,3.6-1.4,3.6-3.7c0-2.2-1.9-3.7-4.2-4.8L92.4,21
				c-1.7-0.9-3.3-2.8-3.3-5.1c0-3.7,3.1-5.3,6.3-5.3c1.9,0,3.4,0.5,4.2,0.9c0.2,0.9,0.3,3.4,0.3,4.2H99c-0.3-1.5-0.8-4.1-4.2-4.1
				c-1.8,0-3.3,1.2-3.3,3.3c0,1.8,1.3,2.8,2.9,3.7L96.1,19.7z"/>
			<path id="XMLID_584_" class="st0" d="M101,30.5l1.1-0.1c1.2-0.2,1.2-0.3,1.2-3.9V15.9c0-3.7,0-3.9-1.2-3.9l-1.1-0.1v-0.7h7.3v0.7
				l-1.1,0.1c-1.2,0.2-1.2,0.3-1.2,3.9v10.5c0,3.7,0,3.9,1.2,3.9l1.1,0.1v0.7H101V30.5z"/>
			<path id="XMLID_582_" class="st0" d="M114.3,30.5l1.1-0.1c1.6-0.2,1.6-0.3,1.6-3.9V12.1h-1.5c-4.3,0-4.3,0.5-4.9,3.9h-0.7
				c0-0.2-0.1-0.9-0.1-1.3c0-1.4,0.2-2.8,0.3-3.5h16.8c0.2,0.7,0.3,2.1,0.3,3.5c0,0.4-0.1,1.2-0.1,1.3h-0.7
				c-0.7-3.5-0.7-3.9-4.9-3.9h-1.5v14.4c0,3.7,0,3.9,1.7,3.9l1.1,0.1v0.7h-8.3L114.3,30.5L114.3,30.5z"/>
			<path id="XMLID_580_" class="st0" d="M128.3,30.5l1.1-0.1c1.2-0.2,1.2-0.3,1.2-3.9V15.9c0-3.7,0-3.9-1.2-3.9l-1.1-0.1v-0.7h7.3
				v0.7l-1.1,0.1c-1.2,0.2-1.2,0.3-1.2,3.9v10.5c0,3.7,0,3.9,1.2,3.9l1.1,0.1v0.7h-7.3V30.5z"/>
			<path id="XMLID_578_" class="st0" d="M139.2,14.3c-0.5-1.1-0.8-2.2-1.8-2.3l-0.9-0.1v-0.7h7.5v0.7l-0.9,0.1
				c-0.5,0.1-1.4,0.2-1.4,0.8c0,0.2,0.2,0.9,0.4,1.2l5.3,13.5c0.7-1.8,5.4-13.5,5.4-14.5c0-0.6-0.6-0.8-1.2-0.9l-1.4-0.2v-0.7h6.5
				V12l-0.8,0.2c-0.3,0.1-0.7,0.2-0.9,0.5c-0.7,0.7-1.6,3.6-2.4,5l-2.1,4.9c-1.7,4.2-3.2,7.8-3.5,8.7c-0.2,0.2-0.6,0.3-1,0.5
				L139.2,14.3z"/>
			<path id="XMLID_575_" class="st0" d="M150.1,30.5l0.5-0.1c1.2-0.2,1.3-0.5,2-2.2l6.3-15.2c0.2-0.6,0.5-1.2,0.7-1.8l0.9-0.3
				l6.7,17.5c0.5,1.2,0.8,1.9,1.5,2.1l1.2,0.2v0.7h-7.5v-0.7l1.4-0.2c0.5-0.1,0.9-0.2,0.9-0.5c0-0.2-0.2-0.4-0.2-0.6l-2.1-5.7
				c-1.1-0.2-2.2-0.3-3.3-0.3c-1.1,0-2.1,0.2-3.2,0.3l-1.5,4.2c-0.4,1-0.6,1.8-0.6,2c0,0.5,0.4,0.7,0.7,0.7l1.8,0.2v0.7h-6.3
				L150.1,30.5L150.1,30.5z M156.5,22.2c0.9-0.1,1.9-0.2,2.8-0.2c0.9,0,1.9,0,2.9,0.2l-2.8-7.3L156.5,22.2z"/>
		</g>
		<g id="XMLID_530_">
			<g id="XMLID_531_">
				<g id="XMLID_532_">
					<path id="XMLID_572_" class="st0" d="M65.2,38.9c-0.1,0.7-0.2,1.2-0.5,1.9c-0.3,0.2-1.2,0.5-2.3,0.5c-2.2,0-4.2-1-4.2-3.9
						c0-3,2.5-3.9,4.3-3.9c1.2,0,2,0.3,2.3,0.5c0.1,0.5,0.2,1.1,0.2,1.7l-0.3,0.1c-0.1-0.5-0.2-1.9-2.2-1.9c-1.9,0-3,1.2-3,3.3
						c0,1.9,0.9,3.7,3,3.7c1.9,0,2.2-1.2,2.6-2.1L65.2,38.9z"/>
					<path id="XMLID_569_" class="st0" d="M65.5,38.1c0-1.9,1.5-3.2,3.2-3.2c1.7,0,3.1,1.1,3.1,3.1s-1.5,3.2-3.2,3.2
						S65.5,40.1,65.5,38.1z M68.8,40.9c1.5,0,2.2-1.3,2.2-2.6c0-1.7-0.9-3-2.3-3c-1.4,0-2.2,1.2-2.2,2.7
						C66.5,39.8,67.4,40.9,68.8,40.9z"/>
					<path id="XMLID_567_" class="st0" d="M72.4,40.9l0.2-0.1c0.2,0,0.2-0.1,0.3-0.1c0.1-0.1,0.2-0.7,0.2-1.5l0.2-2.3
						c0-0.6,0.1-1.6,0.1-1.9l0.2-0.1c0.3,0.5,2.3,4.4,2.6,4.9c0.3-0.5,2.3-4.3,2.5-4.8l0.2-0.1c0,0.1,0.1,1.1,0.2,2.3l0.1,1.5
						c0,0.8,0.1,1.6,0.2,1.8c0.1,0.1,0.2,0.2,0.3,0.2l0.3,0.1v0.2h-2.3v-0.2l0.4-0.1c0.4-0.1,0.5-0.2,0.5-0.6c0-1-0.2-2.9-0.2-3.5
						l0,0c-0.2,0.4-1.1,2.2-2,3.9c-0.1,0.1-0.1,0.2-0.2,0.3l-0.2,0.2c-0.2-0.4-1.4-2.6-2-3.9c-0.1-0.2-0.2-0.3-0.2-0.5l0,0
						c0,0.5-0.2,3.1-0.2,3.4c0,0.5,0,0.7,0.5,0.8l0.4,0.1v0.2h-1.9v-0.3H72.4z"/>
					<path id="XMLID_565_" class="st0" d="M80.4,40.9h0.3c0.4,0,0.4-0.1,0.4-1.2v-3.2c0-1.1,0-1.2-0.4-1.2h-0.3v-0.2h2.4
						c0.9,0,2.2,0.2,2.2,1.6c0,1.2-1.4,1.8-2.2,1.8h-0.2v-0.2c0.4,0,1.5-0.2,1.5-1.5c0-1.1-0.7-1.4-1.5-1.4c-0.2,0-0.4,0-0.5,0.1
						v4.3c0,1.1,0,1.2,0.5,1.2h0.3v0.2h-2.4V40.9z"/>
					<path id="XMLID_562_" class="st0" d="M84.5,40.9h0.2c0.3-0.1,0.4-0.2,0.6-0.7l1.9-4.6c0.1-0.2,0.2-0.4,0.2-0.5l0.2-0.1l2,5.3
						c0.2,0.4,0.2,0.5,0.5,0.6l0.4,0.1v0.2h-2.2v-0.2l0.4-0.1c0.2,0,0.3-0.1,0.3-0.2s0-0.2-0.1-0.2l-0.6-1.7c-0.3-0.1-0.7-0.1-1-0.1
						c-0.3,0-0.6,0-0.9,0.1L85.9,40c-0.1,0.3-0.2,0.5-0.2,0.6c0,0.2,0.2,0.2,0.2,0.2l0.5,0.1v0.2h-1.9L84.5,40.9L84.5,40.9z
						 M86.4,38.3c0.3,0,0.5-0.1,0.9-0.1s0.6,0,0.9,0.1l-0.9-2.2L86.4,38.3z"/>
					<path id="XMLID_559_" class="st0" d="M90.4,40.9h0.3c0.4,0,0.4-0.3,0.4-1.3v-4.5l0.2-0.1c0.8,0.9,3.5,3.8,4.4,4.7v-3.1
						c0-1,0-1.2-0.5-1.3h-0.3v-0.2h1.9v0.2h-0.3c-0.3,0-0.4,0.3-0.4,1.3v4.5l-0.2,0.1c-0.2-0.2-0.8-0.8-1.7-1.8l-2.7-2.9v3.1
						c0,1,0,1.2,0.5,1.3h0.3v0.2h-1.9V40.9z M92.4,34.2c0.1-0.2,0.5-0.8,0.9-0.8c0.2,0,0.5,0.1,0.6,0.2c0.2,0.1,0.5,0.2,0.7,0.2
						s0.5-0.3,0.5-0.4l0.2,0.1c-0.1,0.2-0.4,0.8-0.9,0.8c-0.5,0-1.1-0.4-1.4-0.4C92.8,33.9,92.5,34.2,92.4,34.2L92.4,34.2z"/>
					<path id="XMLID_557_" class="st0" d="M97.3,40.9h0.3c0.4,0,0.4-0.1,0.4-1.2v-3.2c0-1.1,0-1.2-0.4-1.2h-0.3v-0.2h2.2v0.2h-0.3
						c-0.4,0-0.4,0.1-0.4,1.2v3.2c0,1.1,0,1.2,0.4,1.2h0.3v0.2h-2.2V40.9z"/>
					<path id="XMLID_554_" class="st0" d="M99.5,40.9h0.2c0.3-0.1,0.4-0.2,0.6-0.7l1.9-4.6c0.1-0.2,0.2-0.4,0.2-0.5l0.2-0.1l2,5.3
						c0.2,0.4,0.2,0.5,0.5,0.6l0.4,0.1v0.2h-2.2v-0.2l0.4-0.1c0.2,0,0.3-0.1,0.3-0.2s0-0.2-0.1-0.2l-0.6-1.7c-0.3-0.1-0.7-0.1-1-0.1
						c-0.3,0-0.6,0-0.9,0.1l-0.5,1.2c-0.1,0.3-0.2,0.5-0.2,0.6c0,0.2,0.2,0.2,0.2,0.2l0.5,0.1v0.2h-1.9L99.5,40.9L99.5,40.9z
						 M101.4,38.3c0.3,0,0.5-0.1,0.9-0.1c0.3,0,0.6,0,0.9,0.1l-0.9-2.2L101.4,38.3z"/>
					<path id="XMLID_551_" class="st0" d="M107.6,40.9h0.2c0.3,0,0.3-0.1,0.3-1v-2.6c0-0.9,0-0.9-0.3-1h-0.2v-0.2h2.5
						c1.6,0,2.6,0.9,2.6,2.3c0,1.9-1.5,2.7-3,2.7h-2V40.9z M108.8,40.7c0.3,0.1,0.5,0.1,0.9,0.1c1.4,0,2.2-0.8,2.2-2.2
						c0-1.6-0.9-2.2-2.2-2.2c-0.2,0-0.5,0-0.8,0.1L108.8,40.7L108.8,40.7z"/>
					<path id="XMLID_549_" class="st0" d="M113.2,40.9h0.3c0.3,0,0.3-0.1,0.3-1v-2.6c0-0.9,0-0.9-0.3-1h-0.3v-0.2h3.2
						c0,0.2,0.1,0.5,0.1,0.8c0,0.2,0,0.2,0,0.3h-0.2c-0.2-0.8-0.2-0.9-1.2-0.9h-0.6v2.1h0.7c0.6,0,0.7,0,0.8-0.3v-0.2h0.2v1.4H116
						V39c-0.1-0.3-0.2-0.3-0.8-0.3h-0.7v2.2c0.3,0.1,0.5,0.1,0.9,0.1c1.2,0,1.3-0.5,1.4-1.1h0.2c0,0.5-0.2,0.9-0.2,1.2h-3.5
						L113.2,40.9L113.2,40.9z"/>
					<path id="XMLID_547_" class="st0" d="M122.3,36.8c0.9,0.5,1.9,1,1.9,2.3c0,1.5-1.4,2.1-2.6,2.1c-0.9,0-1.4-0.2-1.8-0.5
						c-0.2-0.5-0.4-1.3-0.4-2l0.4-0.1c0.2,0.9,0.5,2.2,2.1,2.2c0.8,0,1.4-0.5,1.4-1.4s-0.7-1.4-1.5-1.8l-0.7-0.4
						c-0.6-0.4-1.2-1.1-1.2-1.9c0-1.4,1.2-1.9,2.3-1.9c0.7,0,1.2,0.2,1.5,0.4c0.1,0.4,0.1,1.3,0.1,1.5h-0.3
						c-0.1-0.5-0.3-1.5-1.5-1.5c-0.7,0-1.2,0.5-1.2,1.2c0,0.7,0.5,1,1.1,1.4L122.3,36.8z"/>
					<path id="XMLID_545_" class="st0" d="M124.7,40.9h0.3c0.4,0,0.4-0.1,0.4-1.2v-3.2c0-1.1,0-1.2-0.4-1.2h-0.3v-0.2h3.9
						c0,0.2,0.1,0.5,0.1,0.9c0,0.2,0,0.3,0,0.4h-0.2c-0.2-1-0.2-1.1-1.5-1.1h-0.8v2.5h0.8c0.7,0,0.9,0,0.9-0.4l0.1-0.3h0.2v1.6H128
						l-0.1-0.3c-0.1-0.4-0.2-0.4-0.9-0.4h-0.8v2.6c0.3,0.1,0.7,0.2,1,0.2c1.5,0,1.5-0.5,1.7-1.3h0.2c0,0.6-0.2,1-0.3,1.5h-4.2
						L124.7,40.9L124.7,40.9z"/>
					<path id="XMLID_543_" class="st0" d="M135.4,40.7c-0.3,0.2-1.3,0.5-2.2,0.5c-1.9,0-3.5-0.8-3.5-3.1c0-2.4,1.9-3.2,3.4-3.2
						c0.9,0,1.6,0.2,1.9,0.4c0.1,0.4,0.2,0.9,0.2,1.3l-0.2,0.1c-0.1-0.4-0.2-1.5-1.8-1.5c-1.5,0-2.4,1-2.4,2.7c0,1.5,0.8,3,2.6,3
						c0.3,0,0.8,0,1.1-0.2v-0.3c0-1.1,0-1.2-0.6-1.2h-0.3v-0.2h2.3v0.2h-0.3c-0.2,0-0.2,0.1-0.2,0.9c0,0.3,0,0.3,0.2,0.3h0.1
						L135.4,40.7z"/>
					<path id="XMLID_541_" class="st0" d="M140.9,40.9c-0.2-0.2-0.2-0.2-0.3-0.2c-0.2,0-0.9,0.5-2.1,0.5c-1.9,0-2-1.1-2-2.3v-2.4
						c0-1.1,0-1.2-0.4-1.2h-0.3v-0.2h2.2v0.2h-0.3c-0.4,0-0.4,0.1-0.4,1.2v2.2c0,1.3,0.2,2.2,1.6,2.2c0.9,0,1.5-0.5,1.6-0.7v-3.7
						c0-1.1,0-1.2-0.4-1.2h-0.3v-0.2h2.2v0.2h-0.3c-0.4,0-0.4,0.1-0.4,1.2v4.6l-0.3,0.1L140.9,40.9z"/>
					<path id="XMLID_538_" class="st0" d="M142.6,40.9h0.3c0.4,0,0.4-0.1,0.4-1.2v-3.2c0-1.1,0-1.2-0.4-1.2h-0.3v-0.2h2.4
						c0.9,0,2.1,0.2,2.1,1.5c0,0.9-0.8,1.3-1.2,1.6c0.2,0.2,0.5,0.9,0.7,1.3c0.4,0.7,0.8,1.2,1,1.3c0.1,0.1,0.2,0.1,0.5,0.1v0.2
						h-0.7c-0.6,0-1-0.4-1.3-0.9l-0.4-0.7c-0.2-0.5-0.5-0.8-0.5-0.9c-0.2-0.2-0.4-0.2-0.5-0.2h-0.3v1.2c0,1.1,0,1.2,0.3,1.2h0.3v0.2
						h-2.2L142.6,40.9L142.6,40.9z M144.1,38.2h0.5c0.8,0,1.5-0.4,1.5-1.5c0-1.1-0.7-1.4-1.4-1.4c-0.2,0-0.4,0-0.5,0.1L144.1,38.2
						L144.1,38.2z"/>
					<path id="XMLID_535_" class="st0" d="M147.8,38.1c0-1.9,1.5-3.2,3.2-3.2c1.7,0,3.1,1.1,3.1,3.1s-1.5,3.2-3.2,3.2
						C149.1,41.2,147.8,40.1,147.8,38.1z M151.1,40.9c1.5,0,2.2-1.3,2.2-2.6c0-1.7-0.9-3-2.3-3c-1.4,0-2.2,1.2-2.2,2.7
						C148.7,39.8,149.7,40.9,151.1,40.9z"/>
					<path id="XMLID_533_" class="st0" d="M157.2,37.6c0.7,0.4,1.5,0.8,1.5,1.9c0,1.2-1.2,1.7-2.1,1.7c-0.7,0-1.2-0.2-1.5-0.4
						c-0.2-0.4-0.3-1-0.3-1.6l0.3-0.1c0.1,0.6,0.5,1.8,1.7,1.8c0.6,0,1.1-0.4,1.1-1.2c0-0.7-0.5-1.2-1.2-1.5L156,38
						c-0.5-0.3-1-0.9-1-1.5c0-1.1,0.9-1.5,1.9-1.5c0.5,0,1,0.2,1.2,0.3c0.1,0.3,0.1,1,0.1,1.2H158c-0.1-0.5-0.2-1.2-1.2-1.2
						c-0.5,0-1,0.4-1,1c0,0.5,0.4,0.9,0.9,1.2L157.2,37.6z"/>
				</g>
			</g>
		</g>
		<path id="XMLID_525_" class="st0" d="M20.6,0C9.2,0,0,9.2,0,20.6s9.2,20.6,20.6,20.6s20.6-9.2,20.6-20.6S31.9,0,20.6,0z M20.3,8.5
			c0.6,0.5,1.2,1,1.9,1.7c0.2,0.2,0.2,0.2,0.7,0.1c0.9-0.3,3.2-1.4,4.7-1.5c0.7-0.1,0.9,0,1.3,0.4c0.9,0.7,1.5,1.2,1.9,1.8
			c-1.6,0.2-2.2,0.3-2.5,0.4l-0.2,0.1l0,0c-0.8,0.2-1,0.7-1,0.9c0,0.1-0.1,0.2-0.1,0.4c0,0.2,0.1,0.5,0.3,0.9
			c0.4,0.7,0.6,1.2,0.8,1.5c-1.5,0.5-3.2,1.1-3.9,1.5c-0.5,0.2-0.8,0.6-0.9,1.1c0,0.1,0,0.2,0,0.3c0,0.3,0.1,0.7,0.5,1.1
			c1.2,1.2,2.4,3.9,2.4,7c0,0.6-0.1,1.3-0.2,2c-0.6,3.1-2.7,5.5-6.3,7.1c-1.9,0.9-3.7,1-5.6,0.9c0.1,0,0.2,0,0.3,0
			c3.6-0.5,6-1.6,7.7-4.7c2.4-4.3,0.5-9.4-3-12.4c-1-0.9-2.2-1.5-3.3-2.2c-0.3-0.2-0.5-0.4-0.1-0.9c0.6-0.9,1.5-2.1,3.2-3.4
			c0.3-0.2,0.2-0.5,0.1-0.6c-0.5-0.5-0.9-0.8-1.7-1.2c-0.4-0.2-0.5-0.4-0.2-0.7c0.4-0.3,0.9-0.9,2.2-1.4C19.8,8.3,20.1,8.4,20.3,8.5
			z M6.9,12.2c0.3-0.5,0.9-1.8,1.5-2.6C8.6,9.5,8.7,9.4,9,9.4c0.5,0.1,1.6,0.5,2.9,0.9c0.2,0.1,0.4,0.1,0.6-0.2
			c0.5-0.6,2.1-2,4.6-3.1c0.3-0.2,0.6-0.2,1,0.1c0.3,0.2,0.6,0.3,1,0.5c-1.2,0.5-1.8,1-2.2,1.5c-0.4,0.4-0.5,0.8-0.5,1.1
			c0,0.1,0,0.2,0,0.2c0.1,0.5,0.4,0.9,0.9,1.2l0,0h0.1h-0.1c0.4,0.2,0.6,0.4,0.9,0.6c-1.3,1.2-2.2,2.3-2.8,3.1
			c-0.4,0.5-0.5,1-0.4,1.3c0.1,0.3,0.2,0.8,0.8,1.1l0.5,0.3c0.9,0.5,1.9,1.1,2.6,1.7c3,2.5,4.9,7.1,2.8,11.1c-1.5,2.6-3.6,4-7,4.4
			c-1.2,0.2-2.4,0.1-3.5-0.2c0.5,0.1,0.9,0.1,1.4,0.1c2.5-0.1,5.1-0.9,6.5-3.1c3.4-5.4-0.5-11-5.8-12.8c-1.2-0.4-3.2-0.9-4.7-1
			c-0.5-0.1-0.7-0.2-0.5-0.6c0.3-0.7,0.9-2,2.1-3.7c0.1-0.1,0-0.2-0.2-0.3c-0.5-0.2-1.8-0.5-2.7-0.6C6.9,12.6,6.7,12.4,6.9,12.2z
			 M23.3,39c-11.8,1.9-17.9-7.1-17.9-7.1c2.7,2.6,7.3,6.9,14.4,3.7c10.2-4.6,7.2-14.8,4.4-17.7c-0.3-0.4-0.2-0.6,0.2-0.8
			c0.8-0.4,2.9-1.2,4.6-1.6c0.2-0.1,0.2-0.2,0.2-0.4c-0.2-0.4-0.3-1.1-1.2-2.4c-0.2-0.3-0.2-0.5,0.2-0.5c0.4-0.1,0.7-0.2,2.8-0.5
			c0.2,0,0.5,0.1,0.5,0.2c0.5,0.8,0.8,1.6,1.1,2.7c0,0.1,0.2,0.3,0.4,0.3c0.8,0,3.6,0.1,5.1,0.3c0.2,0,0.4,0.2,0.5,0.3
			c0.4,1.2,1.2,6.9-1.2,12.9C34.3,35.4,28.8,38.2,23.3,39z"/>
	</g>
</g>
</svg>
