<?xml version="1.0" encoding="utf-8"?>
<!-- Generator: Adobe Illustrator 19.0.0, SVG Export Plug-In . SVG Version: 6.00 Build 0)  -->
<svg version="1.0" id="Layer_1" xmlns="http://www.w3.org/2000/svg" xmlns:xlink="http://www.w3.org/1999/xlink" x="0px" y="0px"
	 width="14px" height="9.4px" viewBox="0 0 14 9.4" style="enable-background:new 0 0 14 9.4;" xml:space="preserve">
<style type="text/css">
	.st0{fill:#FFFFFF;}
</style>
<g>
	<path id="XMLID_380_" class="st0" d="M0.8,0L7,6.6L12.9,0H1.1C1,0,0.9,0,0.8,0z"/>
	<path id="XMLID_379_" class="st0" d="M3.2,5.6L0.4,9.1c0.2,0.1,0.4,0.2,0.6,0.2h11.9c0.2,0,0.4-0.1,0.6-0.2l-2.8-3.6L11.5,5L14,8.2
		V1.1c0-0.3-0.1-0.5-0.2-0.7L7,8L0.1,0.6C0,0.7,0,0.9,0,1.1v7.1L2.5,5L3.2,5.6z"/>
</g>
</svg>
