<?xml version="1.0" encoding="utf-8"?>
<!-- Generator: Adobe Illustrator 19.0.0, SVG Export Plug-In . SVG Version: 6.00 Build 0)  -->
<svg version="1.0" id="Layer_1" xmlns="http://www.w3.org/2000/svg" xmlns:xlink="http://www.w3.org/1999/xlink" x="0px" y="0px"
	 width="83px" height="83px" viewBox="0 0 83 83" style="enable-background:new 0 0 83 83;" xml:space="preserve">
<style type="text/css">
	.st0{fill:#FFFFFF;}
</style>
<g id="XMLID_213_">
	<path id="XMLID_214_" class="st0" d="M41.5,83C18.6,83,0,64.4,0,41.5S18.6,0,41.5,0C64.4,0,83,18.6,83,41.5S64.4,83,41.5,83z
		 M41.5,0.9C19.1,0.9,0.9,19.1,0.9,41.5s18.2,40.6,40.6,40.6c22.4,0,40.6-18.2,40.6-40.6S63.9,0.9,41.5,0.9z"/>
</g>
<g id="XMLID_211_">
	<path id="XMLID_208_" class="st0" d="M63,48h-1v-5.9c0-1-0.8-1.7-1.7-1.7H22.1c-1,0-1.7,0.8-1.7,1.7V48h-1v-5.9
		c0-1.5,1.2-2.8,2.8-2.8h38.1c1.5,0,2.8,1.2,2.8,2.8V48z"/>
</g>
<path id="XMLID_186_" class="st0" d="M13.4,52.2h13.3c0.7,0,1.2-0.3,1.2-0.7v-7.2c0-0.4-0.5-0.7-1.2-0.7H13.4
	c-0.7,0-1.2,0.3-1.2,0.7v7.2C12.1,51.9,12.7,52.2,13.4,52.2z"/>
<path id="XMLID_184_" class="st0" d="M34.8,52.2h13.3c0.7,0,1.2-0.3,1.2-0.7v-7.2c0-0.4-0.5-0.7-1.2-0.7H34.8
	c-0.7,0-1.2,0.3-1.2,0.7v7.2C33.6,51.9,34.2,52.2,34.8,52.2z"/>
<path id="XMLID_181_" class="st0" d="M34.8,35.6h13.3c0.7,0,1.2-0.3,1.2-0.7v-7.2c0-0.4-0.5-0.7-1.2-0.7H34.8
	c-0.7,0-1.2,0.3-1.2,0.7V35C33.6,35.3,34.2,35.6,34.8,35.6z"/>
<path id="XMLID_180_" class="st0" d="M56.3,52.2h13.3c0.7,0,1.2-0.3,1.2-0.7v-7.2c0-0.4-0.5-0.7-1.2-0.7H56.3
	c-0.7,0-1.2,0.3-1.2,0.7v7.2C55.1,51.9,55.6,52.2,56.3,52.2z"/>
<g id="XMLID_179_">
	<rect id="XMLID_205_" x="41" y="33" class="st0" width="1" height="12.9"/>
</g>
</svg>
