<?xml version="1.0" encoding="utf-8"?>
<!-- Generator: Adobe Illustrator 19.0.0, SVG Export Plug-In . SVG Version: 6.00 Build 0)  -->
<svg version="1.0" id="Layer_1" xmlns="http://www.w3.org/2000/svg" xmlns:xlink="http://www.w3.org/1999/xlink" x="0px" y="0px"
	 width="83px" height="84px" viewBox="0 0 83 84" style="enable-background:new 0 0 83 84;" xml:space="preserve">
<style type="text/css">
	.st0{fill:#FFFFFF;}
</style>
<g id="XMLID_241_">
	<g id="XMLID_242_">
		<path id="XMLID_251_" class="st0" d="M83,42.5c0,16.3-9.4,30.4-23.1,37.2c-2,1-4,1.8-6.1,2.4c-1,0.3-1.9,0.6-2.9,0.8
			c-3,0.7-6.1,1-9.3,1c-3.3,0-6.5-0.4-9.5-1.1C13.7,78.6,0,62.1,0,42.5C0,24.5,11.6,9.1,27.7,3.4C27.8,3.7,27.9,4,28,4.3
			C12.3,9.8,0.9,24.9,0.9,42.5C0.9,61.6,14.2,77.7,32,82c3,0.7,6.2,1.1,9.5,1.1c3.2,0,6.3-0.4,9.3-1.1c1-0.2,1.9-0.5,2.8-0.8
			c2.1-0.6,4.1-1.5,6.1-2.5C73,72.1,82.1,58.3,82.1,42.5c0-17.2-10.8-32-26-37.9c0.1-0.3,0.2-0.6,0.3-0.9C71.9,9.7,83,24.9,83,42.5z
			"/>
	</g>
</g>
<g id="XMLID_239_">
	<path id="XMLID_250_" class="st0" d="M83,42.5c0,16.3-9.4,30.4-23.1,37.2c-2,1-4,1.8-6.1,2.4c-1,0.3-1.9,0.6-2.9,0.8
		c-3,0.7-6.1,1-9.3,1c-3.3,0-6.5-0.4-9.5-1.1C13.7,78.6,0,62.1,0,42.5C0,24.5,11.6,9.1,27.7,3.4C27.8,3.7,27.9,4,28,4.3
		C12.3,9.8,0.9,24.9,0.9,42.5C0.9,61.6,14.2,77.7,32,82c3,0.7,6.2,1.1,9.5,1.1c3.2,0,6.3-0.4,9.3-1.1c1-0.2,1.9-0.5,2.8-0.8
		c2.1-0.6,4.1-1.5,6.1-2.5C73,72.1,82.1,58.3,82.1,42.5c0-17.2-10.8-32-26-37.9c0.1-0.3,0.2-0.6,0.3-0.9C71.9,9.7,83,24.9,83,42.5z"
		/>
</g>
<g id="XMLID_236_">
	<circle id="XMLID_238_" class="st0" cx="41.4" cy="45.5" r="8.8"/>
	<path id="XMLID_254_" class="st0" d="M58.8,74.3c-1.9,1-3.9,1.9-5.9,2.6c-0.6-2.6-1.4-4.7-2.2-6.5c0-0.1-0.1-0.2-0.1-0.3l0.2,7.4
		c-3,0.8-6.2,1.2-9.4,1.2c-3.2,0-6.3-0.4-9.2-1.2c0.1-3.8,0.1-6.8,0.1-6.8c0-2.8,0.2-5,0.5-6.8c-3.8-0.8-7-2-9.3-4.7
		c-0.9-1.1-1.7-3.4-1.5-4.9c0.7-3.6,5.7-7.6,10-10.5c-0.1,0.5-0.1,1-0.1,1.6c0,1.9,0.6,3.8,1.6,5.3c-2.2,1.6-4,3.2-4.8,4.2
		c2,1.7,4.2,2.9,8,1.2c0.5-0.3,0.9-0.5,1.4-0.7c0,0,0,0,0.1,0c0.4-0.2,0.8-0.4,1.2-0.5h0l1.5,1.6l0.6,0.7l0.6-0.7l1.5-1.6
		c0,0,0,0,0,0c1.5,0.5,2.9,1.3,4.5,2.4c1.3,0.8,2.3,1.8,3.3,2.7h0c0,0,0.1,0.1,0.1,0.1c1.6,1.6,2.9,3.3,4,5.5
		c0.6,1.2,1.1,2.5,1.6,3.9C57.8,70.9,58.3,72.5,58.8,74.3z"/>
</g>
<g id="XMLID_230_">
	<path id="XMLID_231_" class="st0" d="M38.9,23.5v-1.7c0-0.7,0.1-1.4,0.2-2c0.1-0.6,0.3-1.1,0.5-1.6c0.2-0.5,0.5-1,0.9-1.5
		c0.4-0.5,0.9-1,1.4-1.5l2-2c0.6-0.5,1.1-1.1,1.5-1.7C45.8,10.8,46,10,46,9.1c0-1.2-0.4-2.2-1.1-3C44.1,5.4,43.1,5,41.7,5
		c-0.7,0-1.3,0.1-1.9,0.4c-0.6,0.3-1,0.6-1.5,1c-0.4,0.4-0.7,0.9-0.9,1.5c-0.2,0.6-0.3,1.2-0.4,1.8l-5.6-0.5
		c0.2-1.5,0.6-2.7,1.2-3.9C33.2,4.2,34,3.2,35,2.4c0.9-0.8,2-1.4,3.2-1.8C39.4,0.2,40.7,0,42.1,0c1.3,0,2.5,0.2,3.7,0.6
		C47,0.9,48,1.5,48.9,2.2S50.5,3.9,51,5c0.5,1.1,0.8,2.3,0.8,3.8c0,1-0.1,1.8-0.3,2.5c-0.2,0.7-0.5,1.4-0.9,2
		c-0.4,0.6-0.9,1.2-1.4,1.8c-0.6,0.6-1.2,1.1-1.9,1.7c-0.6,0.5-1.1,1-1.5,1.4c-0.4,0.4-0.7,0.8-0.9,1.2c-0.2,0.4-0.4,0.8-0.5,1.3
		c-0.1,0.5-0.1,1-0.1,1.7v1.2H38.9z M37.9,29.8c0-1,0.4-1.8,1.1-2.5c0.7-0.7,1.6-1,2.6-1c1,0,1.8,0.3,2.5,1c0.7,0.7,1.1,1.5,1.1,2.5
		c0,1-0.4,1.8-1.1,2.5c-0.7,0.7-1.6,1-2.6,1c-0.5,0-0.9-0.1-1.4-0.3c-0.4-0.2-0.8-0.4-1.2-0.7c-0.3-0.3-0.6-0.7-0.8-1.1
		C38,30.7,37.9,30.3,37.9,29.8z"/>
</g>
<g id="XMLID_226_">
	<path id="XMLID_227_" class="st0" d="M54.8,29.5l0.5-0.9c0.2-0.4,0.4-0.7,0.6-0.9c0.2-0.3,0.5-0.5,0.7-0.7c0.3-0.2,0.6-0.4,0.9-0.5
		c0.3-0.1,0.7-0.3,1.2-0.4l1.6-0.4c0.4-0.1,0.8-0.2,1.2-0.4c0.4-0.2,0.7-0.5,1-1c0.3-0.6,0.4-1.2,0.3-1.8c-0.1-0.6-0.6-1.1-1.2-1.5
		c-0.3-0.2-0.7-0.3-1.1-0.3c-0.4,0-0.7,0-1,0.1c-0.3,0.1-0.6,0.3-0.9,0.5c-0.3,0.2-0.5,0.5-0.7,0.8l-2.7-1.8
		c0.5-0.7,1.1-1.2,1.7-1.6c0.6-0.4,1.3-0.7,2-0.8c0.7-0.1,1.4-0.1,2.1,0c0.7,0.1,1.4,0.4,2.1,0.8c0.7,0.4,1.2,0.8,1.7,1.3
		c0.5,0.5,0.8,1.1,1.1,1.7c0.2,0.6,0.3,1.3,0.3,2c-0.1,0.7-0.3,1.4-0.7,2.1c-0.3,0.5-0.6,0.9-0.9,1.2c-0.3,0.3-0.7,0.6-1,0.7
		c-0.4,0.2-0.8,0.3-1.2,0.5c-0.4,0.1-0.9,0.2-1.4,0.3c-0.4,0.1-0.8,0.2-1.1,0.3c-0.3,0.1-0.6,0.2-0.8,0.3c-0.2,0.1-0.4,0.3-0.6,0.5
		c-0.2,0.2-0.4,0.5-0.5,0.8l-0.3,0.6L54.8,29.5z M52.6,32.5c0.3-0.5,0.7-0.8,1.2-0.9c0.6-0.1,1.1-0.1,1.6,0.2c0.5,0.3,0.8,0.7,1,1.2
		c0.2,0.5,0.1,1.1-0.1,1.5c-0.3,0.5-0.7,0.8-1.2,0.9c-0.6,0.1-1.1,0.1-1.6-0.2c-0.2-0.1-0.4-0.3-0.6-0.5c-0.2-0.2-0.3-0.4-0.4-0.7
		c-0.1-0.2-0.1-0.5-0.1-0.8C52.3,32.9,52.4,32.7,52.6,32.5z"/>
</g>
<g id="XMLID_222_">
	<path id="XMLID_223_" class="st0" d="M26.5,30.3l-0.6-0.8c-0.2-0.3-0.4-0.7-0.5-1c-0.1-0.3-0.2-0.6-0.3-0.9c-0.1-0.3-0.1-0.7,0-1
		c0-0.4,0.1-0.8,0.2-1.2l0.4-1.6c0.1-0.4,0.2-0.9,0.2-1.3c0-0.4-0.2-0.9-0.4-1.3c-0.4-0.6-0.9-0.9-1.5-1.1c-0.6-0.1-1.2,0-1.9,0.4
		c-0.3,0.2-0.6,0.5-0.8,0.8c-0.2,0.3-0.3,0.6-0.4,1c-0.1,0.3,0,0.7,0,1c0.1,0.3,0.2,0.7,0.4,1l-2.8,1.5c-0.4-0.8-0.6-1.5-0.7-2.2
		c-0.1-0.7,0-1.4,0.2-2.1c0.2-0.7,0.5-1.3,1-1.9c0.4-0.6,1-1.1,1.7-1.5c0.6-0.4,1.3-0.7,2-0.9c0.7-0.2,1.3-0.3,2-0.2
		c0.7,0.1,1.3,0.3,1.9,0.6c0.6,0.4,1.1,0.9,1.6,1.6c0.3,0.5,0.5,0.9,0.7,1.3c0.1,0.4,0.2,0.8,0.2,1.2c0,0.4,0,0.8-0.1,1.3
		c-0.1,0.4-0.2,0.9-0.3,1.4c-0.1,0.4-0.2,0.8-0.3,1.1C28,25.9,28,26.2,28,26.4c0,0.3,0.1,0.5,0.2,0.8c0.1,0.2,0.3,0.5,0.5,0.8
		l0.4,0.6L26.5,30.3z M28,33.6c-0.3-0.5-0.4-1-0.3-1.5c0.1-0.6,0.4-1,0.9-1.3c0.5-0.3,1-0.4,1.5-0.3c0.6,0.1,1,0.4,1.3,0.8
		s0.4,1,0.3,1.5c-0.1,0.6-0.4,1-0.9,1.3c-0.2,0.2-0.5,0.3-0.7,0.3c-0.3,0.1-0.5,0.1-0.8,0c-0.3,0-0.5-0.1-0.7-0.3
		C28.4,34.1,28.2,33.9,28,33.6z"/>
</g>
</svg>
