<?xml version="1.0" encoding="utf-8"?>
<!-- Generator: Adobe Illustrator 19.0.0, SVG Export Plug-In . SVG Version: 6.00 Build 0)  -->
<svg version="1.0" id="Layer_1" xmlns="http://www.w3.org/2000/svg" xmlns:xlink="http://www.w3.org/1999/xlink" x="0px" y="0px"
	 width="21px" height="21px" viewBox="0 0 21 21" style="enable-background:new 0 0 21 21;" xml:space="preserve">
<style type="text/css">
	.st0{fill:#FFFFFF;}
</style>
<g>
	<g>
		<path id="XMLID_3_" class="st0" d="M20.3,17.1l-2.2-2.2c-0.1-0.1-0.3-0.2-0.5-0.2c-0.2,0-0.4,0.1-0.6,0.3
			c-0.6,0.8-1.3,1.5-2.1,2.1c-0.2,0.1-0.3,0.3-0.3,0.5c0,0.2,0.1,0.4,0.2,0.6l2.2,2.2c0.4,0.4,1,0.7,1.6,0.7c0.6,0,1.2-0.2,1.6-0.7
			C21.2,19.4,21.2,18,20.3,17.1z"/>
		<path class="st0" d="M9.1,18.3c5,0,9.1-4.1,9.1-9.1c0-5-4.1-9.1-9.1-9.1C4.1,0,0,4.1,0,9.1C0,14.2,4.1,18.3,9.1,18.3z M9.1,2.7
			c3.5,0,6.4,2.9,6.4,6.4c0,3.5-2.9,6.4-6.4,6.4s-6.4-2.9-6.4-6.4C2.7,5.6,5.6,2.7,9.1,2.7z"/>
	</g>
</g>
</svg>
