<?xml version="1.0" encoding="utf-8"?>
<!-- Generator: Adobe Illustrator 19.0.0, SVG Export Plug-In . SVG Version: 6.00 Build 0)  -->
<svg version="1.0" id="Layer_1" xmlns="http://www.w3.org/2000/svg" xmlns:xlink="http://www.w3.org/1999/xlink" x="0px" y="0px"
	 width="83px" height="83px" viewBox="0 0 83 83" style="enable-background:new 0 0 83 83;" xml:space="preserve">
<style type="text/css">
	.st0{fill:#FFFFFF;}
</style>
<g id="XMLID_203_">
	<g id="XMLID_204_">
		<path id="XMLID_205_" class="st0" d="M41.5,0C18.6,0,0,18.6,0,41.5c0,13,6,24.6,15.4,32.2c2.8,2.3,5.8,4.1,9.1,5.6
			c0.6,0.3,1.3,0.6,2,0.8C31.1,82,36.2,83,41.5,83c5.3,0,10.3-1,15-2.8c0.7-0.3,1.4-0.6,2.1-0.9c3.3-1.5,6.3-3.4,9.1-5.6
			C77,66.1,83,54.5,83,41.5C83,18.6,64.4,0,41.5,0z M67.3,72.8c-2.7,2.3-5.8,4.2-9,5.6c-0.6,0.3-1.2,0.5-1.8,0.8
			c-4.6,1.8-9.7,2.9-15,2.9c-5.3,0-10.4-1-15-2.9c-0.6-0.2-1.1-0.5-1.7-0.7c-3.3-1.5-6.3-3.4-9.1-5.7c-9-7.5-14.8-18.7-14.8-31.3
			c0-22.4,18.2-40.6,40.6-40.6c22.4,0,40.6,18.2,40.6,40.6C82.1,54.1,76.3,65.4,67.3,72.8z"/>
	</g>
</g>
<g id="XMLID_146_">
	<g id="XMLID_151_">
		<path id="XMLID_172_" class="st0" d="M24.8,78.5c-0.1,0.3-0.2,0.6-0.3,0.9c-3.3-1.5-6.3-3.4-9.1-5.6c0.1-0.3,0.2-0.6,0.3-0.9
			C18.4,75,21.5,77,24.8,78.5z"/>
		<path id="XMLID_169_" class="st0" d="M56.5,80.2c-4.7,1.8-9.7,2.8-15,2.8c-5.3,0-10.4-1-15.1-2.8l0-1c4.7,1.9,9.7,2.9,15,2.9
			c5.3,0,10.3-1,15-2.9L56.5,80.2z"/>
		<path id="XMLID_170_" class="st0" d="M65.6,68.5c-2.7,2.4-5.7,4.4-9,5.9c0,0,0-0.1,0-0.1c-0.1-0.1-0.1-0.3-0.2-0.4l0,0.7
			c-4.6,2.1-9.7,3.3-15,3.3c-5.3,0-10.3-1.1-14.8-3.1l0-0.6c-0.1,0.2-0.1,0.3-0.2,0.5C23,73,20,71,17.2,68.7
			c0.4-0.8,0.7-1.6,1.1-2.4c2.9-5.8,6.8-10,12.2-13.6c2.6-1.8,4.8-3,7.3-3.9h0l2.5,2.6l1.1,1.1l1.1-1.1l2.5-2.6h0
			c2.5,0.9,4.7,2.1,7.3,3.9c2,1.4,3.8,2.9,5.5,4.5l0,0c0,0,0.1,0.1,0.2,0.2c2.6,2.6,4.8,5.4,6.6,9C64.9,67,65.2,67.7,65.6,68.5z"/>
		<path id="XMLID_168_" class="st0" d="M67.6,73.7c-2.8,2.3-5.8,4.1-9.1,5.6c-0.1-0.3-0.2-0.6-0.3-0.9c3.3-1.5,6.3-3.4,9-5.6
			C67.4,73.1,67.5,73.4,67.6,73.7z"/>
	</g>
	<g id="XMLID_147_">
		<path id="XMLID_149_" class="st0" d="M56,30.1c0.2,1.1,0.4,2.2,0.4,3.3c0,0.7-0.1,1.4-0.1,2c0.1,0,0.1,0,0.2,0
			c0.4,0,0.8,0.3,0.8,0.8c0,1.4-0.5,2.6-1.6,3.6c-0.3,0.3-0.7,0.6-1.1,0.8c-0.1,0.2-0.2,0.4-0.3,0.5c3.1-0.1,5.5-2.6,5.5-5.7
			C59.8,33,58.2,30.9,56,30.1z"/>
		<path id="XMLID_148_" class="st0" d="M44,43.5h-1.1c-0.8,0-1.5-0.7-1.5-1.5c0-0.8,0.7-1.5,1.5-1.5H44c0.5,0,1,0.3,1.3,0.7
			c2.6-0.1,7.2-0.5,9.3-2.5c0.2-0.2,0.3-0.3,0.4-0.5c0.5-1.5,0.8-3.1,0.8-4.8c0-8-6.5-14.5-14.5-14.5c-8,0-14.5,6.5-14.5,14.5
			S33.3,48,41.3,48c5.2,0,9.8-2.8,12.3-6.9c-2.7,1.3-6.2,1.6-8.3,1.6C45,43.2,44.5,43.5,44,43.5z"/>
	</g>
</g>
</svg>
