<?xml version="1.0" encoding="utf-8"?>
<!-- Generator: Adobe Illustrator 19.0.0, SVG Export Plug-In . SVG Version: 6.00 Build 0)  -->
<svg version="1.0" id="Layer_1" xmlns="http://www.w3.org/2000/svg" xmlns:xlink="http://www.w3.org/1999/xlink" x="0px" y="0px"
	 width="18.7px" height="199px" viewBox="0 0 18.7 199" style="enable-background:new 0 0 18.7 199;" xml:space="preserve">
<style type="text/css">
	.st0{fill-rule:evenodd;clip-rule:evenodd;fill:#FFFFFF;}
</style>
<g id="XMLID_303_">
	<path id="XMLID_357_" class="st0" d="M9.7,136.4c0.7,0,1.2-0.2,1.7-0.6c0.4-0.4,0.6-0.8,0.6-1.4c0-0.6-0.2-1.1-0.6-1.4
		c-0.4-0.4-1-0.6-1.7-0.6c-0.5,0-0.9,0.1-1.2,0.2c-0.3,0.2-0.6,0.4-0.8,0.7c-0.2,0.3-0.3,0.7-0.3,1c0,0.5,0.2,1,0.6,1.4
		C8.2,136.2,8.8,136.4,9.7,136.4 M9.7,137.2c-1,0-1.7-0.3-2.2-0.8c-0.5-0.5-0.8-1.2-0.8-2c0-0.5,0.1-1,0.4-1.4
		c0.2-0.4,0.6-0.8,1.1-1c0.5-0.2,1-0.3,1.6-0.3c0.6,0,1.1,0.1,1.6,0.4c0.5,0.2,0.8,0.6,1.1,1c0.2,0.4,0.4,0.9,0.4,1.4
		c0,0.5-0.1,1-0.4,1.5c-0.3,0.4-0.6,0.8-1.1,1C10.7,137.1,10.2,137.2,9.7,137.2 M11.8,145.7v-1.2c0-0.4,0-0.7-0.1-0.9
		c-0.1-0.2-0.2-0.4-0.3-0.5c-0.2-0.2-0.4-0.3-0.7-0.4c-0.3-0.1-0.7-0.2-1.1-0.2c-0.6,0-1.1,0.1-1.4,0.3c-0.3,0.2-0.6,0.4-0.7,0.7
		c-0.1,0.2-0.1,0.6-0.1,1v1.2H11.8z M12.5,146.5H6.7v-2c0-0.4,0-0.8,0.1-1c0.1-0.3,0.2-0.6,0.4-0.9c0.3-0.3,0.6-0.5,1-0.7
		c0.4-0.2,0.9-0.2,1.4-0.2c0.4,0,0.8,0.1,1.2,0.2c0.3,0.1,0.6,0.2,0.8,0.4c0.2,0.2,0.4,0.3,0.5,0.5c0.1,0.2,0.2,0.4,0.3,0.7
		c0.1,0.3,0.1,0.6,0.1,0.9V146.5z M10.1,154.5v-2l-1.6,0.6c-0.5,0.2-0.9,0.3-1.2,0.4c0.4,0.1,0.7,0.2,1.1,0.3L10.1,154.5z
		 M12.5,156.2l-5.8-2.2v-0.8l5.8-2.4v0.9l-1.8,0.7v2.4l1.8,0.6V156.2z M12.5,163.7H6.7V163h5.1v-2.9h0.7V163.7z M12.5,169.5H6.7
		v-0.8h5.8V169.5z M10.2,176.9H9.6v-2.4h2.1c0.3,0.4,0.5,0.8,0.7,1.2c0.1,0.4,0.2,0.8,0.2,1.2c0,0.6-0.1,1.1-0.4,1.5
		c-0.2,0.5-0.6,0.8-1.1,1c-0.5,0.2-1,0.4-1.5,0.4c-0.6,0-1.1-0.1-1.6-0.4c-0.5-0.3-0.9-0.6-1.1-1c-0.2-0.5-0.4-0.9-0.4-1.5
		c0-0.4,0.1-0.8,0.2-1.1c0.1-0.3,0.3-0.6,0.6-0.8c0.2-0.2,0.6-0.3,0.9-0.4l0.2,0.7c-0.3,0.1-0.5,0.2-0.7,0.3
		c-0.2,0.1-0.3,0.3-0.4,0.5c-0.1,0.2-0.2,0.5-0.2,0.8c0,0.4,0,0.7,0.2,0.9c0.1,0.2,0.2,0.4,0.4,0.6c0.2,0.1,0.4,0.3,0.6,0.4
		c0.4,0.1,0.7,0.2,1.2,0.2c0.5,0,0.9-0.1,1.3-0.3c0.4-0.2,0.6-0.4,0.8-0.8c0.2-0.4,0.3-0.7,0.3-1.1c0-0.3-0.1-0.6-0.2-1
		c-0.1-0.3-0.3-0.5-0.4-0.7h-1.1V176.9z M12.5,185.4H6.7v-0.8h5.8V185.4z M12.5,193l-5.8,2.2v-0.8l4.2-1.5c0.3-0.1,0.7-0.2,1-0.3
		c-0.3-0.1-0.6-0.2-1-0.3l-4.2-1.6v-0.8l5.8,2.3V193z"/>
	<path id="XMLID_307_" class="st0" d="M6,3.5V1.7L4.5,2.2C4,2.4,3.6,2.5,3.4,2.6c0.3,0.1,0.7,0.2,1,0.3L6,3.5z M8.1,5L2.8,2.9V2.2
		L8.1,0v0.8L6.5,1.4v2.2l1.6,0.6V5z M5.2,9.1V7.6c0-0.3,0-0.6-0.1-0.8C5,6.6,4.9,6.5,4.7,6.4C4.6,6.3,4.4,6.3,4.3,6.3
		C4,6.3,3.8,6.4,3.6,6.5C3.5,6.7,3.4,7,3.4,7.4v1.7H5.2z M8.1,9.8H2.8V7.5c0-0.5,0-0.8,0.2-1.1C3,6.1,3.2,5.9,3.5,5.7
		C3.7,5.6,4,5.5,4.3,5.5c0.4,0,0.7,0.1,1,0.4C5.5,6.2,5.7,6.5,5.7,7C5.8,6.8,5.9,6.7,6,6.6C6.2,6.4,6.4,6.2,6.7,6l1.5-0.9V6L7,6.7
		C6.7,6.9,6.5,7.1,6.3,7.2C6.1,7.3,6,7.5,5.9,7.6C5.9,7.7,5.8,7.8,5.8,7.9c0,0.1,0,0.2,0,0.4v0.8h2.4V9.8z M8.1,14.8H2.8v-3.9h0.6
		v3.2h1.6v-3h0.6v3h1.8v-3.3h0.6V14.8z M8.1,16.8H2.8v-0.7h5.4V16.8z M6.3,18.5l0.2-0.7c0.6,0.2,1,0.4,1.3,0.8
		C8.1,19,8.2,19.4,8.2,20c0,0.6-0.1,1-0.3,1.4c-0.2,0.4-0.6,0.6-1,0.8c-0.4,0.2-0.9,0.3-1.4,0.3c-0.5,0-1.1-0.1-1.5-0.3
		C3.6,22,3.3,21.7,3,21.3c-0.2-0.4-0.3-0.8-0.3-1.3c0-0.5,0.1-1,0.4-1.3c0.3-0.4,0.6-0.6,1.1-0.8l0.2,0.7c-0.4,0.1-0.7,0.3-0.9,0.5
		c-0.2,0.2-0.3,0.5-0.3,0.9c0,0.4,0.1,0.8,0.3,1c0.2,0.3,0.5,0.4,0.8,0.6c0.3,0.1,0.7,0.2,1,0.2c0.5,0,0.8-0.1,1.2-0.2
		C7,21.4,7.2,21.2,7.4,21c0.2-0.3,0.3-0.6,0.3-0.9c0-0.4-0.1-0.7-0.3-1C7.1,18.8,6.7,18.6,6.3,18.5 M8.1,27.7H2.8V27L7,24.2H2.8
		v-0.7h5.4v0.7L3.9,27h4.2V27.7z M6,31.7v-1.8l-1.5,0.6c-0.4,0.2-0.8,0.3-1.1,0.4c0.3,0.1,0.7,0.2,1,0.3L6,31.7z M8.1,33.3l-5.4-2.1
		v-0.8l5.4-2.2v0.8l-1.6,0.6v2.2l1.6,0.6V33.3z M8.1,38.1H2.8v-0.7L7,34.6H2.8v-0.7h5.4v0.7l-4.2,2.8h4.2V38.1z M8.1,40H2.8v-0.7
		h5.4V40z M8.1,44.7H2.8v-3.6h0.6V44h1.7v-2.5h0.6V44h2.4V44.7z M6,50.9V49l-1.5,0.6C4,49.8,3.6,49.9,3.4,50c0.3,0.1,0.7,0.2,1,0.3
		L6,50.9z M8.1,52.4l-5.4-2.1v-0.8l5.4-2.2v0.8l-1.6,0.6v2.2l1.6,0.6V52.4z M8.1,53.8H2.8v-0.7h5.4V53.8z M6.3,55.5l0.2-0.7
		c0.6,0.2,1,0.4,1.3,0.8C8.1,56,8.2,56.4,8.2,57c0,0.6-0.1,1-0.3,1.4c-0.2,0.4-0.6,0.6-1,0.8c-0.4,0.2-0.9,0.3-1.4,0.3
		c-0.5,0-1.1-0.1-1.5-0.3C3.6,59,3.3,58.7,3,58.3c-0.2-0.4-0.3-0.8-0.3-1.3c0-0.5,0.1-1,0.4-1.4c0.3-0.4,0.6-0.6,1.1-0.8l0.2,0.7
		c-0.4,0.1-0.7,0.3-0.9,0.5c-0.2,0.2-0.3,0.5-0.3,0.9c0,0.4,0.1,0.8,0.3,1c0.2,0.3,0.5,0.5,0.8,0.6c0.3,0.1,0.7,0.2,1,0.2
		c0.5,0,0.8-0.1,1.2-0.2C7,58.4,7.2,58.2,7.4,58c0.2-0.3,0.3-0.6,0.3-0.9c0-0.4-0.1-0.7-0.3-1C7.1,55.8,6.7,55.6,6.3,55.5 M8.1,64.7
		H2.8V64L7,61.2H2.8v-0.7h5.4v0.7L3.9,64h4.2V64.7z M8.1,69.7H2.8v-3.9h0.6V69h1.6v-3h0.6v3h1.8v-3.3h0.6V69.7z M7.5,74.4v-1.2
		c0-0.4,0-0.6-0.1-0.8c-0.1-0.2-0.2-0.4-0.3-0.5c-0.2-0.2-0.4-0.3-0.7-0.4c-0.3-0.1-0.6-0.1-1-0.1c-0.6,0-1,0.1-1.3,0.3
		c-0.3,0.2-0.5,0.4-0.6,0.7c-0.1,0.2-0.1,0.5-0.1,0.9v1.1H7.5z M8.1,75.1H2.8v-1.8c0-0.4,0-0.8,0.1-1c0.1-0.3,0.2-0.6,0.4-0.8
		c0.2-0.3,0.6-0.5,0.9-0.6c0.4-0.2,0.8-0.2,1.3-0.2c0.4,0,0.8,0.1,1.1,0.1c0.3,0.1,0.6,0.2,0.8,0.4c0.2,0.1,0.4,0.3,0.5,0.5
		c0.1,0.2,0.2,0.4,0.3,0.6c0.1,0.3,0.1,0.5,0.1,0.8V75.1z M8.1,80.5H2.8v-0.7L7,77H2.8v-0.7h5.4V77l-4.2,2.8h4.2V80.5z M8.1,85.5
		H2.8v-3.9h0.6v3.2h1.6v-3h0.6v3h1.8v-3.3h0.6V85.5z M8.1,88.7H3.4v1.8H2.8v-4.3h0.6V88h4.7V88.7z M8.1,95.5H2.8v-0.7L7,91.9H2.8
		v-0.7h5.4V92l-4.2,2.8h4.2V95.5z M8.1,97.4H2.8v-0.7h5.4V97.4z M5.2,102.2v-1.5c0-0.3,0-0.6-0.1-0.8c-0.1-0.2-0.2-0.3-0.3-0.4
		c-0.1-0.1-0.3-0.1-0.5-0.1c-0.2,0-0.5,0.1-0.6,0.3c-0.2,0.2-0.2,0.5-0.2,0.9v1.7H5.2z M8.1,102.9H2.8v-2.4c0-0.5,0-0.8,0.2-1.1
		C3,99.2,3.2,99,3.5,98.9c0.2-0.1,0.5-0.2,0.8-0.2c0.4,0,0.7,0.1,1,0.4c0.3,0.2,0.4,0.6,0.5,1.1c0.1-0.2,0.2-0.3,0.3-0.4
		c0.2-0.2,0.4-0.4,0.7-0.6l1.5-0.9v0.9L7,99.8c-0.3,0.2-0.6,0.4-0.7,0.5c-0.2,0.1-0.3,0.3-0.4,0.4c-0.1,0.1-0.1,0.2-0.1,0.3
		c0,0.1,0,0.2,0,0.4v0.8h2.4V102.9z M8.1,107.9H2.8V104h0.6v3.2h1.6v-3h0.6v3h1.8v-3.3h0.6V107.9z M5.3,112.2v-1.4
		c0-0.5-0.1-0.8-0.3-1c-0.2-0.2-0.4-0.3-0.7-0.3c-0.2,0-0.4,0.1-0.6,0.2c-0.2,0.1-0.3,0.3-0.3,0.5c0,0.1-0.1,0.3-0.1,0.6v1.4H5.3z
		 M8.1,112.9H2.8v-2c0-0.4,0-0.6,0-0.8c0-0.3,0.1-0.5,0.3-0.6c0.1-0.2,0.3-0.3,0.5-0.4c0.2-0.1,0.5-0.2,0.7-0.2
		c0.4,0,0.8,0.1,1.2,0.4c0.3,0.3,0.5,0.8,0.5,1.6v1.4h2.2V112.9z M2.8,114.8v-0.7h3.1c0.5,0,1,0.1,1.3,0.2c0.3,0.1,0.6,0.3,0.8,0.7
		c0.2,0.3,0.3,0.7,0.3,1.2c0,0.5-0.1,0.9-0.3,1.2c-0.2,0.3-0.4,0.5-0.8,0.7c-0.3,0.1-0.8,0.2-1.3,0.2H2.8v-0.7h3.1
		c0.5,0,0.8-0.1,1-0.1c0.2-0.1,0.4-0.2,0.5-0.5c0.1-0.2,0.2-0.5,0.2-0.8c0-0.5-0.1-0.9-0.4-1.1c-0.2-0.2-0.7-0.3-1.4-0.3H2.8z
		 M6.4,123.6l-0.1-0.7c0.3,0,0.5-0.1,0.7-0.2c0.2-0.1,0.3-0.3,0.4-0.5c0.1-0.3,0.2-0.5,0.2-0.8c0-0.3,0-0.5-0.1-0.7
		c-0.1-0.2-0.2-0.4-0.3-0.5C7,120,6.9,120,6.7,120c-0.2,0-0.3,0-0.4,0.2c-0.1,0.1-0.2,0.3-0.3,0.5c0,0.1-0.1,0.5-0.2,1
		c-0.1,0.5-0.2,0.8-0.3,1c-0.1,0.2-0.3,0.4-0.5,0.6c-0.2,0.1-0.4,0.2-0.7,0.2c-0.3,0-0.5-0.1-0.7-0.2c-0.2-0.1-0.4-0.4-0.5-0.7
		c-0.1-0.3-0.2-0.6-0.2-1c0-0.4,0.1-0.7,0.2-1c0.1-0.3,0.3-0.5,0.6-0.7c0.2-0.2,0.5-0.2,0.8-0.2l0,0.7c-0.3,0-0.6,0.2-0.8,0.4
		c-0.2,0.2-0.3,0.5-0.3,0.9c0,0.4,0.1,0.7,0.2,0.9c0.2,0.2,0.3,0.3,0.6,0.3c0.2,0,0.4-0.1,0.5-0.2c0.1-0.1,0.3-0.5,0.4-1.1
		c0.1-0.6,0.2-1,0.3-1.2c0.2-0.3,0.3-0.5,0.5-0.7c0.2-0.1,0.5-0.2,0.8-0.2c0.3,0,0.6,0.1,0.8,0.2c0.3,0.2,0.4,0.4,0.6,0.7
		c0.1,0.3,0.2,0.7,0.2,1c0,0.5-0.1,0.9-0.2,1.2c-0.1,0.3-0.4,0.6-0.6,0.8C7.1,123.5,6.8,123.6,6.4,123.6 M14.1,39.4v-1.8l-1.5,0.6
		c-0.4,0.2-0.8,0.3-1.1,0.4c0.3,0.1,0.7,0.2,1,0.3L14.1,39.4z M16.3,41l-5.4-2.1v-0.8l5.4-2.2v0.8l-1.6,0.6v2.2l1.6,0.6V41z
		 M16.3,42.3h-5.4v-0.7h5.4V42.3z M15.6,46.8v-1.3c0-0.2,0-0.4,0-0.5c0-0.2-0.1-0.3-0.1-0.4c-0.1-0.1-0.2-0.2-0.3-0.3
		c-0.1-0.1-0.3-0.1-0.5-0.1c-0.2,0-0.4,0-0.5,0.2c-0.1,0.1-0.3,0.2-0.3,0.4c-0.1,0.2-0.1,0.4-0.1,0.8v1.2H15.6z M13.2,46.8v-1.2
		c0-0.3,0-0.5-0.1-0.7c-0.1-0.2-0.1-0.3-0.3-0.4c-0.1-0.1-0.3-0.1-0.5-0.1c-0.2,0-0.3,0-0.5,0.1c-0.1,0.1-0.2,0.2-0.3,0.4
		c-0.1,0.2-0.1,0.4-0.1,0.8v1.1H13.2z M16.3,47.5h-5.4v-2c0-0.4,0.1-0.7,0.2-1c0.1-0.2,0.3-0.4,0.5-0.6c0.2-0.1,0.5-0.2,0.7-0.2
		c0.2,0,0.4,0.1,0.6,0.2c0.2,0.1,0.4,0.3,0.5,0.6c0.1-0.3,0.3-0.6,0.5-0.7c0.2-0.2,0.5-0.3,0.8-0.3c0.3,0,0.5,0.1,0.7,0.1
		c0.2,0.1,0.4,0.2,0.5,0.4c0.1,0.1,0.2,0.3,0.3,0.6c0.1,0.2,0.1,0.5,0.1,0.9V47.5z M16.3,53.7h-5.4v-1.1l3.8-1.3l0.8-0.3
		c-0.2-0.1-0.5-0.2-0.9-0.3l-3.7-1.3v-1h5.4v0.7h-4.5l4.5,1.6v0.6L11.7,53h4.6V53.7z M13.7,59c0.7,0,1.2-0.2,1.5-0.5
		c0.4-0.3,0.6-0.8,0.6-1.3c0-0.5-0.2-1-0.6-1.3c-0.4-0.3-0.9-0.5-1.6-0.5c-0.4,0-0.8,0.1-1.1,0.2c-0.3,0.1-0.6,0.4-0.8,0.7
		c-0.2,0.3-0.3,0.6-0.3,1c0,0.5,0.2,0.9,0.5,1.3C12.3,58.8,12.9,59,13.7,59 M13.6,59.7c-0.9,0-1.6-0.2-2.1-0.7
		c-0.5-0.5-0.8-1.1-0.8-1.8c0-0.5,0.1-1,0.4-1.4c0.2-0.4,0.6-0.7,1-0.9c0.4-0.2,0.9-0.3,1.4-0.3c0.5,0,1,0.1,1.5,0.3
		c0.4,0.2,0.8,0.5,1,0.9c0.2,0.4,0.3,0.8,0.3,1.3c0,0.5-0.1,0.9-0.4,1.3c-0.2,0.4-0.6,0.7-1,0.9C14.6,59.6,14.1,59.7,13.6,59.7
		 M16.3,63.7h-5.4V63h4.7v-2.6h0.6V63.7z M13.7,69c0.7,0,1.2-0.2,1.5-0.5c0.4-0.4,0.6-0.8,0.6-1.3c0-0.5-0.2-1-0.6-1.3
		c-0.4-0.4-0.9-0.5-1.6-0.5c-0.4,0-0.8,0.1-1.1,0.2c-0.3,0.1-0.6,0.4-0.8,0.7c-0.2,0.3-0.3,0.6-0.3,1c0,0.5,0.2,0.9,0.5,1.3
		C12.3,68.8,12.9,69,13.7,69 M13.6,69.7c-0.9,0-1.6-0.2-2.1-0.7c-0.5-0.5-0.8-1.1-0.8-1.9c0-0.5,0.1-0.9,0.4-1.3
		c0.2-0.4,0.6-0.7,1-0.9c0.4-0.2,0.9-0.3,1.4-0.3c0.5,0,1,0.1,1.5,0.3c0.4,0.2,0.8,0.5,1,0.9c0.2,0.4,0.3,0.8,0.3,1.3
		c0,0.5-0.1,1-0.4,1.4c-0.2,0.4-0.6,0.7-1,0.9C14.6,69.6,14.1,69.7,13.6,69.7 M14.4,71.1l0.2-0.7c0.6,0.2,1,0.4,1.3,0.8
		c0.3,0.4,0.4,0.9,0.4,1.4c0,0.5-0.1,1-0.3,1.4c-0.2,0.4-0.6,0.6-1,0.8c-0.4,0.2-0.9,0.3-1.4,0.3c-0.6,0-1-0.1-1.5-0.3
		c-0.4-0.2-0.7-0.5-1-0.9c-0.2-0.4-0.3-0.8-0.3-1.3c0-0.5,0.1-1,0.4-1.4c0.3-0.4,0.7-0.6,1.2-0.8l0.2,0.7c-0.4,0.1-0.7,0.3-0.9,0.5
		c-0.2,0.2-0.3,0.5-0.3,0.9c0,0.4,0.1,0.8,0.3,1c0.2,0.3,0.5,0.5,0.8,0.6c0.3,0.1,0.7,0.2,1,0.2c0.5,0,0.9-0.1,1.2-0.2
		c0.3-0.1,0.6-0.3,0.7-0.6c0.2-0.3,0.3-0.6,0.3-0.9c0-0.4-0.1-0.7-0.3-1C15.2,71.4,14.8,71.2,14.4,71.1 M16.3,82h-5.4v-3.9h0.6v3.2
		h1.6v-2.9h0.6v2.9h1.8v-3.3h0.6V82z M15.6,86.6v-1.1c0-0.4,0-0.6-0.1-0.8c-0.1-0.2-0.2-0.4-0.3-0.5c-0.2-0.2-0.4-0.3-0.7-0.4
		c-0.3-0.1-0.6-0.1-1-0.1c-0.6,0-1,0.1-1.3,0.3c-0.3,0.2-0.5,0.4-0.6,0.7c-0.1,0.2-0.1,0.5-0.1,0.9v1.1H15.6z M16.3,87.4h-5.4v-1.8
		c0-0.4,0-0.7,0.1-0.9c0.1-0.3,0.2-0.6,0.4-0.8c0.2-0.3,0.6-0.5,0.9-0.6c0.4-0.1,0.8-0.2,1.3-0.2c0.4,0,0.8,0.1,1.1,0.1
		c0.3,0.1,0.6,0.2,0.8,0.4c0.2,0.2,0.4,0.3,0.5,0.5c0.1,0.2,0.2,0.4,0.3,0.6c0.1,0.2,0.1,0.5,0.1,0.9V87.4z"/>
	<path id="XMLID_304_" class="st0" d="M16.4,127.8h2.3V199h-2.3V127.8z M0,127.8h2.3V199H0V127.8z"/>
</g>
</svg>
