<?xml version="1.0" encoding="utf-8"?>
<!-- Generator: Adobe Illustrator 19.0.0, SVG Export Plug-In . SVG Version: 6.00 Build 0)  -->
<svg version="1.0" id="Layer_1" xmlns="http://www.w3.org/2000/svg" xmlns:xlink="http://www.w3.org/1999/xlink" x="0px" y="0px"
	 width="48px" height="44.5px" viewBox="0 0 48 44.5" style="enable-background:new 0 0 48 44.5;" xml:space="preserve">
<style type="text/css">
	.st0{fill:#FFFFFF;}
</style>
<g id="XMLID_282_">
	<path id="XMLID_284_" class="st0" d="M28.9,11.7c0.3,0.3,0.7,0.5,1,0.8c0.3,0.2,0.6,0.5,0.9,0.8c0.6-3.4,2.3-5.7,5.7-6.3
		c2.7-0.5,5.1,0.4,6.7,2.7c2.1,3,1.7,5.9-0.5,8.8c3.3,2.1,5.1,5,5.3,8.9c-1.2,0-2.2,0-3.3,0c-0.1-0.7-0.2-1.3-0.4-2
		c-1.4-4.4-6.6-6.2-10.4-3.6c-1,0.7-1.9,1.4-3,2.2c0-1.3,0-2.4,0-3.5c-0.1-2.7-1.3-4.7-3.6-6c-2.4-1.3-4.8-1.1-7.1,0.4
		c-2,1.3-2.9,3.2-3,5.5c0,1.1,0,2.2,0,3.5c-1.1-0.8-2-1.5-3-2.2c-3.2-2.2-7.7-1.3-9.7,2c-0.6,1-0.9,2.3-1.3,3.6c-0.8,0-1.9,0-3.1,0
		c0.1-3.9,2-6.8,5.3-8.9C3,15.6,2.6,12.6,4.9,9.6C6.6,7.3,8.9,6.4,11.7,7c3.2,0.7,4.9,3,5.5,6.3c0.7-0.6,1.3-1.1,1.9-1.6
		C17.6,10,16.9,8.2,17.2,6c0.2-1.7,1-3.2,2.3-4.3c2.8-2.3,6.6-2.2,9.2,0.2C31.5,4.5,31.5,8.1,28.9,11.7z M23.9,10.3
		c1.9,0.1,3.4-1.4,3.5-3.4c0-1.9-1.4-3.4-3.3-3.5c-1.9-0.1-3.5,1.4-3.6,3.3C20.5,8.7,22,10.2,23.9,10.3z M10.3,10.3
		c-1.9,0-3.4,1.5-3.4,3.4c0,1.9,1.5,3.4,3.4,3.4c1.9,0,3.4-1.5,3.4-3.4C13.7,11.8,12.2,10.3,10.3,10.3z M34.3,13.7
		c0,1.9,1.5,3.4,3.4,3.4c1.9,0,3.4-1.5,3.4-3.4c0-1.9-1.5-3.4-3.4-3.4C35.8,10.3,34.3,11.8,34.3,13.7z"/>
	<path id="XMLID_276_" class="st0" d="M34.3,44.5c-6.9,0-13.7,0-20.6,0c0-2.7,0.9-4.9,2.6-6.8c1.7-1.9,3.9-2.9,6.6-3.4
		c-3.2-1.4-4.6-3.6-4-6.3c0.6-2.4,2.8-4.1,5.2-4.1c2.4,0.1,4.5,1.9,4.9,4.3c0.4,2.6-1,4.9-4,6C30.7,35.4,33.8,38.8,34.3,44.5z"/>
</g>
</svg>
