<?xml version="1.0" encoding="utf-8"?>
<!-- Generator: Adobe Illustrator 19.0.0, SVG Export Plug-In . SVG Version: 6.00 Build 0)  -->
<svg version="1.0" id="Layer_1" xmlns="http://www.w3.org/2000/svg" xmlns:xlink="http://www.w3.org/1999/xlink" x="0px" y="0px"
	 width="36px" height="37px" viewBox="0 0 36 37" style="enable-background:new 0 0 36 37;" xml:space="preserve">
<style type="text/css">
	.st0{fill:#FFFFFF;}
</style>
<path class="st0" d="M10.4,21c-2.1-1.8-3.6-3.8-4.2-6.4c-1-4.5,0-8.4,3.5-11.6c3.4-3,7.4-3.8,11.6-2.3C27.2,2.9,31.5,7.3,36,11.9
	c-3.7,3.2-7.3,6.3-10.9,9.4c6.1,3.2,9.6,8.4,10,15.7c-1.3,0-2.5,0-3.7,0c-1.8-8.8-6.2-13.4-13.2-13.5c-1.8,0-3.7,0.2-5.4,0.8
	c-1.7,0.6-3.3,1.6-4.6,2.9C6.9,28.4,5.8,30,5,31.7c-0.8,1.6-1,3.5-1.5,5.3c-1,0-2.2,0-3.5,0C0.3,29.5,3.9,24.4,10.4,21z M30.2,11.7
	c-2.8-3-5.9-5.5-9.6-7c-1.1-0.5-2.3-0.8-3.5-0.8c-3.3,0.2-5.7,1.9-6.9,5C9,12.1,9.6,15,12,17.3c2.4,2.3,5.2,2.9,8.4,1.5
	C24.2,17.2,27.3,14.7,30.2,11.7z"/>
</svg>
