<?xml version="1.0" encoding="utf-8"?>
<!-- Generator: Adobe Illustrator 19.0.0, SVG Export Plug-In . SVG Version: 6.00 Build 0)  -->
<svg version="1.0" id="Layer_1" xmlns="http://www.w3.org/2000/svg" xmlns:xlink="http://www.w3.org/1999/xlink" x="0px" y="0px"
	 width="29px" height="39.6px" viewBox="0 0 29 39.6" style="enable-background:new 0 0 29 39.6;" xml:space="preserve">
<style type="text/css">
	.st0{fill:#FFFFFF;}
</style>
<g>
	<path class="st0" d="M13,38.4c0.8,1.7,2.1,1.7,2.9,0c3.5-7.2,11.9-18.2,12.2-18.9l0-0.1c0.5-1.5,0.8-3.1,0.8-4.8
		C29,6.5,22.5,0,14.5,0C6.5,0,0,6.5,0,14.5c0,1.2,0.2,2.3,0.4,3.4l0,0.1C0.8,19.5,9.5,31.1,13,38.4z M14.5,6.3
		c4.5,0,8.2,3.7,8.2,8.2c0,4.5-3.7,8.2-8.2,8.2c-4.5,0-8.2-3.7-8.2-8.2C6.3,10,10,6.3,14.5,6.3z"/>
</g>
</svg>
