<?xml version="1.0" encoding="utf-8"?>
<!-- Generator: Adobe Illustrator 19.0.0, SVG Export Plug-In . SVG Version: 6.00 Build 0)  -->
<svg version="1.1" id="Layer_1" xmlns="http://www.w3.org/2000/svg" xmlns:xlink="http://www.w3.org/1999/xlink" x="0px" y="0px"
	 width="220px" height="53.4px" viewBox="0 0 220 53.4" style="enable-background:new 0 0 220 53.4;" xml:space="preserve">
<style type="text/css">
	.st0{fill:#F47621;}
</style>
<g>
	<g id="XMLID_524_">
		<g id="XMLID_574_">
			<path id="XMLID_591_" class="st0" d="M61.1,39.2l1.7-0.1c1.9-0.2,1.9-0.4,1.9-6.4V15.8c0-5.9,0-6.2-1.9-6.4l-1.7-0.1V8.2h12.7
				c4.6,0,11.8,0.7,11.8,8.7c0,6.6-7.4,9.7-11.9,9.7h-0.8v-1.1c2.1,0,7.7-1,7.7-8.3c0-5.7-3.8-7.4-8.2-7.4c-1,0-2,0.2-3,0.4v22.5
				c0,5.9,0,6.2,2.7,6.4l1.7,0.1v1.1H61.1V39.2z"/>
			<path id="XMLID_588_" class="st0" d="M85.2,27.6c0-8.4,6.5-13.7,14.1-13.7c7.2,0,13.2,4.6,13.2,13.2c0,8.6-6.2,13.7-14,13.7
				C90.8,40.9,85.2,36,85.2,27.6z M99.2,39.6c6.6,0,9.1-5.7,9.1-11.4c0-7.4-3.7-13-9.8-13c-5.9,0-9.3,4.9-9.3,11.6
				C89.3,34.8,93.3,39.6,99.2,39.6z"/>
			<path id="XMLID_586_" class="st0" d="M124.3,25.5c3.1,1.8,6.3,3.4,6.3,8.1c0,5.3-4.9,7.3-9,7.3c-3,0-4.9-0.8-6.1-1.6
				c-0.7-1.5-1.3-4.4-1.3-6.9l1.3-0.3c0.4,2.8,1.9,7.5,7.2,7.5c2.7,0,4.7-1.8,4.7-4.8c0-2.8-2.4-4.8-5.4-6.2l-2.5-1.4
				c-2.2-1.2-4.3-3.6-4.3-6.6c0-4.8,4-6.8,8.1-6.8c2.4,0,4.4,0.6,5.4,1.2c0.3,1.2,0.4,4.4,0.4,5.4h-1c-0.4-2-1-5.3-5.4-5.3
				c-2.3,0-4.3,1.6-4.3,4.3c0,2.3,1.7,3.6,3.8,4.8L124.3,25.5z"/>
			<path id="XMLID_584_" class="st0" d="M130.7,39.4l1.4-0.1c1.5-0.2,1.5-0.4,1.5-5.1V20.6c0-4.8,0-5-1.5-5.1l-1.4-0.1v-0.9h9.5v0.9
				l-1.4,0.1c-1.5,0.2-1.5,0.4-1.5,5.1v13.6c0,4.8,0,5,1.5,5.1l1.4,0.1v0.9h-9.5V39.4z"/>
			<path id="XMLID_582_" class="st0" d="M147.9,39.4l1.4-0.1c2.1-0.2,2.1-0.4,2.1-5.1V15.6h-2c-5.5,0-5.6,0.6-6.4,5.1h-0.9
				c0-0.2-0.1-1.2-0.1-1.7c0-1.8,0.3-3.6,0.4-4.5h21.7c0.2,0.9,0.4,2.7,0.4,4.5c0,0.5-0.1,1.6-0.1,1.7h-0.9
				c-0.9-4.5-0.9-5.1-6.4-5.1h-2v18.6c0,4.8,0,5,2.2,5.1l1.4,0.1v0.9h-10.8V39.4z"/>
			<path id="XMLID_580_" class="st0" d="M166,39.4l1.4-0.1c1.5-0.2,1.5-0.4,1.5-5.1V20.6c0-4.8,0-5-1.5-5.1l-1.4-0.1v-0.9h9.5v0.9
				l-1.4,0.1c-1.5,0.2-1.5,0.4-1.5,5.1v13.6c0,4.8,0,5,1.5,5.1l1.4,0.1v0.9H166V39.4z"/>
			<path id="XMLID_578_" class="st0" d="M180,18.5c-0.6-1.4-1-2.9-2.3-3l-1.1-0.1v-0.9h9.7v0.9l-1.2,0.1c-0.6,0.1-1.8,0.2-1.8,1
				c0,0.2,0.3,1.1,0.5,1.6l6.8,17.4c0.9-2.3,7-17.5,7-18.7c0-0.8-0.8-1-1.5-1.1l-1.8-0.2v-0.9h8.4v0.9l-1,0.2
				c-0.4,0.1-0.9,0.3-1.2,0.6c-0.9,0.9-2.1,4.6-3.1,6.5l-2.7,6.4c-2.2,5.4-4.2,10.1-4.5,11.2c-0.2,0.2-0.8,0.4-1.3,0.6L180,18.5z"/>
			<path id="XMLID_575_" class="st0" d="M194.2,39.4l0.7-0.1c1.5-0.2,1.7-0.7,2.6-2.9l8.1-19.7c0.3-0.8,0.6-1.6,0.9-2.3l1.1-0.4
				l8.7,22.6c0.6,1.6,1,2.5,2,2.7l1.6,0.2v0.9h-9.7v-0.9l1.8-0.3c0.7-0.1,1.2-0.3,1.2-0.7c0-0.3-0.2-0.5-0.2-0.8l-2.7-7.4
				c-1.4-0.3-2.9-0.4-4.3-0.4c-1.4,0-2.7,0.2-4.1,0.4l-2,5.4c-0.5,1.3-0.8,2.3-0.8,2.6c0,0.7,0.5,0.9,0.9,0.9l2.3,0.3v0.9h-8.2V39.4
				z M202.4,28.7c1.2-0.1,2.4-0.2,3.6-0.2c1.2,0,2.5,0,3.7,0.2l-3.6-9.4L202.4,28.7z"/>
		</g>
		<g id="XMLID_530_">
			<g id="XMLID_531_">
				<g id="XMLID_532_">
					<path id="XMLID_572_" class="st0" d="M84.3,50.3c-0.1,0.9-0.2,1.6-0.6,2.5c-0.4,0.2-1.6,0.6-3,0.6c-2.8,0-5.4-1.3-5.4-5
						c0-3.9,3.2-5.1,5.5-5.1c1.5,0,2.6,0.4,3,0.6c0.1,0.6,0.2,1.4,0.2,2.2l-0.4,0.1c-0.1-0.6-0.3-2.4-2.8-2.4
						c-2.4,0-3.9,1.6-3.9,4.3c0,2.5,1.2,4.8,3.9,4.8c2.4,0,2.8-1.5,3.3-2.7L84.3,50.3z"/>
					<path id="XMLID_569_" class="st0" d="M84.7,49.3c0-2.5,2-4.1,4.2-4.1c2.2,0,4,1.4,4,4c0,2.6-1.9,4.1-4.2,4.1
						C86.4,53.3,84.7,51.9,84.7,49.3z M89,52.9c2,0,2.8-1.7,2.8-3.4c0-2.2-1.1-3.9-3-3.9c-1.8,0-2.8,1.5-2.8,3.5
						C86,51.5,87.2,52.9,89,52.9z"/>
					<path id="XMLID_567_" class="st0" d="M93.6,52.9l0.3-0.1c0.2,0,0.3-0.1,0.4-0.1c0.1-0.1,0.2-0.9,0.3-1.9l0.2-3
						c0-0.8,0.1-2.1,0.1-2.4l0.3-0.1c0.4,0.6,3,5.7,3.4,6.3c0.4-0.6,3-5.6,3.2-6.2l0.3-0.1c0,0.1,0.1,1.4,0.2,3l0.1,2
						c0,1,0.1,2.1,0.2,2.3c0.1,0.1,0.2,0.2,0.4,0.2l0.4,0.1v0.3h-3v-0.3l0.5-0.1c0.5-0.1,0.6-0.2,0.6-0.8c0-1.3-0.2-3.8-0.2-4.5h0
						c-0.2,0.5-1.4,2.8-2.6,5.1c-0.1,0.1-0.1,0.3-0.2,0.4l-0.3,0.2c-0.3-0.5-1.8-3.4-2.6-5c-0.1-0.2-0.2-0.4-0.3-0.7h0
						c0,0.7-0.2,4-0.2,4.4c0,0.7,0,0.9,0.6,1l0.5,0.1v0.3h-2.4V52.9z"/>
					<path id="XMLID_565_" class="st0" d="M104,52.9l0.4,0c0.5,0,0.5-0.1,0.5-1.5v-4.1c0-1.4,0-1.5-0.5-1.5l-0.4,0v-0.3h3.1
						c1.1,0,2.9,0.2,2.9,2.1c0,1.6-1.8,2.3-2.9,2.3h-0.2v-0.3c0.5,0,1.9-0.2,1.9-2c0-1.4-0.9-1.8-2-1.8c-0.2,0-0.5,0-0.7,0.1v5.5
						c0,1.4,0,1.5,0.6,1.5l0.4,0v0.3H104V52.9z"/>
					<path id="XMLID_562_" class="st0" d="M109.3,52.9l0.2,0c0.4-0.1,0.5-0.2,0.8-0.9l2.5-6c0.1-0.2,0.2-0.5,0.3-0.7l0.3-0.1L116,52
						c0.2,0.5,0.3,0.7,0.6,0.8l0.5,0.1v0.3h-2.9v-0.3l0.5-0.1c0.2,0,0.4-0.1,0.4-0.2c0-0.1,0-0.2-0.1-0.2l-0.8-2.2
						c-0.4-0.1-0.9-0.1-1.3-0.1c-0.4,0-0.8,0-1.2,0.1l-0.6,1.6c-0.1,0.4-0.2,0.7-0.2,0.8c0,0.2,0.2,0.3,0.3,0.3l0.7,0.1v0.3h-2.5
						V52.9z M111.8,49.6c0.4,0,0.7-0.1,1.1-0.1c0.4,0,0.8,0,1.1,0.1l-1.1-2.9L111.8,49.6z"/>
					<path id="XMLID_559_" class="st0" d="M116.9,52.9l0.4,0c0.5,0,0.5-0.4,0.5-1.7v-5.8l0.3-0.1c1,1.2,4.5,4.9,5.7,6.1v-4
						c0-1.3,0-1.6-0.6-1.7l-0.4,0v-0.3h2.5v0.3l-0.4,0c-0.4,0-0.5,0.4-0.5,1.7v5.8l-0.3,0.1c-0.3-0.3-1-1-2.2-2.3l-3.5-3.7v4
						c0,1.3,0,1.6,0.6,1.7l0.4,0v0.3h-2.5V52.9z M119.5,44.3c0.1-0.2,0.6-1,1.2-1c0.3,0,0.6,0.1,0.8,0.2c0.3,0.1,0.6,0.2,0.9,0.2
						c0.3,0,0.6-0.4,0.6-0.5l0.2,0.1c-0.1,0.3-0.5,1-1.1,1c-0.6,0-1.4-0.5-1.8-0.5c-0.3,0-0.6,0.4-0.7,0.5L119.5,44.3z"/>
					<path id="XMLID_557_" class="st0" d="M125.9,52.9l0.4,0c0.5,0,0.5-0.1,0.5-1.5v-4.1c0-1.4,0-1.5-0.5-1.5l-0.4,0v-0.3h2.9v0.3
						l-0.4,0c-0.5,0-0.5,0.1-0.5,1.5v4.1c0,1.4,0,1.5,0.5,1.5l0.4,0v0.3h-2.9V52.9z"/>
					<path id="XMLID_554_" class="st0" d="M128.7,52.9l0.2,0c0.4-0.1,0.5-0.2,0.8-0.9l2.5-6c0.1-0.2,0.2-0.5,0.3-0.7l0.3-0.1
						l2.6,6.8c0.2,0.5,0.3,0.7,0.6,0.8l0.5,0.1v0.3h-2.9v-0.3l0.5-0.1c0.2,0,0.4-0.1,0.4-0.2c0-0.1,0-0.2-0.1-0.2l-0.8-2.2
						c-0.4-0.1-0.9-0.1-1.3-0.1c-0.4,0-0.8,0-1.2,0.1l-0.6,1.6c-0.1,0.4-0.2,0.7-0.2,0.8c0,0.2,0.2,0.3,0.3,0.3l0.7,0.1v0.3h-2.5
						V52.9z M131.2,49.6c0.4,0,0.7-0.1,1.1-0.1c0.4,0,0.8,0,1.1,0.1l-1.1-2.9L131.2,49.6z"/>
					<path id="XMLID_551_" class="st0" d="M139.2,52.9l0.3,0c0.4,0,0.4-0.1,0.4-1.3v-3.4c0-1.2,0-1.2-0.4-1.3l-0.3,0v-0.2h3.2
						c2.1,0,3.3,1.1,3.3,3c0,2.5-1.9,3.5-3.9,3.5h-2.6V52.9z M140.8,52.7c0.4,0.1,0.7,0.1,1.1,0.1c1.8,0,2.8-1,2.8-2.9
						c0-2.1-1.1-2.9-2.9-2.9c-0.3,0-0.7,0-1,0.1V52.7z"/>
					<path id="XMLID_549_" class="st0" d="M146.4,52.9l0.4,0c0.4,0,0.4-0.1,0.4-1.3v-3.4c0-1.2,0-1.2-0.4-1.3l-0.4,0v-0.2h4.2
						c0,0.2,0.1,0.6,0.1,1c0,0.2,0,0.3,0,0.4l-0.2,0c-0.2-1-0.2-1.2-1.6-1.2h-0.8v2.7h0.9c0.8,0,0.9,0,1-0.4l0-0.3h0.3v1.8H150
						l0-0.3c-0.1-0.4-0.2-0.4-1-0.4h-0.9v2.8c0.4,0.1,0.7,0.1,1.1,0.1c1.6,0,1.7-0.6,1.8-1.4l0.2,0c0,0.6-0.2,1.1-0.3,1.6h-4.5V52.9
						z"/>
					<path id="XMLID_547_" class="st0" d="M158.2,47.6c1.2,0.7,2.4,1.3,2.4,3c0,2-1.8,2.7-3.4,2.7c-1.1,0-1.8-0.3-2.3-0.6
						c-0.3-0.6-0.5-1.7-0.5-2.6l0.5-0.1c0.2,1.1,0.7,2.8,2.7,2.8c1,0,1.8-0.7,1.8-1.8c0-1.1-0.9-1.8-2-2.3l-0.9-0.5
						c-0.8-0.5-1.6-1.4-1.6-2.5c0-1.8,1.5-2.5,3-2.5c0.9,0,1.6,0.2,2,0.5c0.1,0.5,0.1,1.7,0.1,2h-0.4c-0.1-0.7-0.4-2-2-2
						c-0.9,0-1.6,0.6-1.6,1.6c0,0.9,0.6,1.3,1.4,1.8L158.2,47.6z"/>
					<path id="XMLID_545_" class="st0" d="M161.3,52.9l0.4,0c0.5,0,0.5-0.1,0.5-1.5v-4.1c0-1.4,0-1.5-0.5-1.5l-0.4,0v-0.3h5.1
						c0,0.3,0.1,0.7,0.1,1.2c0,0.3,0,0.4,0,0.5l-0.3,0c-0.3-1.3-0.3-1.4-1.9-1.4h-1v3.2h1c0.9,0,1.1,0,1.2-0.5l0.1-0.4h0.3v2.1h-0.3
						l-0.1-0.4c-0.1-0.5-0.3-0.5-1.2-0.5h-1v3.4c0.4,0.1,0.9,0.2,1.3,0.2c1.9,0,2-0.7,2.2-1.7l0.3,0c0,0.8-0.2,1.3-0.4,2h-5.4V52.9z
						"/>
					<path id="XMLID_543_" class="st0" d="M175.1,52.7c-0.4,0.2-1.7,0.6-2.9,0.6c-2.4,0-4.5-1-4.5-4c0-3.1,2.5-4.1,4.4-4.1
						c1.2,0,2.1,0.3,2.4,0.5c0.1,0.5,0.2,1.2,0.2,1.7l-0.3,0.1c-0.1-0.5-0.3-1.9-2.3-1.9c-1.9,0-3.1,1.3-3.1,3.5c0,2,1,3.9,3.3,3.9
						c0.4,0,1,0,1.4-0.2v-0.4c0-1.4,0-1.5-0.8-1.5l-0.4,0v-0.3h3v0.3l-0.4,0c-0.2,0-0.2,0.1-0.2,1.2c0,0.4,0,0.4,0.2,0.4h0.1
						L175.1,52.7z"/>
					<path id="XMLID_541_" class="st0" d="M182.3,52.9c-0.2-0.2-0.3-0.3-0.4-0.3c-0.2,0-1.1,0.7-2.7,0.7c-2.4,0-2.6-1.4-2.6-3v-3.1
						c0-1.4,0-1.5-0.5-1.5l-0.4,0v-0.3h2.9v0.3l-0.4,0c-0.5,0-0.5,0.1-0.5,1.5v2.9c0,1.7,0.3,2.8,2.1,2.8c1.2,0,2-0.7,2.1-0.9v-4.8
						c0-1.4,0-1.5-0.5-1.5l-0.4,0v-0.3h2.9v0.3l-0.4,0c-0.5,0-0.5,0.1-0.5,1.5v5.9l-0.4,0.1L182.3,52.9z"/>
					<path id="XMLID_538_" class="st0" d="M184.5,52.9l0.4,0c0.5,0,0.5-0.1,0.5-1.5v-4.1c0-1.4,0-1.5-0.5-1.5l-0.4,0v-0.3h3.1
						c1.1,0,2.7,0.2,2.7,2c0,1.1-1,1.7-1.6,2.1c0.2,0.3,0.6,1.1,0.9,1.7c0.5,0.9,1,1.6,1.3,1.7c0.1,0.1,0.3,0.1,0.6,0.1v0.3h-0.9
						c-0.8,0-1.3-0.5-1.7-1.2l-0.5-0.9c-0.3-0.6-0.6-1-0.7-1.2c-0.2-0.2-0.5-0.2-0.7-0.2h-0.4v1.6c0,1.4,0,1.5,0.4,1.5l0.4,0v0.3
						h-2.9V52.9z M186.4,49.4h0.7c1,0,1.9-0.5,1.9-1.9c0-1.4-0.9-1.8-1.8-1.8c-0.2,0-0.5,0-0.7,0.1V49.4z"/>
					<path id="XMLID_535_" class="st0" d="M191.2,49.3c0-2.5,2-4.1,4.2-4.1c2.2,0,4,1.4,4,4c0,2.6-1.9,4.1-4.2,4.1
						C192.9,53.3,191.2,51.9,191.2,49.3z M195.4,52.9c2,0,2.8-1.7,2.8-3.4c0-2.2-1.1-3.9-3-3.9c-1.8,0-2.8,1.5-2.8,3.5
						C192.4,51.5,193.7,52.9,195.4,52.9z"/>
					<path id="XMLID_533_" class="st0" d="M203.3,48.7c0.9,0.5,1.9,1,1.9,2.4c0,1.6-1.5,2.2-2.7,2.2c-0.9,0-1.5-0.2-1.9-0.5
						c-0.2-0.5-0.4-1.3-0.4-2.1l0.4-0.1c0.1,0.8,0.6,2.3,2.2,2.3c0.8,0,1.4-0.5,1.4-1.5c0-0.9-0.7-1.5-1.6-1.9l-0.8-0.4
						c-0.7-0.4-1.3-1.1-1.3-2c0-1.4,1.2-2,2.5-2c0.7,0,1.3,0.2,1.6,0.4c0.1,0.4,0.1,1.3,0.1,1.6h-0.3c-0.1-0.6-0.3-1.6-1.6-1.6
						c-0.7,0-1.3,0.5-1.3,1.3c0,0.7,0.5,1.1,1.1,1.5L203.3,48.7z"/>
				</g>
			</g>
		</g>
		<path id="XMLID_525_" class="st0" d="M26.6,0C11.9,0,0,11.9,0,26.6c0,14.7,11.9,26.6,26.6,26.6c14.7,0,26.6-11.9,26.6-26.6
			C53.2,11.9,41.3,0,26.6,0z M26.2,11c0.8,0.6,1.6,1.3,2.5,2.2c0.2,0.2,0.3,0.3,0.9,0.1c1.2-0.4,4.1-1.8,6.1-2
			c0.9-0.1,1.2,0,1.7,0.5c1.1,0.9,1.9,1.6,2.5,2.3c-2.1,0.2-2.8,0.4-3.2,0.5l-0.2,0.1l0,0c-1,0.2-1.3,0.9-1.3,1.2
			c0,0.1-0.1,0.3-0.1,0.5c0,0.3,0.1,0.7,0.4,1.1c0.5,0.9,0.8,1.5,1,1.9c-2,0.6-4.1,1.4-5.1,1.9c-0.6,0.3-1,0.8-1.1,1.4
			c0,0.1,0,0.2,0,0.4c0,0.4,0.1,0.9,0.6,1.4c1.5,1.6,3.1,5.1,3.1,9c0,0.8-0.1,1.7-0.3,2.6c-0.8,4-3.5,7.1-8.1,9.2
			c-2.4,1.1-4.8,1.3-7.2,1.2c0.1,0,0.3,0,0.4,0c4.6-0.6,7.8-2.1,10-6.1c3.1-5.5,0.7-12.2-3.9-16c-1.3-1.1-2.8-1.9-4.3-2.8
			c-0.4-0.2-0.6-0.5-0.1-1.1c0.8-1.1,2-2.7,4.1-4.4c0.4-0.3,0.3-0.6,0.1-0.8c-0.7-0.6-1.2-1-2.2-1.5c-0.5-0.2-0.7-0.5-0.3-0.9
			c0.5-0.4,1.2-1.1,2.9-1.8C25.6,10.7,26,10.9,26.2,11z M8.9,15.8c0.4-0.7,1.2-2.3,2-3.3c0.2-0.2,0.3-0.3,0.8-0.3
			c0.7,0.1,2.1,0.7,3.8,1.2c0.3,0.1,0.5,0.1,0.8-0.2c0.7-0.8,2.7-2.6,5.9-4c0.4-0.2,0.8-0.2,1.3,0.1c0.4,0.2,0.8,0.4,1.3,0.6
			c-1.5,0.7-2.3,1.3-2.9,1.9c-0.5,0.5-0.6,1-0.6,1.4c0,0.1,0,0.2,0,0.2c0.1,0.6,0.5,1.1,1.2,1.5v0l0.1,0c0,0-0.1,0-0.1,0
			c0.5,0.3,0.8,0.5,1.2,0.8c-1.7,1.5-2.9,3-3.6,4c-0.5,0.7-0.6,1.3-0.5,1.7c0.1,0.4,0.3,1,1,1.4l0.7,0.4c1.2,0.7,2.4,1.4,3.4,2.2
			c3.9,3.2,6.4,9.2,3.6,14.3c-1.9,3.4-4.7,5.2-9,5.7c-1.6,0.2-3.1,0.1-4.5-0.3c0.6,0.1,1.2,0.1,1.8,0.1c3.2-0.1,6.6-1.2,8.4-4
			c4.4-7-0.7-14.2-7.5-16.5c-1.6-0.5-4.1-1.1-6.1-1.3c-0.7-0.1-0.9-0.3-0.7-0.8c0.4-0.9,1.2-2.6,2.7-4.8c0.1-0.1,0-0.3-0.2-0.4
			c-0.7-0.2-2.3-0.6-3.5-0.8C8.9,16.3,8.7,16.1,8.9,15.8z M30.2,50.5c-15.3,2.4-23.1-9.2-23.1-9.2c3.5,3.4,9.5,8.9,18.6,4.8
			C38.9,40.2,35,27,31.4,23.2c-0.4-0.5-0.2-0.8,0.2-1c1-0.5,3.8-1.5,6-2.1c0.2-0.1,0.3-0.2,0.2-0.5c-0.2-0.5-0.4-1.4-1.5-3.1
			c-0.3-0.4-0.2-0.6,0.2-0.7c0.5-0.1,0.9-0.3,3.6-0.6c0.3,0,0.6,0.1,0.7,0.3c0.6,1,1,2.1,1.4,3.5c0,0.1,0.3,0.4,0.5,0.4
			c1,0,4.6,0.1,6.6,0.4c0.2,0,0.5,0.2,0.6,0.4c0.5,1.5,1.6,8.9-1.6,16.7C44.4,45.8,37.2,49.4,30.2,50.5z"/>
	</g>
</g>
</svg>
