<?xml version="1.0" encoding="utf-8"?>
<!-- Generator: Adobe Illustrator 19.0.0, SVG Export Plug-In . SVG Version: 6.00 Build 0)  -->
<svg version="1.0" id="Layer_1" xmlns="http://www.w3.org/2000/svg" xmlns:xlink="http://www.w3.org/1999/xlink" x="0px" y="0px"
	 width="83px" height="83px" viewBox="0 0 83 83" style="enable-background:new 0 0 83 83;" xml:space="preserve">
<style type="text/css">
	.st0{fill:#FFFFFF;}
</style>
<g>
	<path class="st0" d="M41.5,83C18.6,83,0,64.4,0,41.5S18.6,0,41.5,0C64.4,0,83,18.6,83,41.5S64.4,83,41.5,83z M41.5,0.9
		C19.1,0.9,0.9,19.1,0.9,41.5s18.2,40.6,40.6,40.6c22.4,0,40.6-18.2,40.6-40.6S63.9,0.9,41.5,0.9z"/>
</g>
<g>
	<g>
		<g>
			<path id="XMLID_181_" class="st0" d="M18.8,43.5c0,0.6,0.4,1.2,1,1.4l2.7,1c0.2-0.5,0.5-0.9,0.9-1.3c0.8-0.8,1.8-1.2,2.9-1.2
				c1.1,0,2.2,0.4,3,1.2l8.3,8.3c1.2,1.2,1.5,2.8,1,4.3c1.2,0.9,2.8,1,4.2,0.3l11.4-5.7c1.9-0.9,2.6-3.1,2-4.9c0,0,0,0,0,0
				c-1.5,0-2.9-0.7-3.9-1.8l-7.8-9.3l-1.1,1.1c-0.8,0.8-1.8,1.2-2.9,1.2c-1.1,0-2.1-0.4-2.9-1.2L37,36.5c-0.8-0.8-1.2-1.8-1.2-2.9
				c0-1.1,0.4-2.1,1.2-2.9l3.1-3.1l-0.7-0.8c-1.2-1.4-3.2-1.9-4.9-1l-8.5,4.3L20.9,28c-1-0.4-2.1,0.3-2.1,1.4V43.5L18.8,43.5z"/>
			<path id="XMLID_180_" class="st0" d="M64.2,42.9V31.3c0-0.8-0.7-1.5-1.5-1.5H56l-6.9-5c-0.7-0.5-1.5-0.8-2.3-0.8
				c-1,0-2.1,0.4-2.8,1.2l-3.1,3.1l-3.1,3.1c-1.2,1.2-1.2,3.1,0,4.3l0.4,0.4c0.6,0.6,1.4,0.9,2.1,0.9c0.8,0,1.5-0.3,2.1-0.9l1.9-1.9
				L53,44.4c0.6,0.8,1.5,1.2,2.5,1.4c0.2,0,0.4,0,0.6,0c0.3,0,0.6,0,0.9-0.1l6.1-1.3C63.7,44.2,64.2,43.6,64.2,42.9z"/>
			<path id="XMLID_179_" class="st0" d="M32.4,58c0.6,0.6,1.4,0.9,2.2,0.9c0.8,0,1.6-0.3,2.2-0.9c0.5-0.5,0.8-1.1,0.9-1.7
				c0.2-1-0.1-2-0.9-2.7l-8.3-8.3c-0.6-0.6-1.4-0.9-2.2-0.9c-0.8,0-1.6,0.3-2.2,0.9l0,0c-0.3,0.3-0.5,0.6-0.6,0.9
				c-0.5,1.1-0.3,2.5,0.6,3.4L32.4,58z"/>
		</g>
	</g>
</g>
</svg>
