<?xml version="1.0" encoding="utf-8"?>
<!-- Generator: Adobe Illustrator 19.0.0, SVG Export Plug-In . SVG Version: 6.00 Build 0)  -->
<svg version="1.0" id="Layer_1" xmlns="http://www.w3.org/2000/svg" xmlns:xlink="http://www.w3.org/1999/xlink" x="0px" y="0px"
	 width="125px" height="56.2px" viewBox="0 0 125 56.2" style="enable-background:new 0 0 125 56.2;" xml:space="preserve">
<style type="text/css">
	.st0{fill:#FFCB05;}
	.st1{fill:#F49C1E;}
	.st2{fill:#F8B817;}
	.st3{fill:#1C3C6D;}
	.st4{fill:#00468B;}
	.st5{fill:#0E2749;}
	.st6{fill:#A41E25;}
	.st7{fill:#DA1A32;}
	.st8{fill:#6E0C1A;}
</style>
<g id="XMLID_2382_">
	<path id="XMLID_2380_" class="st0" d="M35.9,0c0,0-15.3,0.2-26.7,9.9c0,0-5,4.1-6.7,9.9L0.3,30.9c0,0-2.6,7.5,7.2,14.1
		c0,0,9.9,7.3,28.2,7.1v-4.4c0,0-12.7,0.4-23.2-6.9c0,0-8.2-5.4-9.7-13.4c0,0,5.4-8.9,23.9-12.1L35.9,0z"/>
	<path id="XMLID_2379_" class="st1" d="M27.2,14.6c0,0-9.4,1-17.9,6.1c0,0-7.3,3.8-8.9,9.8c0,0-1.9,5.2,2.8,10.8
		c0,0,7.5,8.3,21.8,10.2l0-0.6c0,0-12.3-1.5-21.6-9.9c0,0-5.7-7.1-0.6-13.5c0,0,3.2-5.2,12.8-9c3-1.2,6.7-2.3,11.1-3.1L27.2,14.6z"
		/>
	<path id="XMLID_2378_" class="st2" d="M2.9,27.4c0,0-5.2,5.6,0.5,13.3c0,0,5.5,6.8,21.6,10.4l2.5-4.3c0,0-13.2-2.5-20.4-11.1
		C5.1,33.4,3.6,30.7,2.9,27.4"/>
	<path id="XMLID_2377_" class="st2" d="M0.3,30.7c0,0,0.8-5.3,9-10.1l10-16.9c0,0-3.3,1.3-7.2,3.9c-3.9,2.6-8.1,6.7-9.7,12.1
		c0,0-0.6,2.9-0.9,4.1C1.4,25.5,0.3,30.7,0.3,30.7"/>
	<path id="XMLID_2376_" class="st3" d="M31.5,22.1c0,0-6.9,0.4-14.1,2.8c-2,0.7-4,1.5-5.9,2.5c0,0-6.6,2.9-7.7,8.3l-0.6,6.9
		c0,0-0.8,3.5,4.3,6.9c0,0,9.4,5.3,28.3,4.9l0-2.5c0,0-12.1,0-20.2-3.6c0,0-8.3-3.1-10.4-8.1c0,0,1.9-3.1,9.9-5.8
		c1.1-0.4,2.3-0.7,3.7-1.1c2.1-0.5,4.4-1,7.1-1.4L31.5,22.1z"/>
	<path id="XMLID_2375_" class="st4" d="M22.7,53.6l1.7-2.9c0,0,6.9,1,11.4,1.1l0,2.5C35.8,54.3,28.4,54.4,22.7,53.6"/>
	<path id="XMLID_2374_" class="st5" d="M25.8,31.8l0.3-0.4c0,0-11,1.4-18,5.5c0,0-4.3,2.6-4.8,5.6c0,0-0.9,3.6,4.4,7.1v-0.4
		c0,0-4.2-2.7-3.6-6.6c0,0,0.4-2.6,4.5-5.2c0,0,2.1-1.4,6-2.8C17.3,33.4,21.3,32.5,25.8,31.8"/>
	<path id="XMLID_2373_" class="st4" d="M17.5,24.8l-6.1,10.3c0,0,5.4-2.4,14.6-3.8l5.5-9.3C31.5,22.1,25.2,22.4,17.5,24.8"/>
	<path id="XMLID_2372_" class="st6" d="M23.4,44l3.1-5.2c0,0-13.1,1.6-17.7,5.6c0,0-1.1,1.1-1.1,1.9c0,0-0.1,2.3-0.2,3.1
		c0,0.9,0.1,2.3,2.7,3.3c0,0,0.3,0.1,0.8,0.3c1.8,0.7,7,2.4,17.9,2.9c2.1,0.1,4.4,0.2,6.9,0.2v-2.3c0,0-10.9-0.2-15.1-1.1
		c0,0-9.4-1.4-11.7-4.4c0,0,0.6-0.7,2.8-1.6c0.5-0.2,1-0.4,1.7-0.6C15.7,45.4,18.9,44.6,23.4,44"/>
	<path id="XMLID_2371_" class="st7" d="M20.7,55.3L22,53c0,0,9.4,0.9,13.8,0.9l0,2.3c0,0-0.8,0-2.4,0C31,56.1,26.7,55.9,20.7,55.3"
		/>
	<path id="XMLID_2370_" class="st7" d="M23.5,43.8l2.9-5c0,0-2.3,0.2-5.8,1c-1.2,0.3-2.6,0.6-4.1,1l-3,5
		C13.6,45.8,18.8,44.3,23.5,43.8"/>
	<path id="XMLID_2369_" class="st8" d="M7.5,49.4c1.2-2.4,6.1-3.6,6.1-3.6c6.4-1.8,10-2.1,10-2.1L23.4,44c-4.6,0.5-9.7,2.1-9.7,2.1
		c-5.4,1.7-5.5,3.6-5.5,3.6c-0.2,0.6,0.2,1.3,0.7,1.8c0.6,0.6,1.3,0.9,1.3,0.9c1.1,0.6,3.3,1.4,5.4,1.8c2.6,0.6,5,0.9,5,0.9
		c1,0.2,2.8,0.3,4.5,0.5c1.1,0.1,2.3,0.2,3.2,0.2c3.6,0.2,7.4,0.2,7.4,0.2v0c-1,0-2,0-3-0.1c-1.6,0-3.1-0.1-4.4-0.2
		c-2.5-0.1-4.6-0.3-6.4-0.5c-3.6-0.4-6.1-0.9-7.8-1.3c-1.9-0.5-3-0.9-4.1-1.4c-0.9-0.4-1.6-0.8-2-1.4c-0.5-0.6-0.5-1.5-0.5-1.8
		C7.5,49.5,7.5,49.4,7.5,49.4"/>
	<path id="XMLID_2457_" class="st4" d="M40.9,52.3h-0.6v1.5h-0.5v-3.9h1.2c0.8,0,1.3,0.3,1.3,1.2C42.2,52,41.6,52.3,40.9,52.3
		 M40.9,50.3h-0.6v1.5h0.6c0.4,0,0.8-0.1,0.8-0.8C41.7,50.4,41.3,50.3,40.9,50.3"/>
	<path id="XMLID_2454_" class="st4" d="M45.7,53.8l-0.3-1.1H44l-0.4,1.1h-0.5l1.2-3.9h0.7l1.2,3.9H45.7z M45.3,52.2l-0.5-1.6
		c0-0.1-0.1-0.3-0.1-0.4h0c0,0.1,0,0.2-0.1,0.4l-0.5,1.6H45.3z"/>
	<polygon id="XMLID_2364_" class="st4" points="47.5,53.8 47.5,53.3 49.5,50.3 47.7,50.3 47.6,49.9 50.1,49.9 50.1,50.4 48,53.3 
		50,53.3 50.1,53.8 	"/>
	<polygon id="XMLID_2363_" class="st4" points="57.3,53.8 57.3,49.9 59.6,49.9 59.6,50.3 57.9,50.3 57.9,51.6 59.5,51.6 59.5,52 
		57.9,52 57.9,53.3 59.6,53.3 59.6,53.8 	"/>
	<path id="XMLID_2449_" class="st4" d="M62.7,53.8V54c0,0.4,0.2,0.5,0.4,0.5c0.1,0,0.2,0,0.5-0.1l0.1,0.5c-0.3,0.1-0.5,0.1-0.7,0.1
		c-0.5,0-0.9-0.3-0.9-0.9v-0.2c-0.8-0.1-1.3-0.7-1.3-2c0-1.4,0.6-2,1.6-2c1,0,1.6,0.6,1.6,2C64.1,53.1,63.6,53.7,62.7,53.8
		 M62.5,50.3c-0.6,0-1,0.3-1,1.6c0,1.3,0.4,1.6,1,1.6c0.6,0,1-0.3,1-1.6C63.5,50.6,63.1,50.3,62.5,50.3"/>
	<path id="XMLID_2360_" class="st4" d="M67,53.9c-0.9,0-1.4-0.3-1.4-1.4v-2.6h0.5v2.6c0,0.7,0.2,0.9,0.9,0.9c0.6,0,0.9-0.3,0.9-0.9
		v-2.6h0.5v2.6C68.4,53.5,67.9,53.9,67,53.9"/>
	<rect id="XMLID_2359_" x="70.1" y="49.9" class="st4" width="0.5" height="3.9"/>
	<path id="XMLID_2444_" class="st4" d="M73.6,53.8h-1.2v-3.9h1.2c1,0,1.7,0.4,1.7,1.9C75.3,53.2,74.7,53.8,73.6,53.8 M73.6,50.3
		h-0.7v3.1h0.6c0.7,0,1.1-0.3,1.1-1.6C74.7,50.6,74.3,50.3,73.6,50.3"/>
	<path id="XMLID_2441_" class="st4" d="M79,53.8l-0.3-1.1h-1.4l-0.4,1.1h-0.5l1.2-3.9h0.7l1.2,3.9H79z M78.5,52.2L78,50.7
		c0-0.1-0.1-0.3-0.1-0.4h0c0,0.1,0,0.2-0.1,0.4l-0.5,1.6H78.5z"/>
	<path id="XMLID_2438_" class="st4" d="M82.1,53.8h-1.2v-3.9h1.2c1,0,1.7,0.4,1.7,1.9C83.8,53.2,83.2,53.8,82.1,53.8 M82.1,50.3
		h-0.7v3.1h0.6c0.7,0,1.1-0.3,1.1-1.6C83.2,50.6,82.8,50.3,82.1,50.3"/>
	<polygon id="XMLID_2352_" class="st4" points="91.4,53.7 91.4,49.8 93.5,49.8 93.5,50.3 91.9,50.3 91.9,51.5 93.5,51.5 93.5,52 
		91.9,52 91.9,53.3 93.6,53.3 93.6,53.7 	"/>
	<path id="XMLID_2434_" class="st4" d="M96.2,53.7h-1.2v-3.9h1.2c1,0,1.7,0.4,1.7,1.9C97.9,53.1,97.3,53.7,96.2,53.7 M96.2,50.3
		h-0.7v3h0.6c0.7,0,1.1-0.3,1.1-1.6C97.4,50.5,96.9,50.3,96.2,50.3"/>
	<path id="XMLID_2349_" class="st4" d="M100.8,53.8c-0.9,0-1.4-0.3-1.4-1.4v-2.6h0.5v2.6c0,0.7,0.2,0.9,0.8,0.9
		c0.6,0,0.9-0.3,0.9-0.9v-2.6h0.5v2.6C102.2,53.4,101.7,53.8,100.8,53.8"/>
	<path id="XMLID_2348_" class="st4" d="M105.3,53.8c-1.1,0-1.6-0.6-1.6-2c0-1.4,0.5-2,1.5-2c0.3,0,0.5,0,1,0.2l-0.1,0.5
		c-0.4-0.1-0.6-0.2-0.8-0.2c-0.6,0-1,0.3-1,1.5c0,1.3,0.4,1.5,1,1.5c0.2,0,0.4-0.1,0.9-0.2l0.1,0.5
		C105.8,53.7,105.5,53.8,105.3,53.8"/>
	<path id="XMLID_2429_" class="st4" d="M110,53.7l-0.3-1.1h-1.3l-0.3,1.1h-0.5l1.2-3.9h0.7l1.2,3.9H110z M109.5,52.2l-0.5-1.5
		c0-0.1-0.1-0.3-0.1-0.4h0c0,0.1,0,0.2-0.1,0.4l-0.5,1.5H109.5z"/>
	<path id="XMLID_2345_" class="st4" d="M113.2,53.8c-1.1,0-1.6-0.6-1.6-2c0-1.4,0.5-2,1.5-2c0.3,0,0.5,0,1,0.2l-0.1,0.5
		c-0.4-0.1-0.6-0.2-0.8-0.2c-0.6,0-1,0.3-1,1.5c0,1.3,0.4,1.5,1,1.5c0.2,0,0.4-0.1,0.9-0.2l0.1,0.5
		C113.7,53.7,113.4,53.8,113.2,53.8"/>
	<rect id="XMLID_2344_" x="115.6" y="49.8" class="st4" width="0.5" height="3.9"/>
	<path id="XMLID_2423_" class="st4" d="M119.2,53.8c-1,0-1.5-0.5-1.5-2s0.6-2,1.5-2c0.9,0,1.5,0.6,1.5,2
		C120.7,53.2,120.1,53.8,119.2,53.8 M119.2,50.2c-0.6,0-1,0.3-1,1.5c0,1.3,0.4,1.5,1,1.5c0.6,0,1-0.3,1-1.5
		C120.2,50.6,119.8,50.2,119.2,50.2 M118.9,49.7L118.9,49.7l0.4-0.6h0.5l-0.6,0.6H118.9z"/>
	<path id="XMLID_2340_" class="st4" d="M124.4,53.7l-1.5-2.7c-0.1-0.1-0.1-0.3-0.2-0.4h0c0,0.1,0,0.3,0,0.4v2.7h-0.5v-3.9h0.6
		l1.5,2.7c0.1,0.1,0.1,0.3,0.2,0.4h0c0-0.1,0-0.3,0-0.4v-2.7h0.5v3.9H124.4z"/>
	<polygon id="XMLID_2339_" class="st4" points="44.5,21.2 44.5,28.5 41.8,28.5 41.8,21.2 39.8,21.2 39.8,19 46.5,19 46.5,21.2 	"/>
	<path id="XMLID_2418_" class="st4" d="M50.7,28.8c-2.7,0-4.2-1.4-4.2-4.9c0-3.4,1.5-5,4.2-5c2.7,0,4.2,1.4,4.2,5
		C54.9,27.4,53.4,28.8,50.7,28.8 M50.7,21.1c-1,0-1.3,0.3-1.3,2.8c0,2.4,0.2,2.8,1.3,2.8c1.1,0,1.3-0.4,1.3-2.8
		C52,21.4,51.7,21.1,50.7,21.1"/>
	<path id="XMLID_2415_" class="st4" d="M59.3,28.6h-3.7V19h3.6c2.5,0,4.3,1.2,4.3,4.6C63.6,26.9,62,28.6,59.3,28.6 M59.2,21.2h-0.9
		v5.3h0.9c1.2,0,1.5-0.4,1.5-2.8C60.7,21.5,60.3,21.2,59.2,21.2"/>
	<path id="XMLID_2412_" class="st4" d="M68.1,28.8c-2.7,0-4.2-1.4-4.2-4.9c0-3.4,1.5-5,4.2-5c2.7,0,4.2,1.4,4.2,5
		C72.2,27.4,70.7,28.8,68.1,28.8 M68.1,21.1c-1,0-1.3,0.3-1.3,2.8c0,2.4,0.2,2.8,1.3,2.8c1.1,0,1.3-0.4,1.3-2.8
		C69.4,21.4,69,21.1,68.1,21.1"/>
	<path id="XMLID_2332_" class="st4" d="M75.7,28.8c-0.9,0-1.6-0.1-3.3-0.7l0.6-2.2c2.1,0.7,2.4,0.7,3,0.7c0.4,0,0.7-0.2,0.7-0.7
		c0-0.4-0.2-0.5-0.6-0.7l-1.5-0.5c-1.1-0.4-2.1-1.2-2.1-2.7c0-2,1.6-3.1,3.6-3.1c0.7,0,1.4,0.1,3,0.5l-0.6,2.2
		c-1.6-0.4-2.2-0.5-2.7-0.5c-0.4,0-0.7,0.2-0.7,0.7c0,0.3,0.2,0.5,0.6,0.6l1.5,0.5c1.2,0.4,2.1,1.2,2.1,2.7
		C79.4,27.7,77.8,28.8,75.7,28.8"/>
	<path id="XMLID_2408_" class="st4" d="M85.7,25.8h-0.8v2.9h-2.7V19h3.6c2.2,0,3.5,0.9,3.5,3.2C89.2,24.8,87.6,25.8,85.7,25.8
		 M85.6,21.1h-0.8v2.5h0.8c0.5,0,0.8-0.3,0.8-1.3C86.4,21.4,86.1,21.1,85.6,21.1"/>
	<path id="XMLID_2405_" class="st4" d="M93.7,28.8c-2.7,0-4.2-1.4-4.2-4.9c0-3.4,1.5-5,4.2-5c2.7,0,4.2,1.4,4.2,5
		C97.9,27.4,96.3,28.8,93.7,28.8 M93.7,21.1c-1,0-1.3,0.3-1.3,2.8c0,2.4,0.2,2.8,1.3,2.8c1.1,0,1.3-0.4,1.3-2.8
		C95,21.4,94.7,21.1,93.7,21.1"/>
	<path id="XMLID_2402_" class="st4" d="M105.9,28.6c-0.2,0-0.7,0.1-0.9,0.1c-1.1,0-1.6-0.4-2.1-1.4l-1-2.1h-0.6v3.4h-2.6V19h3.8
		c2,0,3.3,0.8,3.3,2.9c0,1.3-0.5,2.1-1.4,2.6l0.8,1.5c0.1,0.2,0.2,0.3,0.4,0.3c0.1,0,0.2,0,0.3,0V28.6z M102.2,21.1h-1v2.1h0.9
		c0.6,0,0.9-0.4,0.9-1.2C103,21.4,102.8,21.1,102.2,21.1"/>
	<path id="XMLID_2325_" class="st4" d="M112.4,28.8c-2.2,0-3.8-0.7-3.8-3.9V19h2.7v5.9c0,1.4,0.2,1.6,1.1,1.6c1,0,1.2-0.2,1.2-1.6
		V19h2.6v5.9C116.2,27.6,115,28.8,112.4,28.8"/>
	<path id="XMLID_2324_" class="st4" d="M122.4,28.6l-2.2-4.4c-0.2-0.3-0.3-0.8-0.4-1.2h-0.1c0,0.4,0.1,0.8,0.1,1.2v4.4h-2.4V19h2.8
		l1.9,3.8c0.2,0.3,0.3,0.7,0.4,1.2h0.1c0-0.4-0.1-0.8-0.1-1.2V19h2.4v9.6H122.4z"/>
	<path id="XMLID_2323_" class="st4" d="M46,45.1l-2.7-5.4c-0.2-0.4-0.4-1-0.5-1.5h-0.2c0,0.5,0.1,1,0.1,1.5v5.4h-3V33.3h3.4l2.3,4.7
		c0.2,0.4,0.4,0.9,0.5,1.5h0.2c0-0.5-0.1-1-0.1-1.5v-4.7h3v11.8H46z"/>
	<path id="XMLID_2322_" class="st4" d="M55.2,45.6c-2.7,0-4.8-0.9-4.8-4.8v-7.3h3.4v7.3c0,1.7,0.2,1.9,1.4,1.9
		c1.2,0,1.5-0.3,1.5-1.9v-7.3H60v7.3C60,44.1,58.4,45.6,55.2,45.6"/>
	<polygon id="XMLID_2321_" class="st4" points="61.3,45.4 61.3,33.4 68.9,33.4 68.9,36.2 64.6,36.2 64.6,38 68.6,38 68.6,40.8 
		64.6,40.8 64.6,42.7 69,42.7 69.2,45.4 	"/>
	<path id="XMLID_2320_" class="st4" d="M76.5,45.4h-4l-3.2-12h3.4l1.6,7c0.1,0.4,0.2,1.3,0.2,1.6h0.2c0-0.3,0.1-1.2,0.2-1.6l1.6-7
		h3.3L76.5,45.4z"/>
	<path id="XMLID_2393_" class="st4" d="M84.5,45.6c-3.4,0-5.2-1.7-5.2-6.1c0-4.2,1.8-6.2,5.2-6.2c3.3,0,5.2,1.7,5.2,6.2
		C89.6,43.8,87.8,45.6,84.5,45.6 M84.5,36c-1.3,0-1.6,0.4-1.6,3.4c0,3,0.3,3.4,1.6,3.4c1.4,0,1.6-0.5,1.6-3.4
		C86.1,36.3,85.7,36,84.5,36"/>
	<path id="XMLID_2390_" class="st4" d="M97.5,41.9h-1v3.6h-3.3v-12h4.5c2.7,0,4.3,1.1,4.3,4C101.9,40.6,99.9,41.9,97.5,41.9
		 M97.5,36.1h-1v3.1h1c0.6,0,1-0.3,1-1.7C98.5,36.4,98.1,36.1,97.5,36.1"/>
	<path id="XMLID_2387_" class="st4" d="M108.4,45.4l-0.5-2.5H105l-0.6,2.5h-3.3l3.2-12h4.5l3.1,12H108.4z M106.7,37.7
		c-0.1-0.5-0.2-1.4-0.2-1.7h-0.2c0,0.3-0.1,1.2-0.2,1.7l-0.6,2.6h1.7L106.7,37.7z"/>
	<path id="XMLID_2384_" class="st4" d="M112.2,33.4h3.4v12h-3.4V33.4z M112.2,32.9v-0.2l1.1-1.7h3.2l-1.7,1.9H112.2z"/>
	<path id="XMLID_76_" class="st4" d="M120.3,45.6c-1.1,0-2-0.1-4.1-0.9l0.8-2.8c2.6,0.8,3,0.8,3.7,0.8c0.6,0,0.9-0.3,0.9-0.9
		c0-0.5-0.3-0.7-0.7-0.8l-1.9-0.6c-1.4-0.4-2.6-1.5-2.6-3.4c0-2.4,2-3.8,4.5-3.8c0.9,0,1.8,0.1,3.7,0.6l-0.7,2.8
		c-2-0.5-2.7-0.6-3.3-0.6c-0.5,0-0.9,0.2-0.9,0.8c0,0.4,0.3,0.6,0.8,0.7l1.9,0.7c1.4,0.5,2.6,1.5,2.6,3.4
		C124.9,44.2,122.9,45.6,120.3,45.6"/>
</g>
</svg>
