<?xml version="1.0" encoding="utf-8"?>
<!-- Generator: Adobe Illustrator 19.0.0, SVG Export Plug-In . SVG Version: 6.00 Build 0)  -->
<svg version="1.0" id="Layer_1" xmlns="http://www.w3.org/2000/svg" xmlns:xlink="http://www.w3.org/1999/xlink" x="0px" y="0px"
	 width="36px" height="36px" viewBox="0 0 36 36" style="enable-background:new 0 0 36 36;" xml:space="preserve">
<style type="text/css">
	.st0{fill:#FFFFFF;}
	.st1{fill:#F57E26;}
</style>
<g id="XMLID_113_">
	<path id="XMLID_139_" class="st0" d="M18,35.5C8.4,35.5,0.5,27.6,0.5,18C0.5,8.3,8.4,0.5,18,0.5c9.7,0,17.5,7.8,17.5,17.5
		C35.5,27.6,27.6,35.5,18,35.5z"/>
	<path id="XMLID_136_" class="st0" d="M18,1c9.4,0,17,7.6,17,17c0,9.4-7.6,17-17,17C8.6,35,1,27.4,1,18C1,8.6,8.6,1,18,1 M18,0
		C8.1,0,0,8.1,0,18c0,9.9,8.1,18,18,18c9.9,0,18-8.1,18-18C36,8.1,27.9,0,18,0L18,0z"/>
</g>
<path class="st1" d="M18,1C8.6,1,1,8.6,1,18c0,9.4,7.6,17,17,17c9.4,0,17-7.6,17-17C35,8.6,27.4,1,18,1z M17.8,8.1
	c0.5,0.4,1,0.8,1.6,1.4c0.1,0.1,0.2,0.2,0.6,0.1c0.8-0.2,2.6-1.1,3.9-1.3c0.6-0.1,0.8,0,1.1,0.3c0.7,0.6,1.2,1,1.6,1.5
	c-1.3,0.2-1.8,0.3-2.1,0.3l-0.1,0l0,0c-0.6,0.2-0.8,0.6-0.9,0.8c0,0.1,0,0.2,0,0.3c0,0.2,0.1,0.4,0.3,0.7c0.3,0.5,0.5,0.9,0.6,1.2
	c-1.3,0.4-2.6,0.9-3.2,1.2c-0.4,0.2-0.6,0.5-0.7,0.9c0,0.1,0,0.1,0,0.2c0,0.2,0.1,0.6,0.4,0.9c0.9,1,2,3.3,2,5.8
	c0,0.5,0,1.1-0.2,1.6c-0.5,2.6-2.3,4.6-5.2,5.9c-1.5,0.7-3.1,0.8-4.6,0.8c0.1,0,0.2,0,0.3,0c2.9-0.4,5-1.4,6.4-3.9
	c2-3.5,0.5-7.8-2.5-10.2c-0.8-0.7-1.8-1.2-2.7-1.8c-0.2-0.1-0.4-0.3-0.1-0.7c0.5-0.7,1.3-1.8,2.6-2.8c0.3-0.2,0.2-0.4,0-0.5
	c-0.5-0.4-0.8-0.6-1.4-1c-0.3-0.2-0.4-0.3-0.2-0.6C15.6,8.9,16,8.5,17.1,8C17.4,7.9,17.6,7.9,17.8,8.1z M6.7,11.1
	C6.9,10.6,7.5,9.6,8,9c0.1-0.1,0.2-0.2,0.5-0.2c0.5,0.1,1.3,0.4,2.4,0.7c0.2,0.1,0.3,0.1,0.5-0.1c0.5-0.5,1.7-1.7,3.8-2.5
	c0.2-0.1,0.5-0.1,0.8,0c0.2,0.1,0.5,0.2,0.8,0.4c-1,0.4-1.5,0.8-1.9,1.2c-0.3,0.3-0.4,0.6-0.4,0.9c0,0.1,0,0.1,0,0.1
	c0.1,0.4,0.3,0.7,0.7,0.9v0l0.1,0c0,0,0,0-0.1,0c0.3,0.2,0.5,0.3,0.8,0.5c-1.1,1-1.8,1.9-2.3,2.6c-0.3,0.4-0.4,0.8-0.3,1.1
	c0,0.3,0.2,0.6,0.6,0.9l0.5,0.3c0.8,0.5,1.5,0.9,2.2,1.4c2.5,2.1,4.1,5.9,2.3,9.1c-1.2,2.2-3,3.3-5.8,3.6c-1,0.1-2,0-2.8-0.2
	c0.4,0,0.7,0.1,1.1,0.1c2.1,0,4.3-0.8,5.4-2.5c2.8-4.5-0.4-9.1-4.8-10.5c-1-0.3-2.6-0.7-3.9-0.9c-0.5-0.1-0.6-0.2-0.4-0.5
	c0.3-0.6,0.8-1.7,1.7-3.1c0-0.1,0-0.2-0.2-0.3c-0.5-0.1-1.5-0.4-2.3-0.5C6.7,11.5,6.6,11.3,6.7,11.1z M20.3,33.3
	c-9.8,1.5-14.8-5.9-14.8-5.9c2.3,2.2,6.1,5.7,11.9,3c8.4-3.8,5.9-12.2,3.6-14.7c-0.3-0.3-0.1-0.5,0.1-0.6c0.7-0.3,2.4-1,3.8-1.3
	c0.2,0,0.2-0.1,0.1-0.3c-0.1-0.3-0.3-0.9-1-2c-0.2-0.2-0.1-0.4,0.1-0.4c0.3-0.1,0.6-0.2,2.3-0.4c0.2,0,0.4,0,0.5,0.2
	c0.4,0.7,0.6,1.3,0.9,2.2c0,0.1,0.2,0.3,0.3,0.3c0.6,0,3,0,4.2,0.3c0.1,0,0.3,0.1,0.4,0.3c0.3,1,1,5.7-1,10.7
	C29.4,30.3,24.8,32.6,20.3,33.3z"/>
</svg>
