<?xml version="1.0" encoding="utf-8"?>
<!-- Generator: Adobe Illustrator 19.0.0, SVG Export Plug-In . SVG Version: 6.00 Build 0)  -->
<svg version="1.0" id="Layer_1" xmlns="http://www.w3.org/2000/svg" xmlns:xlink="http://www.w3.org/1999/xlink" x="0px" y="0px"
	 width="89px" height="89px" viewBox="0 0 89 89" style="enable-background:new 0 0 89 89;" xml:space="preserve">
<style type="text/css">
	.st0{fill:#FFFFFF;}
</style>
<g>
	<path id="XMLID_94_" class="st0" d="M44.5,89C20,89,0,69,0,44.5S20,0,44.5,0C69,0,89,20,89,44.5S69,89,44.5,89z M44.5,1
		C20.5,1,1,20.5,1,44.5S20.5,88,44.5,88C68.5,88,88,68.5,88,44.5S68.5,1,44.5,1z"/>
</g>
<circle id="XMLID_97_" class="st0" cx="44.4" cy="30.1" r="9.5"/>
<path id="XMLID_93_" class="st0" d="M54.3,56.8c1.7,3.7,3.4,9.1,3.5,16.4c0,0.6,0,1.2,0,1.7h0.8c0.1,1.5,1.3,2.7,2.8,2.7
	c1.5,0,2.8-1.2,2.8-2.7h0.4c0.1-8.1-1.5-14.5-3.4-19.2c-0.5-1.5-1.1-2.9-1.7-4.2c-1.2-2.3-2.6-4.2-4.3-5.9c0,0-0.1-0.1-0.1-0.1l0,0
	c-1.1-1-2.2-2-3.6-2.9c-1.7-1.2-3.2-2-4.8-2.6c0,0,0,0,0,0l-1.6,1.7l-0.7,0.7l-0.7-0.7l-1.6-1.7c0,0,0,0,0,0
	c-1.6,0.6-3.1,1.4-4.8,2.6c-3.5,2.4-6.1,5.1-8,8.9c-0.8,1.5-1.4,3.1-2,5c-1.8,4.6-3.1,10.7-3,18.3h0.6c0.1,1.5,1.3,2.7,2.8,2.7
	c1.5,0,2.8-1.2,2.8-2.7h0.6c0-0.6,0-1.1,0-1.7c0.1-7,1.7-12.3,3.3-16.1c0.1-0.2,0.2-0.3,0.2-0.5l-0.6,25.4c3.3,0.9,6.8,1.4,10.3,1.4
	c3.6,0,7-0.5,10.3-1.4l-0.6-25.5C54.2,56.6,54.3,56.7,54.3,56.8z"/>
</svg>
