<?xml version="1.0" encoding="utf-8"?>
<!-- Generator: Adobe Illustrator 19.0.0, SVG Export Plug-In . SVG Version: 6.00 Build 0)  -->
<svg version="1.0" id="Layer_1" xmlns="http://www.w3.org/2000/svg" xmlns:xlink="http://www.w3.org/1999/xlink" x="0px" y="0px"
	 width="36px" height="37.7px" viewBox="0 0 36 37.7" style="enable-background:new 0 0 36 37.7;" xml:space="preserve">
<style type="text/css">
	.st0{fill:#FFFFFF;}
</style>
<g id="XMLID_237_">
	<path id="XMLID_234_" class="st0" d="M22,19c-1,1.1-1.9,2-1.8,2c0,0-0.8,0.9-1.8,2c-0.9,0.8-1.8,1.7-2.9,2.5
		c-1.2,0.9-3.1,1-4.1,0.4c-1-0.6-3-1.9-4.5-1.6c-1.2,0.3-2.9,1.2-4.8,3.5c-4.6,5.5-0.5,7.2,2.4,9.4c2.9,2.2,12.4-3.3,21.1-12.2
		c8.7-8.9,12-18.2,9.6-20.9c-2.4-2.7-4.4-6.7-9.6-1.7c-2.2,2.1-3,3.8-3.1,5.1c-0.2,1.5,1.2,3.4,1.9,4.3c0.7,1,0.7,2.9-0.1,4.1
		C23.6,17.1,22.8,18.1,22,19z"/>
</g>
</svg>
