<?xml version="1.0" encoding="utf-8"?>
<!-- Generator: Adobe Illustrator 19.0.0, SVG Export Plug-In . SVG Version: 6.00 Build 0)  -->
<svg version="1.0" id="Layer_1" xmlns="http://www.w3.org/2000/svg" xmlns:xlink="http://www.w3.org/1999/xlink" x="0px" y="0px"
	 width="18px" height="18px" viewBox="0 0 18 18" style="enable-background:new 0 0 18 18;" xml:space="preserve">
<style type="text/css">
	.st0{fill:#FFFFFF;}
	.st1{fill:#010101;}
	.st2{fill:#20140F;}
</style>
<g id="XMLID_52_">
	<path id="XMLID_77_" class="st0" d="M9,17.5c-4.7,0-8.5-3.8-8.5-8.5S4.3,0.5,9,0.5s8.5,3.8,8.5,8.5S13.7,17.5,9,17.5z"/>
	<path id="XMLID_74_" class="st0" d="M9,1c4.4,0,8,3.6,8,8s-3.6,8-8,8s-8-3.6-8-8S4.6,1,9,1 M9,0C4,0,0,4,0,9c0,5,4,9,9,9
		c5,0,9-4,9-9C18,4,14,0,9,0L9,0z"/>
</g>
<g id="XMLID_59_">
	<path id="XMLID_56_" class="st1" d="M5.3,11c0.1,0,0.3,0,0.4,0l2.4,4.4H3.6c-0.3,0-0.5-0.2-0.5-0.5v-0.7c0.2-0.5,0.4-0.9,0.6-1.3
		C4.2,11.9,4.5,11.3,5,11C5,11,5.1,11,5.3,11 M5.3,10.7c-0.2,0-0.3,0-0.3,0c-0.9,0.4-1.1,1.5-2,3.4v0.8c0,0.4,0.3,0.8,0.8,0.8h4.9
		l-2.7-4.9C5.7,10.7,5.5,10.7,5.3,10.7L5.3,10.7z"/>
	<g id="XMLID_53_">
		<path id="XMLID_55_" class="st2" d="M13.1,10.7c-0.2-0.1-1,0-1,0c-0.1,0-0.3,0-0.4-0.1l-3.3,4.5l0.3,0.5h5.8
			c0.4,0,0.8-0.3,0.8-0.8v-0.8C14.2,12.2,14,11.2,13.1,10.7z"/>
		<path id="XMLID_54_" class="st2" d="M11.2,10.5c-0.4-0.3-0.7-0.7-0.7-1.3V8.7c0.3-0.4,0.6-0.9,0.7-1.4c0-0.1,0.1-0.1,0.2-0.2
			c0.3-0.3,0.4-0.8,0.1-1.1c0-0.1-0.1-0.1-0.1-0.2c0-0.4,0-0.9,0-1.3c0-0.5-0.2-1.1-0.5-1.5c-0.3-0.3-0.7-0.5-1.2-0.6
			c-0.5-0.1-1.1-0.1-1.7,0C7.6,2.5,7.2,2.8,6.9,3.2C6.7,3.6,6.6,4,6.5,4.4c0,0.5,0,0.9,0,1.4C6.5,5.9,6.5,6,6.4,6
			C6.2,6.4,6.3,6.9,6.6,7.2c0.1,0.1,0.1,0.2,0.1,0.3c0.1,0.5,0.4,0.9,0.7,1.2v0.5c0,0.8-0.7,1.5-1.5,1.5c0,0,0,0-0.1,0L8,14.6
			l-0.2-0.4L11.2,10.5z"/>
	</g>
</g>
<g id="XMLID_60_">
	<path id="XMLID_78_" class="st0" d="M9,1c4.4,0,8,3.6,8,8s-3.6,8-8,8s-8-3.6-8-8S4.6,1,9,1 M9,0C4,0,0,4,0,9c0,5,4,9,9,9
		c5,0,9-4,9-9C18,4,14,0,9,0L9,0z"/>
</g>
</svg>
